<svg width="101" height="44" viewBox="0 0 101 44" fill="none" xmlns="http://www.w3.org/2000/svg">
<path fill-rule="evenodd" clip-rule="evenodd" d="M10.3198 20.7402L0.549805 42.6302H6.93982L8.83984 37.9902H18.6598L20.5598 42.6302H26.9498L17.1498 20.7402H10.3098H10.3198ZM13.7898 25.9002L15.4498 30.0602L17.1098 34.2202H13.7998L10.4898 34.2402L12.1398 30.0702L13.7898 25.9002ZM57.7098 20.7402L47.9398 42.6302H54.3298L56.2298 37.9902H66.0498L67.9498 42.6302H74.3398L64.5398 20.7402H57.6998H57.7098ZM61.1798 25.9002L62.8398 30.0602L64.4998 34.2202H61.1898L57.8798 34.2402L59.5298 30.0702L61.1798 25.9002ZM76.0098 20.6602H83.2698L87.9098 27.6402L92.8298 20.6602H99.9798L91.3598 31.2702L100.54 42.7002H93.2798L88.0098 35.2502L82.8498 42.7002H75.0998L84.4498 31.3802L76.0098 20.6702V20.6602Z" fill="#8C96A1"/>
<path d="M45.3098 11.4102L36.6198 19.9602L39.6097 22.6702L42.4398 19.8302H42.7598V36.1502C42.7598 38.2202 41.0898 39.8902 39.0198 39.8902H36.0497C33.9797 39.8902 32.3098 38.2202 32.3098 36.1502V34.4102H26.5298V36.5802C26.5298 40.3302 29.5497 43.3402 33.2897 43.3402H40.9697C44.7197 43.3402 47.7297 40.3202 47.7297 36.5802V19.8402H47.9498L51.2598 22.6702L53.8597 19.9602L45.3098 11.4102Z" fill="#8C96A1"/>
<path d="M29.3698 32.5902L38.0598 24.0402L35.0698 21.3302L32.2398 24.1702H31.9198V7.85015C31.9198 5.78016 33.5898 4.11016 35.6598 4.11016H38.6298C40.6998 4.11016 42.3698 5.78016 42.3698 7.85015V9.59016H48.1498V7.42015C48.1498 3.67015 45.1298 0.660156 41.3898 0.660156H33.7098C29.9598 0.660156 26.9498 3.68015 26.9498 7.42015V24.1602H26.7298L23.4198 21.3302L20.8198 24.0402L29.3698 32.5902Z" fill="#8C96A1"/>
<path fill-rule="evenodd" clip-rule="evenodd" d="M33.7101 0.679688C29.9601 0.679688 26.9501 3.69969 26.9501 7.43969V24.1797H26.73L23.42 21.3497L20.8201 24.0597L29.3701 32.6097L38.0601 24.0597L35.0701 21.3497L32.2401 24.1897H31.92V7.86969C31.92 5.79969 33.59 4.12969 35.66 4.12969H38.6301C40.7001 4.12969 42.3701 5.79969 42.3701 7.86969V9.60969H48.1501V7.43969C48.1501 3.68969 45.1301 0.679688 41.3901 0.679688H33.7101ZM45.3 11.4097L36.61 19.9597L39.6 22.6697L42.4301 19.8297H42.7501V36.1497C42.7501 38.2197 41.0801 39.8897 39.0101 39.8897H36.04C33.97 39.8897 32.3 38.2197 32.3 36.1497V34.4097H26.5201V36.5797C26.5201 40.3297 29.5401 43.3397 33.2801 43.3397H40.9601C44.7101 43.3397 47.72 40.3197 47.72 36.5797V19.8397H47.9401L51.2501 22.6697L53.85 19.9597L45.3 11.4097ZM76.0101 20.6697L84.4501 31.3797L75.1 42.6997H82.85L88.0101 35.2497L93.2801 42.6997H100.54L91.36 31.2697L99.98 20.6597H92.8301L87.91 27.6397L83.2701 20.6597H76.0101V20.6697ZM10.3101 20.7497L0.540039 42.6397H6.93005L8.83008 37.9997H18.6501L20.55 42.6397H26.9401L17.1401 20.7497H10.3H10.3101ZM57.7001 20.7497L47.9301 42.6397H54.3201L56.22 37.9997H66.04L67.9401 42.6397H74.3301L64.5301 20.7497H57.6901H57.7001ZM13.7801 25.9097L15.4401 30.0697L17.1 34.2297H13.79L10.48 34.2497L12.1301 30.0797L13.7801 25.9097ZM61.17 25.9097L62.8301 30.0697L64.4901 34.2297H61.1801L57.8701 34.2497L59.5201 30.0797L61.17 25.9097Z" fill="url(#paint0_linear_770_7557)" stroke="#0C4C75" stroke-width="0.13"/>
<defs>
<linearGradient id="paint0_linear_770_7557" x1="50.54" y1="0.339688" x2="50.54" y2="43.1897" gradientUnits="userSpaceOnUse">
<stop stop-color="#70B0DF"/>
<stop offset="0.5" stop-color="#1B81C5"/>
<stop offset="1" stop-color="#4A98CE"/>
</linearGradient>
</defs>
</svg>
