<svg width="66" height="94" viewBox="0 0 66 94" fill="none" xmlns="http://www.w3.org/2000/svg">
<path d="M33.1903 93.1005L6.5103 85.7005L0.570312 19.0205H65.8903L59.9403 85.6905L33.1903 93.1005Z" fill="#264DE4"/>
<path d="M54.8505 81.4407L59.9305 24.4707H33.2305V87.4307L54.8505 81.4407Z" fill="#2965F1"/>
<path d="M14.2002 49.2002L14.9302 57.3802H33.2302V49.2002H14.2002Z" fill="#EBEBEB"/>
<path d="M12.7207 32.6504L13.4707 40.8304H33.2307V32.6504H33.2007H12.7207Z" fill="#EBEBEB"/>
<path d="M33.23 70.4407L33.19 70.4507L24.09 67.9907L23.5 61.4707H19.08H15.29L16.44 74.3107L33.19 78.9607L33.23 78.9507V70.4407Z" fill="#EBEBEB"/>
<path d="M15.9404 0.900391H25.8404V5.04039H20.0804V9.18039H25.8404V13.3204H15.9404V0.900391Z" fill="black"/>
<path d="M27.8301 0.900391H37.7301V4.50039H31.9701V5.22039H37.7301V13.5004H27.8301V9.72039H33.5901V9.00039H27.8301V0.900391Z" fill="black"/>
<path d="M39.71 0.900391H49.61V4.50039H43.85V5.22039H49.61V13.5004H39.71V9.72039H45.47V9.00039H39.71V0.900391Z" fill="black"/>
<path d="M52.2102 49.2004L53.6902 32.6504H33.2002V40.8304H44.7202L43.9802 49.2004H33.2002V57.3804H43.2702L42.3202 67.9804L33.2002 70.4504V78.9504L49.9702 74.3104L50.0902 72.9304L52.0102 51.4004L52.2102 49.2004Z" fill="white"/>
</svg>
