<svg width="101" height="72" viewBox="0 0 101 72" fill="none" xmlns="http://www.w3.org/2000/svg">
<path d="M99.9903 27.2993C100.26 26.3893 90.9803 24.2493 87.6103 25.5393C85.7003 16.9093 81.1604 15.5393 79.0304 13.9893C75.0604 19.0893 73.5504 26.8993 77.2204 32.3593C75.3604 35.7693 8.26034 33.5193 4.08034 34.1193C-2.67966 35.3893 2.73036 49.6093 3.85036 54.1493C10.0204 72.4593 30.5803 73.5193 48.0503 70.7993C65.4603 68.4793 80.4704 53.5293 85.4804 37.7793C94.1104 37.7493 98.6304 34.4393 100.97 27.9893L100 27.2893L99.9903 27.2993Z" fill="#0091E2"/>
<path d="M10.2003 32.2197C10.8403 31.8997 20.1703 33.0397 19.8003 31.4297C19.4903 30.7697 20.6003 22.4397 19.0103 22.7597C18.3803 23.0797 9.03027 21.9397 9.41027 23.5497C9.71027 24.2097 8.62028 32.5297 10.2003 32.2197Z" fill="#0091E2"/>
<path d="M22.3505 32.2197C22.9905 31.8997 32.3205 33.0397 31.9505 31.4297C31.6405 30.7697 32.7505 22.4397 31.1605 22.7597C30.5005 23.0597 21.0105 21.9797 21.5605 23.5497C21.8605 24.4197 20.7805 32.4997 22.3505 32.2197Z" fill="#0091E2"/>
<path d="M34.7304 32.2197C35.3704 31.8997 44.7003 33.0397 44.3303 31.4297C44.0203 30.7697 45.1303 22.4397 43.5403 22.7597C42.9103 23.0797 33.5603 21.9397 33.9403 23.5497C34.2503 24.2097 33.1404 32.5697 34.7304 32.2197Z" fill="#0091E2"/>
<path d="M46.9305 32.2197C47.5805 31.8997 56.8905 33.0397 56.5305 31.4297C56.2205 30.7797 57.3305 22.4297 55.7405 22.7597C55.1105 23.0797 45.7606 21.9397 46.1406 23.5497C46.4506 24.2097 45.3405 32.5497 46.9305 32.2197Z" fill="#0091E2"/>
<path d="M22.3505 20.9492C23.0005 20.6292 32.2905 21.7592 31.9505 20.1592C31.6405 19.5092 32.7505 11.1592 31.1605 11.4892C30.5005 11.7892 21.0105 10.7092 21.5605 12.2792C21.8605 13.1592 20.7805 21.1992 22.3505 20.9492Z" fill="#0091E2"/>
<path d="M34.7304 20.9492C35.3804 20.6292 44.6703 21.7592 44.3303 20.1592C44.0203 19.5092 45.1303 11.1592 43.5403 11.4892C42.9103 11.8092 33.5603 10.6692 33.9403 12.2792C34.2503 12.9392 33.1404 21.2692 34.7304 20.9492Z" fill="#0091E2"/>
<path d="M46.9303 20.95C57.7903 20.35 56.6103 24.13 56.5303 12.28C56.9103 10.68 47.5303 11.81 46.9303 11.49C46.5103 11.49 46.1404 11.82 46.1404 12.28C46.4504 12.94 45.3503 21.25 46.9303 20.95Z" fill="#0091E2"/>
<path d="M46.9303 9.62967C57.8003 9.02967 56.6103 12.8197 56.5303 0.959673C56.9103 -0.640327 47.5303 0.489673 46.9303 0.169673C46.5103 0.169673 46.1404 0.499673 46.1404 0.959673C46.4504 1.61967 45.3503 9.92967 46.9303 9.62967Z" fill="#0091E2"/>
<path d="M59.2206 32.2197C59.8706 31.8997 69.1806 33.0397 68.8206 31.4297C68.5106 30.7797 69.6206 22.4297 68.0306 22.7597C67.4006 23.0797 58.0506 21.9397 58.4306 23.5497C58.7306 24.1997 57.6506 32.5297 59.2206 32.2197Z" fill="#0091E2"/>
</svg>
