<svg width="101" height="59" viewBox="0 0 101 59" fill="none" xmlns="http://www.w3.org/2000/svg">
<path d="M100.21 57.4998C96.57 58.4198 94.32 57.5398 92.3 54.5098L77.9399 34.6498L75.87 31.8998L59.1 54.5798C57.18 57.3098 55.17 58.4998 51.6 57.5298L73.0699 28.7098L53.08 2.67975C56.52 2.00975 58.89 2.34975 61 5.42975L75.89 25.5398L90.89 5.53975C92.81 2.80975 94.88 1.76975 98.33 2.77975L90.58 13.0598L80.08 26.7298C78.83 28.2898 79 29.3598 80.15 30.8698L100.2 57.5098L100.21 57.4998ZM0.23999 28.2198L2 19.5798C6.78 2.48976 26.37 -4.62024 39.89 5.94975C47.79 12.1598 49.75 20.9498 49.36 30.7898H4.84998C4.17998 48.5098 16.9299 59.1998 33.1899 53.7498C38.8899 51.8298 42.2501 47.3698 43.9301 41.7798C44.7801 38.9798 46.2 38.5398 48.83 39.3398C47.49 46.3298 44.46 52.1698 38.05 55.8198C28.48 61.2898 14.82 59.5198 7.63 51.9198C3.35 47.5098 1.58004 41.9198 0.790039 35.9498C0.670039 34.9598 0.41998 34.0198 0.22998 33.0698C0.24998 31.4498 0.26001 29.8398 0.26001 28.2198H0.23999ZM4.92004 27.0298H45.15C44.89 14.2198 36.91 5.11975 26.01 5.03975C14.04 4.94975 5.45005 13.8298 4.93005 27.0298H4.92004Z" fill="black"/>
</svg>
