<svg width="101" height="100" viewBox="0 0 101 100" fill="none" xmlns="http://www.w3.org/2000/svg">
<mask id="mask0_765_362" style="mask-type:luminance" maskUnits="userSpaceOnUse" x="0" y="0" width="101" height="100">
<path d="M100.93 0.429688H0.930176V99.5697H100.93V0.429688Z" fill="white"/>
</mask>
<g mask="url(#mask0_765_362)">
<path d="M98.1301 45.6292L54.8801 2.37922C52.3901 -0.110781 48.3501 -0.110781 45.8601 2.37922L36.8801 11.3592L48.2701 22.7592C51.0001 21.8292 54.0301 22.5292 56.0701 24.5692C58.1201 26.6192 58.8201 29.6692 57.8701 32.4092L68.8501 43.3892C71.5901 42.4392 74.6401 43.1392 76.6901 45.1892C79.6501 48.1492 79.6601 52.9492 76.7001 55.9092C76.7001 55.9092 76.7001 55.9092 76.6901 55.9192C73.7301 58.8892 68.9302 58.8892 65.9602 55.9192C63.8002 53.7492 63.1401 50.4992 64.3101 47.6692L54.0701 37.4292V64.3792C54.8101 64.7492 55.4901 65.2292 56.0801 65.8092C59.0401 68.7792 59.0401 73.5792 56.0801 76.5492C53.1101 79.5092 48.3101 79.5092 45.3501 76.5492C42.3801 73.5892 42.3801 68.7892 45.3501 65.8192C46.0601 65.1092 46.9001 64.5392 47.8301 64.1592V36.9592C46.9001 36.5792 46.0501 36.0192 45.3501 35.2992C43.1701 33.1192 42.5202 29.8392 43.7102 26.9992L32.4801 15.7692L2.82014 45.4292C0.330137 47.9192 0.330137 51.9592 2.82014 54.4492L46.0701 97.6992C48.5601 100.189 52.6002 100.189 55.0902 97.6992L98.1401 54.6492C100.63 52.1592 100.63 48.1192 98.1401 45.6192" fill="#F03C2E"/>
</g>
</svg>
