<svg width="101" height="98" viewBox="0 0 101 98" fill="none" xmlns="http://www.w3.org/2000/svg">
<path fill-rule="evenodd" clip-rule="evenodd" d="M50.5 0.230469C22.87 0.230469 0.5 22.6005 0.5 50.2305C0.5 72.3505 14.81 91.0405 34.69 97.6705C37.19 98.1105 38.13 96.6105 38.13 95.2905C38.13 94.1005 38.07 90.1705 38.07 85.9805C25.51 88.2905 22.26 82.9205 21.26 80.1005C20.7 78.6605 18.26 74.2305 16.14 73.0405C14.39 72.1005 11.89 69.7905 16.08 69.7305C20.02 69.6705 22.83 73.3505 23.77 74.8505C28.27 82.4105 35.46 80.2905 38.33 78.9805C38.77 75.7305 40.08 73.5405 41.52 72.2905C30.4 71.0405 18.77 66.7305 18.77 47.6005C18.77 42.1605 20.71 37.6605 23.89 34.1605C23.39 32.9105 21.64 27.7905 24.39 20.9105C24.39 20.9105 28.58 19.6005 38.14 26.0405C42.14 24.9105 46.39 24.3505 50.64 24.3505C54.89 24.3505 59.14 24.9105 63.14 26.0405C72.7 19.5405 76.89 20.9105 76.89 20.9105C79.64 27.7805 77.89 32.9105 77.39 34.1605C80.58 37.6605 82.51 42.1005 82.51 47.6005C82.51 66.7905 70.82 71.0405 59.7 72.2905C61.51 73.8505 63.07 76.8505 63.07 81.5405C63.07 88.2305 63.01 93.6005 63.01 95.2905C63.01 96.6005 63.95 98.1705 66.45 97.6705C86.2 91.0405 100.51 72.2905 100.51 50.2305C100.51 22.6005 78.14 0.230469 50.51 0.230469H50.5Z" fill="#1B1F23"/>
</svg>
