<svg width="66" height="94" viewBox="0 0 66 94" fill="none" xmlns="http://www.w3.org/2000/svg">
<path d="M65.32 19.0205L59.37 85.6905L32.62 93.1005L5.94 85.7005L0 19.0205H65.32Z" fill="#E44D26"/>
<path d="M32.6602 87.4307L54.2802 81.4407L59.3602 24.4707H32.6602V87.4307Z" fill="#F16529"/>
<path d="M21.0902 40.8304H32.6602V32.6504H32.6302H12.1602L12.3502 34.8404L14.3602 57.3804H32.6602V49.2004H21.8402L21.0902 40.8304Z" fill="#EBEBEB"/>
<path d="M22.9405 61.4707H18.5105H14.7305L15.8705 74.3107L32.6205 78.9607L32.6605 78.9507V70.4407L32.6305 70.4507L23.5205 67.9907L22.9405 61.4707Z" fill="#EBEBEB"/>
<path d="M6.08008 0.900391H10.2401V5.01039H14.0401V0.900391H18.2001V13.3304H14.0401V9.17039H10.2401V13.3304H6.08008V0.900391Z" fill="black"/>
<path d="M23.66 5.02039H20V0.900391H31.48V5.02039H27.82V13.3304H23.66V5.02039Z" fill="black"/>
<path d="M33.29 0.900391H37.62L40.29 5.27039L42.95 0.900391H47.29V13.3304H43.15V7.17039L40.29 11.5904H40.22L37.36 7.17039V13.3304H33.29V0.900391Z" fill="black"/>
<path d="M49.3604 0.900391H53.5204V9.22039H59.3604V13.3304H49.3604V0.900391Z" fill="black"/>
<path d="M32.6299 57.3802H42.6999L41.7499 67.9802L32.6299 70.4502V78.9502L49.3999 74.3102L49.5199 72.9302L51.4399 51.4002L51.6399 49.2002H49.4399H32.6299V57.3802Z" fill="white"/>
<path d="M32.6299 40.8104V40.8304H52.3599H52.3899L52.5499 38.9904L52.9199 34.8404L53.1199 32.6504H32.6299V37.7304V40.8104Z" fill="white"/>
</svg>
