<svg width="74" height="101" viewBox="0 0 74 101" fill="none" xmlns="http://www.w3.org/2000/svg">
<path fill-rule="evenodd" clip-rule="evenodd" d="M23.7498 77.7098C23.7498 77.7098 19.9298 79.9298 26.4698 80.6798C34.3998 81.5898 38.4398 81.4498 47.1698 79.7998C47.1698 79.7998 49.4698 81.2398 52.6798 82.4798C33.0998 90.8698 8.3698 81.9898 23.7498 77.6998V77.7098ZM21.3598 66.7598C21.3598 66.7598 17.0798 69.9298 23.6198 70.6098C32.0898 71.4798 38.7698 71.5598 50.3398 69.3298C50.3398 69.3298 51.9398 70.9498 54.4498 71.8398C30.7798 78.7598 4.4198 72.3898 21.3598 66.7598Z" fill="#5382A1"/>
<path fill-rule="evenodd" clip-rule="evenodd" d="M41.5201 48.1898C46.3501 53.7498 40.2501 58.7398 40.2501 58.7398C40.2501 58.7398 52.5001 52.4198 46.8701 44.4998C41.6201 37.1198 37.5901 33.4498 59.4001 20.7998C59.4001 20.7998 25.1601 29.3498 41.5101 48.1898H41.5201Z" fill="#F8981D"/>
<path fill-rule="evenodd" clip-rule="evenodd" d="M67.4198 85.81C67.4198 85.81 70.2498 88.14 64.3098 89.94C53.0098 93.36 17.2798 94.39 7.34977 90.08C3.77977 88.53 10.4698 86.37 12.5798 85.92C14.7698 85.45 16.0298 85.53 16.0298 85.53C12.0598 82.74 -9.62023 91.02 5.01977 93.39C44.9298 99.86 77.7698 90.48 67.4198 85.81ZM25.5898 55.42C25.5898 55.42 7.41977 59.74 19.1598 61.31C24.1198 61.97 33.9898 61.82 43.1998 61.05C50.7198 60.42 58.2698 59.07 58.2698 59.07C58.2698 59.07 55.6198 60.21 53.6998 61.52C35.2398 66.38 -0.410227 64.11 9.84977 59.15C18.5298 54.95 25.5898 55.43 25.5898 55.43V55.42ZM58.1898 73.64C76.9498 63.89 68.2798 54.52 62.2198 55.79C60.7398 56.1 60.0698 56.37 60.0698 56.37C60.0698 56.37 60.6198 55.51 61.6698 55.13C73.6498 50.92 82.8598 67.55 57.8098 74.14C57.8098 74.14 58.0998 73.88 58.1798 73.65L58.1898 73.64Z" fill="#5382A1"/>
<path fill-rule="evenodd" clip-rule="evenodd" d="M46.8802 0.379883C46.8802 0.379883 57.2702 10.7699 37.0202 26.7499C20.7902 39.5699 33.3202 46.8799 37.0202 55.2399C27.5402 46.6899 20.5902 39.1599 25.2502 32.1599C32.1002 21.8799 51.0702 16.8899 46.8802 0.379883Z" fill="#F8981D"/>
<path fill-rule="evenodd" clip-rule="evenodd" d="M27.4298 100.059C45.4398 101.209 73.0898 99.4194 73.7498 90.8994C73.7498 90.8994 72.4898 94.1294 58.8698 96.6894C43.4998 99.5794 24.5398 99.2494 13.2998 97.3894C13.2998 97.3894 15.5998 99.2994 27.4398 100.059H27.4298Z" fill="#5382A1"/>
</svg>
