<svg width="101" height="100" viewBox="0 0 101 100" fill="none" xmlns="http://www.w3.org/2000/svg">
<path d="M100.8 0H0.799805V100H100.8V0Z" fill="#F7DF1E"/>
<path d="M67.9701 78.1296C69.9801 81.4196 72.6001 83.8396 77.2401 83.8396C81.1301 83.8396 83.6201 81.8896 83.6201 79.2096C83.6201 75.9896 81.0601 74.8496 76.7801 72.9697L74.4301 71.9596C67.6501 69.0696 63.1401 65.4496 63.1401 57.7996C63.1401 50.7496 68.5101 45.3896 76.9001 45.3896C82.8701 45.3896 87.1701 47.4696 90.2701 52.9096L82.9501 57.6096C81.3401 54.7196 79.6001 53.5797 76.9001 53.5797C74.2001 53.5797 72.4001 55.3296 72.4001 57.6096C72.4001 60.4296 74.1501 61.5696 78.1801 63.3196L80.5301 64.3297C88.5101 67.7497 93.0201 71.2396 93.0201 79.0896C93.0201 87.5496 86.3701 92.1897 77.4501 92.1897C68.5301 92.1897 63.0801 88.0297 60.3301 82.5797L67.9701 78.1396V78.1296ZM34.7701 78.9397C36.2501 81.5597 37.5901 83.7696 40.8201 83.7696C44.0501 83.7696 45.8501 82.5597 45.8501 77.8697V45.9196H55.2501V77.9996C55.2501 87.7296 49.5501 92.1597 41.2201 92.1597C33.7001 92.1597 29.3401 88.2696 27.1201 83.5797L34.7701 78.9496V78.9397Z" fill="black"/>
</svg>
