<svg width="101" height="100" viewBox="0 0 101 100" fill="none" xmlns="http://www.w3.org/2000/svg">
<path fill-rule="evenodd" clip-rule="evenodd" d="M50.19 74.4396C72.31 104.6 93.96 66.0196 93.93 42.8196C93.89 15.3896 66.09 0.0595703 50.17 0.0595703C24.61 0.0595703 0.27002 21.1796 0.27002 50.0796C0.27002 82.1996 28.17 99.9996 50.17 99.9996C45.19 99.2796 28.6 95.7296 28.38 57.5196C28.23 31.6796 36.81 21.3496 50.13 25.8996C50.43 26.0096 64.83 31.6896 64.83 50.2396C64.83 68.7896 50.19 74.4396 50.19 74.4396Z" fill="url(#paint0_linear_770_7563)"/>
<path fill-rule="evenodd" clip-rule="evenodd" d="M50.1701 25.8795C35.5501 20.8395 17.6401 32.8895 17.6401 57.0195C17.6401 96.4195 46.8401 99.9995 50.3801 99.9995C75.9401 99.9995 100.28 78.8795 100.28 49.9795C100.28 17.8595 72.3801 0.059538 50.3801 0.059538C56.4701 -0.780462 83.2201 6.64954 83.2201 43.2095C83.2201 67.0495 63.2501 80.0295 50.2601 74.4795C49.9601 74.3695 35.5601 68.6895 35.5601 50.1395C35.5601 31.5895 50.1601 25.8795 50.1601 25.8795H50.1701Z" fill="url(#paint1_linear_770_7563)"/>
<defs>
<linearGradient id="paint0_linear_770_7563" x1="13.47" y1="-2.25043" x2="84" y2="68.2995" gradientUnits="userSpaceOnUse">
<stop/>
<stop offset="1" stop-color="white"/>
</linearGradient>
<linearGradient id="paint1_linear_770_7563" x1="87.1902" y1="65.0995" x2="16.6602" y2="-5.44048" gradientUnits="userSpaceOnUse">
<stop/>
<stop offset="1" stop-color="white"/>
</linearGradient>
</defs>
</svg>
