<svg width="101" height="31" viewBox="0 0 101 31" fill="none" xmlns="http://www.w3.org/2000/svg">
<path d="M78.7498 28.7597C77.5498 28.2997 76.5298 27.5396 75.5798 26.7096C67.1198 19.3296 69.2199 5.85965 79.5299 1.36965C80.8599 0.789648 82.2499 0.439649 83.6799 0.249649C83.7899 0.239649 83.9298 0.289648 83.9898 0.139648H84.6998C84.8998 0.219648 85.1099 0.219648 85.3099 0.139648H85.6198C85.8198 0.219648 86.0298 0.219648 86.2298 0.139648H86.9398C87.5498 0.359648 88.2098 0.359648 88.8398 0.529648C89.4698 0.699648 90.1198 0.83965 90.7098 1.10965C90.7598 1.17965 90.8198 1.24965 90.8198 1.32965C90.8598 2.43965 90.9499 3.54965 90.7699 4.65965C90.5499 4.90965 90.2398 4.83965 89.9598 4.83965C86.9198 4.83965 83.8898 4.83965 80.8498 4.83965C80.1198 4.83965 80.1099 4.83965 80.0399 5.57965C79.7999 8.09965 79.6198 10.6296 79.4398 13.1596C79.4398 13.2796 79.4199 13.3996 79.3999 13.5096C79.2499 14.6396 79.3298 14.7796 80.3298 15.2996C80.6298 15.4496 80.9098 15.4296 81.2198 15.3696C82.6798 15.0996 84.1398 14.9796 85.6198 15.1996C86.0898 15.2696 86.5398 15.4297 86.9698 15.6297C87.4598 15.8497 87.8599 16.1696 88.1799 16.6096C89.8199 18.9196 88.5699 22.1997 85.8099 22.7997C83.6399 23.2697 81.5699 22.8097 79.5499 22.0396C79.4399 21.9996 79.3398 21.9396 79.2298 21.8896C78.9698 21.7696 78.8398 21.8596 78.8398 22.1396C78.8598 22.9496 78.7699 23.7596 78.9099 24.5696C78.9899 25.8196 78.9398 27.0596 78.9398 28.3096C78.9398 28.4696 78.9298 28.6496 78.7498 28.7496V28.7597Z" fill="#DB524A"/>
<path d="M0.719727 28.9794C1.60973 29.1794 2.50981 29.3594 3.42981 29.2194C5.16981 28.9594 6.08972 27.9794 6.20972 26.2094C6.22972 25.8394 6.22974 25.4694 6.22974 25.0894C6.22974 18.5294 6.22974 11.9694 6.22974 5.40942C6.22974 4.93942 6.30971 4.74942 6.82971 4.77942C7.67971 4.82942 7.67981 4.78942 7.67981 5.64942C7.67981 12.1194 7.67981 18.5994 7.67981 25.0694C7.67981 25.7794 7.67978 26.4894 7.51978 27.1894C7.04978 29.2994 5.62974 30.4594 3.35974 30.5794C2.45974 30.6294 1.55974 30.5994 0.729736 30.1894V28.9694L0.719727 28.9794Z" fill="#757575"/>
<path d="M85.3098 0.149414C85.1098 0.299414 84.8997 0.309414 84.6997 0.149414H85.3098Z" fill="#DE635B"/>
<path d="M86.2198 0.149414C86.0198 0.309414 85.8099 0.299414 85.6099 0.149414H86.2198Z" fill="#DF625B"/>
<path d="M90.6801 4.73012C90.6801 3.53012 90.7 2.33012 90.71 1.12012C92.66 1.75012 94.38 2.80012 95.83 4.22012C100.22 8.52012 101.77 13.7201 100 19.6001C98.26 25.3901 94.19 28.9201 88.25 30.1401C85.05 30.8001 81.95 30.3101 78.99 28.9301C78.9 28.8901 78.83 28.8201 78.75 28.7601C78.76 27.3601 78.77 25.9601 78.78 24.5501C78.92 24.3801 79.0699 24.5101 79.1899 24.5701C80.5299 25.2201 81.9899 25.3701 83.4399 25.4601C84.9699 25.5601 86.4999 25.4101 87.9399 24.8501C90.6199 23.8101 91.82 21.7301 91.96 19.0501C92.04 17.6001 91.79 16.2201 90.9 15.0101C89.79 13.5201 88.24 12.8701 86.45 12.6701C85.29 12.5401 84.15 12.6401 83.01 12.8101C82.45 12.9001 82.2901 12.7701 82.3101 12.1901C82.3501 11.2601 82.46 10.3401 82.55 9.41012C82.59 8.97012 82.5801 8.53012 82.6801 8.10012C82.7901 7.58012 82.8599 7.51012 83.4399 7.51012C85.4199 7.51012 87.41 7.51012 89.39 7.51012C90.68 7.51012 90.51 7.62012 90.55 6.37012C90.56 5.82012 90.42 5.26012 90.67 4.72012L90.6801 4.73012Z" fill="#25A062"/>
<path d="M13.1699 12.6199C13.1699 9.89986 13.1699 7.59986 13.1699 5.29986C13.1699 4.90986 13.2699 4.77987 13.6799 4.78987C14.6599 4.80987 14.6599 4.78986 14.6599 5.77986C14.6599 10.0199 14.6399 14.2699 14.6799 18.5099C14.7099 22.0599 17.0098 24.3099 20.5698 24.3999C21.4398 24.4199 22.2999 24.3699 23.1399 24.1399C25.3399 23.5499 26.8299 21.8299 27.0999 19.5599C27.1699 18.9899 27.1998 18.4199 27.1998 17.8399C27.1998 13.6599 27.1998 9.48987 27.1898 5.30987C27.1898 4.88987 27.2998 4.76986 27.7198 4.77986C28.6298 4.80986 28.6299 4.77987 28.6299 5.67987C28.6299 9.93987 28.6299 14.1999 28.6199 18.4599C28.6199 20.0299 28.2399 21.5099 27.2999 22.8099C26.0099 24.5999 24.1699 25.3899 22.0499 25.5999C20.7799 25.7299 19.5099 25.6899 18.2699 25.3599C15.3199 24.5699 13.4399 22.2299 13.2599 19.1399C13.1299 16.8199 13.2398 14.5099 13.1998 12.6099L13.1699 12.6199Z" fill="#757575"/>
<path d="M35.3396 12.1894C37.3296 9.66937 39.9296 9.43938 42.6996 10.0594C44.6296 10.4894 45.7696 12.1294 45.9096 14.3194C46.0696 16.8694 45.9496 19.4294 45.9796 21.9794C45.9896 22.9594 45.9696 23.9394 45.9796 24.9194C45.9796 25.2794 45.8996 25.4294 45.5096 25.4194C44.5796 25.3994 44.5796 25.4194 44.5796 24.4894C44.5796 21.5294 44.5796 18.5694 44.5796 15.6094C44.5796 14.9494 44.5296 14.2894 44.3796 13.6494C44.0496 12.2994 43.2296 11.4594 41.8496 11.1894C40.6096 10.9494 39.3895 11.0194 38.1895 11.4194C36.4495 11.9894 35.7096 13.3494 35.4196 15.0394C35.2896 15.7794 35.2896 16.5194 35.2796 17.2594C35.2796 19.7794 35.2696 22.2994 35.2796 24.8194C35.2796 25.2594 35.1996 25.4494 34.6996 25.4194C33.8696 25.3794 33.8696 25.4094 33.8696 24.5794C33.8696 19.9294 33.8696 15.2794 33.8696 10.6294C33.8696 10.3994 33.7296 10.0194 34.2096 10.0894C34.5596 10.1394 35.1096 9.80938 35.1196 10.5694C35.1196 11.0894 35.2496 11.6094 35.3296 12.1794L35.3396 12.1894Z" fill="#757575"/>
<path d="M57.5598 17.1394C57.5598 15.1894 57.5498 13.4794 57.5598 11.7794C57.5598 11.3994 57.4597 11.2694 57.0797 11.2994C56.6597 11.3294 56.2298 11.3194 55.8098 11.2994C55.6198 11.2894 55.2998 11.4594 55.2798 11.0394C55.2698 10.6994 55.2597 10.4194 55.7097 10.3394C56.2197 10.2494 56.7198 10.0594 57.2298 9.92937C57.4798 9.86937 57.5798 9.75937 57.6298 9.49937C57.7998 8.56937 58.0297 7.64938 58.1897 6.71938C58.2497 6.35938 58.4497 6.35938 58.7197 6.35938C59.0497 6.35938 58.9998 6.58938 58.9998 6.78938C58.9998 7.71938 59.0198 8.64938 58.9998 9.57938C58.9898 9.95938 59.0798 10.1094 59.4998 10.0994C60.6698 10.0694 61.8398 10.0994 63.0098 10.0794C63.3998 10.0794 63.5398 10.1694 63.5198 10.5794C63.4798 11.4294 63.6098 11.2994 62.7898 11.3094C61.6698 11.3094 60.5498 11.3194 59.4298 11.3094C59.0998 11.3094 58.9998 11.3994 58.9998 11.7394C59.0098 14.8994 58.9998 18.0594 59.0098 21.2194C59.0098 21.8694 59.0797 22.4994 59.3397 23.0994C59.6897 23.9294 60.3298 24.3694 61.2197 24.4194C61.9998 24.4694 62.7798 24.4394 63.5498 24.2794C63.8498 24.2194 63.8898 24.3194 63.8998 24.5794C63.9298 25.3894 63.9398 25.3894 63.1098 25.5394C62.2498 25.6994 61.3898 25.7394 60.5298 25.6094C58.7498 25.3394 57.7298 24.1094 57.6098 22.1294C57.4998 20.3894 57.5598 18.6494 57.5498 17.1494L57.5598 17.1394Z" fill="#757575"/>
<path d="M50.9597 17.7599C50.9597 15.3799 50.9697 12.9899 50.9597 10.6099C50.9597 10.1899 51.0597 10.0599 51.4897 10.0699C52.3497 10.0999 52.3497 10.0699 52.3497 10.9299C52.3497 15.5599 52.3497 20.1899 52.3497 24.8199C52.3497 25.2699 52.2598 25.4899 51.7698 25.4099C51.6698 25.3899 51.5697 25.3999 51.4697 25.4099C51.0797 25.4699 50.9497 25.3199 50.9497 24.9099C50.9697 22.5299 50.9497 20.1399 50.9497 17.7599H50.9597Z" fill="#757575"/>
<path d="M50.7698 5.83998C50.7898 5.55998 50.7698 5.26998 50.8898 4.99998C51.0098 4.71998 51.1998 4.51998 51.5198 4.49998C51.8698 4.46998 52.1697 4.54998 52.3397 4.86998C52.6597 5.46998 52.6498 6.09998 52.3798 6.71998C52.2298 7.05998 51.9398 7.20998 51.5498 7.17998C51.1798 7.14998 50.9797 6.92998 50.8597 6.59998C50.7697 6.35998 50.7798 6.09998 50.7598 5.84998L50.7698 5.83998Z" fill="#757575"/>
<path d="M90.6798 4.72927C90.6798 5.56927 90.6797 6.41927 90.6997 7.25927C90.7097 7.60927 90.5798 7.66927 90.2698 7.66927C87.9598 7.65927 85.6597 7.66928 83.3497 7.65928C82.9997 7.65928 82.8497 7.70928 82.8297 8.10928C82.7297 9.50928 82.5997 10.8993 82.4497 12.2993C82.3997 12.7193 82.5398 12.7793 82.9098 12.7093C84.6098 12.3893 86.3098 12.3393 87.9897 12.8393C90.5098 13.5993 92.0398 15.6193 92.1198 18.2393C92.1498 19.1593 92.0798 20.0693 91.8098 20.9493C91.1798 23.0493 89.7797 24.4493 87.6997 25.0993C84.9297 25.9593 82.1598 25.8193 79.4298 24.8393C79.2098 24.7593 78.9998 24.6593 78.7798 24.5593C78.6298 23.6193 78.7397 22.6793 78.7297 21.7393C78.7297 21.4493 78.9398 21.6193 79.0498 21.6793C80.1698 22.2393 81.3497 22.5593 82.5797 22.7393C83.7797 22.9193 84.9798 22.9393 86.1598 22.5793C87.5098 22.1693 88.3598 21.2793 88.6198 19.8793C88.7298 19.2593 88.7398 18.6293 88.6198 18.0093C88.3198 16.5393 87.2998 15.6593 85.6398 15.3693C84.2298 15.1193 82.8197 15.2293 81.4497 15.5193C80.8197 15.6493 80.3697 15.4993 79.8397 15.2193C79.3197 14.9393 79.1397 14.6393 79.1897 14.0393C79.4597 11.0393 79.6798 8.03928 79.9098 5.03928C79.9398 4.65928 80.1698 4.71928 80.3998 4.71928C82.2998 4.71928 84.1997 4.71928 86.0997 4.71928C87.6297 4.71928 89.1498 4.71928 90.6798 4.71928V4.72927Z" fill="#FEFEFE"/>
</svg>
