<svg width="63" height="100" viewBox="0 0 63 100" fill="none" xmlns="http://www.w3.org/2000/svg">
<path d="M49.3801 55.3905C45.4901 55.3905 41.99 57.1205 39.6 59.8305L33.47 55.4905C34.12 53.7005 34.4901 51.7805 34.4901 49.7605C34.4901 47.7405 34.1301 45.8905 33.5001 44.1305L39.61 39.8405C42 42.5405 45.4801 44.2605 49.3701 44.2605C56.5601 44.2605 62.41 38.4105 62.41 31.2205C62.41 24.0305 56.5601 18.1805 49.3701 18.1805C42.1801 18.1805 36.3301 24.0305 36.3301 31.2205C36.3301 32.5105 36.5201 33.7505 36.8701 34.9205L30.7501 39.2105C28.1901 36.0405 24.5201 33.8305 20.3201 33.1505V25.7805C26.2301 24.5405 30.67 19.2905 30.67 13.0205C30.67 5.83047 24.8201 -0.0195312 17.6301 -0.0195312C10.4401 -0.0195312 4.59009 5.83047 4.59009 13.0205C4.59009 19.2105 8.92008 24.3905 14.7101 25.7205V33.1905C6.81008 34.5805 0.790039 41.4705 0.790039 49.7605C0.790039 58.0505 6.87008 65.0105 14.8301 66.3505V74.2405C8.98008 75.5205 4.59009 80.7405 4.59009 86.9705C4.59009 94.1605 10.4401 100.01 17.6301 100.01C24.8201 100.01 30.67 94.1605 30.67 86.9705C30.67 80.7405 26.2801 75.5305 20.4301 74.2405V66.3505C24.4601 65.6705 28.1001 63.5505 30.6801 60.3905L36.85 64.7605C36.51 65.9205 36.3201 67.1505 36.3201 68.4305C36.3201 75.6205 42.17 81.4705 49.36 81.4705C56.55 81.4705 62.4001 75.6205 62.4001 68.4305C62.4001 61.2405 56.55 55.3905 49.36 55.3905H49.3801ZM49.3801 24.9105C52.8701 24.9105 55.7001 27.7505 55.7001 31.2305C55.7001 34.7105 52.8701 37.5505 49.3801 37.5505C45.8901 37.5505 43.0601 34.7105 43.0601 31.2305C43.0601 27.7505 45.8901 24.9105 49.3801 24.9105ZM11.3401 13.0405C11.3401 9.56047 14.18 6.72047 17.66 6.72047C21.14 6.72047 23.98 9.56047 23.98 13.0405C23.98 16.5205 21.15 19.3605 17.66 19.3605C14.17 19.3605 11.3401 16.5205 11.3401 13.0405ZM23.98 86.9705C23.98 90.4505 21.15 93.2905 17.66 93.2905C14.17 93.2905 11.3401 90.4505 11.3401 86.9705C11.3401 83.4905 14.18 80.6505 17.66 80.6505C21.14 80.6505 23.98 83.4905 23.98 86.9705ZM17.66 58.5905C12.8 58.5905 8.84009 54.6405 8.84009 49.7805C8.84009 44.9205 12.79 40.9605 17.66 40.9605C22.53 40.9605 26.48 44.9105 26.48 49.7805C26.48 54.6505 22.53 58.5905 17.66 58.5905ZM49.3801 74.7505C45.8901 74.7505 43.0601 71.9105 43.0601 68.4305C43.0601 64.9505 45.8901 62.1105 49.3801 62.1105C52.8701 62.1105 55.7001 64.9505 55.7001 68.4305C55.7001 71.9105 52.8701 74.7505 49.3801 74.7505Z" fill="#231F20"/>
</svg>
