<svg width="93" height="90" viewBox="0 0 93 90" fill="none" xmlns="http://www.w3.org/2000/svg">
<path d="M46.2199 0.720215C45.4099 0.760215 44.62 0.960215 43.89 1.31021L12.1199 16.4902C10.4499 17.2902 9.23996 18.7902 8.82996 20.5802L0.989933 54.6702C0.619933 56.2602 0.91994 57.9202 1.80994 59.2902C1.91994 59.4602 2.02992 59.6202 2.15992 59.7702L24.15 87.1102C25.3 88.5402 27.05 89.3802 28.9 89.3802H64.1599C66.0099 89.3802 67.7599 88.5402 68.9099 87.1102L90.89 59.7702C92.04 58.3402 92.4799 56.4602 92.0599 54.6702L84.21 20.5802C83.8 18.7902 82.5899 17.2902 80.9199 16.4902L49.15 1.32022C48.23 0.880215 47.22 0.680215 46.2 0.730215L46.2199 0.720215Z" fill="#326CE5"/>
<path d="M46.5299 12.3203C45.4799 12.3203 44.6299 13.2703 44.6299 14.4303C44.6299 14.4503 44.6299 14.4703 44.6299 14.4803C44.6299 14.6403 44.6299 14.8303 44.6299 14.9703C44.6599 15.6403 44.7999 16.1603 44.8899 16.7803C45.0499 18.1103 45.1799 19.2103 45.0999 20.2303C45.0199 20.6203 44.7399 20.9703 44.4799 21.2103L44.4399 22.0103C43.2999 22.1003 42.1499 22.2803 40.9999 22.5403C36.0599 23.6603 31.8099 26.2003 28.5799 29.6403C28.3699 29.5003 27.9999 29.2303 27.8899 29.1503C27.5499 29.2003 27.2099 29.3003 26.7599 29.0403C25.9099 28.4703 25.1299 27.6803 24.1999 26.7203C23.7699 26.2603 23.4599 25.8303 22.9499 25.3903C22.8299 25.2903 22.6599 25.1603 22.5299 25.0503C22.1299 24.7303 21.6599 24.5703 21.2099 24.5503C20.6299 24.5303 20.0599 24.7603 19.6899 25.2203C19.0399 26.0403 19.2399 27.3003 20.1599 28.0203C20.1599 28.0203 20.1799 28.0303 20.1899 28.0403C20.3199 28.1403 20.4699 28.2703 20.5799 28.3603C21.1199 28.7603 21.6199 28.9603 22.1599 29.2803C23.2999 29.9803 24.2399 30.5603 24.9899 31.2703C25.2799 31.5803 25.3299 32.1303 25.3699 32.3703L25.9799 32.9103C22.7199 37.8203 21.2099 43.8803 22.0999 50.0603L21.2999 50.2903C21.0899 50.5603 20.7899 50.9903 20.4799 51.1103C19.4999 51.4203 18.3999 51.5303 17.0699 51.6703C16.4499 51.7203 15.9099 51.6903 15.2499 51.8203C15.0999 51.8503 14.8999 51.9003 14.7399 51.9403C14.7399 51.9403 14.7299 51.9403 14.7199 51.9403C14.7199 51.9403 14.6999 51.9403 14.6899 51.9403C13.5699 52.2103 12.8499 53.2403 13.0799 54.2603C13.3099 55.2803 14.4099 55.8903 15.5299 55.6503C15.5299 55.6503 15.5499 55.6503 15.5599 55.6503C15.5699 55.6503 15.5799 55.6503 15.5999 55.6403C15.7599 55.6103 15.9499 55.5703 16.0899 55.5303C16.7399 55.3603 17.2099 55.1003 17.7999 54.8803C19.0599 54.4303 20.0999 54.0503 21.1199 53.9003C21.5399 53.8703 21.9899 54.1603 22.2099 54.2903L23.0399 54.1503C24.9499 60.0603 28.9399 64.8403 34.0099 67.8403L33.6599 68.6703C33.7799 68.9903 33.9199 69.4303 33.8299 69.7503C33.4599 70.7103 32.8299 71.7203 32.1099 72.8403C31.7599 73.3603 31.3999 73.7603 31.0899 74.3603C31.0099 74.5003 30.9199 74.7203 30.8499 74.8703C30.3599 75.9203 30.7199 77.1203 31.6599 77.5703C32.5999 78.0203 33.7799 77.5503 34.2799 76.5003C34.3499 76.3503 34.4499 76.1603 34.5199 76.0203C34.7899 75.4003 34.8799 74.8703 35.0699 74.2803C35.5699 73.0203 35.8499 71.6903 36.5399 70.8603C36.7299 70.6303 37.0399 70.5503 37.3599 70.4603L37.7899 69.6803C42.1999 71.3703 47.1399 71.8303 52.0699 70.7103C53.1999 70.4503 54.2799 70.1203 55.3299 69.7303C55.4499 69.9403 55.6799 70.3603 55.7399 70.4603C56.0699 70.5703 56.4199 70.6203 56.7099 71.0503C57.2299 71.9403 57.5799 72.9803 58.0099 74.2503C58.1999 74.8503 58.2899 75.3803 58.5599 75.9903C58.6199 76.1303 58.7199 76.3303 58.7999 76.4803C59.3099 77.5303 60.4799 78.0103 61.4299 77.5603C62.3699 77.1103 62.7299 75.9003 62.2399 74.8603C62.1699 74.7103 62.0699 74.4903 61.9899 74.3503C61.6799 73.7503 61.3199 73.3503 60.9699 72.8303C60.2499 71.7003 59.6499 70.7703 59.2799 69.8103C59.1299 69.3203 59.3099 69.0103 59.4299 68.6903C59.3599 68.6103 59.1999 68.1403 59.1099 67.9203C64.3699 64.8103 68.2499 59.8603 70.0699 54.1303C70.3199 54.1703 70.7399 54.2403 70.8799 54.2703C71.1699 54.0803 71.4299 53.8403 71.9399 53.8803C72.9599 54.0303 73.9999 54.4003 75.2599 54.8603C75.8399 55.0803 76.3199 55.3403 76.9699 55.5203C77.1099 55.5603 77.2999 55.5903 77.4599 55.6303C77.4699 55.6303 77.4799 55.6303 77.4999 55.6403C77.4999 55.6403 77.5199 55.6403 77.5299 55.6403C78.6599 55.8803 79.7499 55.2703 79.9799 54.2503C80.2099 53.2403 79.4899 52.2003 78.3699 51.9303C78.2099 51.8903 77.9799 51.8303 77.8199 51.8003C77.1599 51.6703 76.6199 51.7103 75.9999 51.6503C74.6699 51.5103 73.5699 51.4003 72.5899 51.0903C72.1899 50.9403 71.9099 50.4603 71.7699 50.2703L70.9999 50.0503C71.3999 47.1703 71.2899 44.1703 70.5999 41.1703C69.8999 38.1403 68.6799 35.3703 67.0399 32.9403C67.2399 32.7603 67.6099 32.4303 67.7099 32.3303C67.7399 31.9903 67.7099 31.6303 68.0699 31.2503C68.8199 30.5503 69.7599 29.9703 70.8999 29.2603C71.4399 28.9403 71.9399 28.7403 72.4799 28.3403C72.5999 28.2503 72.7699 28.1103 72.8999 28.0003C73.8099 27.2703 74.0199 26.0203 73.3699 25.2003C72.7199 24.3803 71.4499 24.3003 70.5299 25.0303C70.3999 25.1303 70.2199 25.2703 70.1099 25.3703C69.5999 25.8103 69.2799 26.2403 68.8499 26.7003C67.9099 27.6503 67.1399 28.4503 66.2899 29.0203C65.9199 29.2303 65.3799 29.1603 65.1399 29.1503L64.4199 29.6703C60.2999 25.3503 54.6799 22.5803 48.6399 22.0403C48.6199 21.7903 48.5999 21.3303 48.5999 21.1903C48.3499 20.9503 48.0499 20.7503 47.9799 20.2403C47.8999 19.2203 48.0399 18.1203 48.1999 16.7903C48.2899 16.1703 48.4299 15.6603 48.4599 14.9803C48.4599 14.8303 48.4599 14.6103 48.4599 14.4403C48.4599 13.2703 47.6099 12.3303 46.5599 12.3303L46.5299 12.3203ZM44.1499 27.0703L43.5899 37.0403L43.5499 37.0603C43.5099 37.9503 42.7799 38.6603 41.8799 38.6603C41.5099 38.6603 41.1699 38.5403 40.8899 38.3403H40.8699L32.6899 32.5503C35.1999 30.0803 38.4199 28.2503 42.1199 27.4103C42.7999 27.2603 43.4699 27.1403 44.1499 27.0603V27.0703ZM48.9199 27.0703C53.2499 27.6003 57.2499 29.5603 60.3099 32.5603L52.1799 38.3203H52.1499C51.4299 38.8303 50.4099 38.7003 49.8499 38.0003C49.6199 37.7103 49.4999 37.3703 49.4799 37.0303L48.9199 27.0703ZM29.7299 36.2803L37.1999 42.9603V43.0003C37.8699 43.5903 37.9699 44.6003 37.3999 45.3103C37.1699 45.6003 36.8599 45.7903 36.5299 45.8803V45.9103L26.9499 48.6703C26.4599 44.2203 27.5099 39.8903 29.7299 36.2703V36.2803ZM63.2899 36.2803C64.3999 38.0803 65.2399 40.0903 65.7399 42.2603C66.2299 44.4103 66.3599 46.5603 66.1499 48.6303L56.5299 45.8603V45.8203C55.6599 45.5803 55.1299 44.7103 55.3299 43.8303C55.4099 43.4703 55.5999 43.1703 55.8599 42.9403V42.9203L63.2799 36.2703L63.2899 36.2803ZM44.9999 43.4703H48.0599L49.9599 45.8503L49.2799 48.8203L46.5299 50.1403L43.7799 48.8203L43.0999 45.8503L45.0099 43.4803L44.9999 43.4703ZM54.8099 51.6003C54.9399 51.6003 55.0699 51.6003 55.1999 51.6303L55.2199 51.6103L65.1199 53.2803C63.6699 57.3503 60.8999 60.8803 57.1899 63.2403L53.3499 53.9603V53.9403C53.0099 53.1203 53.3599 52.1603 54.1699 51.7703C54.3799 51.6703 54.5999 51.6103 54.8099 51.6003ZM38.1799 51.6403C38.9399 51.6503 39.6099 52.1703 39.7899 52.9403C39.8699 53.3003 39.8299 53.6603 39.6999 53.9703L39.7299 54.0103L35.9299 63.2003C32.3699 60.9203 29.5399 57.5003 28.0299 53.3103L37.8499 51.6403L37.8699 51.6603C37.9799 51.6403 38.0899 51.6303 38.1999 51.6303L38.1799 51.6403ZM46.4699 55.6703C46.7299 55.6703 46.9999 55.7103 47.2499 55.8403C47.5799 56.0003 47.8399 56.2503 47.9999 56.5603H48.0399L52.8799 65.3003C52.2499 65.5103 51.6099 65.6903 50.9499 65.8403C47.2499 66.6803 43.5599 66.4303 40.2199 65.2903L45.0499 56.5603C45.3399 56.0203 45.8899 55.7003 46.4699 55.6703Z" fill="white" stroke="white" stroke-width="0.03"/>
</svg>
