<svg width="98" height="100" viewBox="0 0 98 100" fill="none" xmlns="http://www.w3.org/2000/svg">
<path fill-rule="evenodd" clip-rule="evenodd" d="M97.2601 22.62C97.3001 22.75 97.3102 22.89 97.3102 23.03V44.49C97.3102 45.05 97.0101 45.57 96.5201 45.85L78.5001 56.22V76.78C78.5001 77.34 78.2001 77.86 77.7201 78.14L40.1101 99.79C40.0201 99.84 39.9301 99.87 39.8401 99.9C39.8001 99.91 39.7701 99.93 39.7301 99.94C39.4701 100.01 39.1902 100.01 38.9302 99.94C38.8902 99.93 38.8502 99.9 38.8102 99.89C38.7202 99.86 38.6302 99.83 38.5502 99.78L0.950073 78.13C0.460073 77.85 0.160156 77.33 0.160156 76.77V12.39C0.160156 12.25 0.180083 12.11 0.210083 11.98C0.220083 11.94 0.250132 11.89 0.260132 11.85C0.290132 11.77 0.320107 11.68 0.360107 11.61C0.390107 11.56 0.430093 11.52 0.470093 11.47C0.510093 11.41 0.560107 11.34 0.610107 11.29C0.650107 11.25 0.710132 11.21 0.760132 11.17C0.820132 11.12 0.870176 11.07 0.930176 11.04L19.7601 0.21C20.2401 -0.07 20.8401 -0.07 21.3301 0.21L40.1301 11.03C40.1901 11.07 40.2502 11.12 40.3002 11.16C40.3502 11.2 40.4101 11.23 40.4501 11.28C40.5001 11.34 40.5401 11.4 40.5901 11.46C40.6201 11.51 40.6701 11.55 40.7001 11.6C40.7401 11.68 40.7702 11.76 40.8002 11.84C40.8202 11.88 40.8401 11.93 40.8501 11.97C40.8901 12.1 40.9001 12.24 40.9001 12.38V52.61L56.5701 43.59V23.03C56.5701 22.89 56.5901 22.75 56.6201 22.62C56.6301 22.57 56.6602 22.53 56.6702 22.49C56.7002 22.41 56.7301 22.32 56.7701 22.25C56.8001 22.2 56.8401 22.16 56.8801 22.11C56.9301 22.05 56.9701 21.98 57.0201 21.93C57.0601 21.89 57.1202 21.85 57.1702 21.81C57.2302 21.76 57.2801 21.71 57.3401 21.68L76.1401 10.86C76.6201 10.58 77.2201 10.58 77.7101 10.86L96.5101 21.68C96.5801 21.72 96.6301 21.77 96.6901 21.81C96.7401 21.85 96.8001 21.88 96.8401 21.93C96.8901 21.99 96.9301 22.05 96.9801 22.11C97.0201 22.16 97.0601 22.2 97.0901 22.25C97.1301 22.33 97.1601 22.41 97.1901 22.49C97.2101 22.53 97.2301 22.58 97.2401 22.62H97.2601ZM94.1802 43.59V25.74L87.6001 29.53L78.5101 34.76V52.61L94.1802 43.59ZM75.3801 75.88V58.02L66.4401 63.13L40.9102 77.7V95.73L75.3801 75.89V75.88ZM3.31018 15.1V75.88L37.7802 95.72V77.69L19.7701 67.5C19.7101 67.46 19.6601 67.41 19.6001 67.37C19.5501 67.33 19.4901 67.3 19.4501 67.26C19.4001 67.21 19.3601 67.14 19.3201 67.09C19.2801 67.04 19.2301 66.99 19.2001 66.94C19.1601 66.88 19.1401 66.81 19.1201 66.74C19.0901 66.68 19.0602 66.63 19.0502 66.56C19.0302 66.48 19.0301 66.41 19.0201 66.33C19.0201 66.27 19.0001 66.21 19.0001 66.15V24.12L9.91016 18.88L3.33008 15.1H3.31018ZM20.5502 3.37L4.89014 12.39L20.5502 21.41L36.2101 12.39L20.5502 3.38V3.37ZM28.7001 59.64L37.7902 54.41V15.1L31.2101 18.89L22.1201 24.12V63.44L28.7001 59.65V59.64ZM76.9601 14.01L61.3002 23.03L76.9601 32.05L92.6201 23.03L76.9601 14.02V14.01ZM75.3901 34.76L66.3002 29.53L59.7201 25.74V43.59L68.8102 48.82L75.3901 52.61V34.76ZM39.3501 74.98L62.3201 61.86L73.8002 55.31L58.1501 46.3L40.1301 56.67L23.7101 66.12L39.3501 74.97V74.98Z" fill="#FF2D20"/>
</svg>
