<svg width="101" height="100" viewBox="0 0 101 100" fill="none" xmlns="http://www.w3.org/2000/svg">
<path d="M50.0601 99.9998C22.4001 99.7498 0.310122 78.1898 0.100122 50.3898C-0.109878 22.2798 21.9201 0.229804 49.6301 -0.000196105C77.9701 -0.230196 100.06 22.1498 100.06 49.9698C100.06 77.8598 77.9501 99.7698 50.0701 99.9898L50.0601 99.9998ZM67.7401 29.7998C67.5901 29.6398 67.4901 29.5198 67.3801 29.3998C63.8901 25.9998 59.9701 23.2298 55.5601 21.1498C51.4701 19.2198 47.1901 17.9698 42.6401 17.7998C38.2101 17.6398 34.0401 18.6998 30.1301 20.7398C21.5401 25.2198 14.9201 35.4298 14.3101 45.0798C14.0601 48.9598 14.2901 52.7998 15.2201 56.5798C15.5601 57.9798 15.9901 59.3498 16.7601 60.5898C16.9401 60.8798 17.1801 61.1298 17.3901 61.3898C17.4401 61.3698 17.4801 61.3398 17.5301 61.3198C17.4701 57.4598 17.7701 53.6398 18.5501 49.7198C18.6401 49.9898 18.7001 50.1298 18.7401 50.2598C19.4501 52.6598 20.1801 55.0498 20.8701 57.4498C23.0001 64.9198 24.9601 72.4298 26.1701 80.1098C26.2501 80.6198 26.4601 80.8198 26.9301 80.9598C29.2801 81.6498 31.6701 81.9498 34.1101 81.8098C35.7701 81.7098 37.3801 81.3898 38.8801 80.6198C39.1701 80.4698 39.3101 80.3098 39.2701 79.9398C39.1701 78.9198 39.1001 77.8898 39.0601 76.8598C38.9401 74.0298 38.9401 71.1998 39.2501 68.3798C39.4501 66.5198 39.7601 64.6898 40.4301 62.9298C40.9001 61.6898 41.5201 60.5398 42.6101 59.7298C43.7801 58.8498 45.0601 58.8098 46.1701 59.7598C46.7801 60.2798 47.3701 60.9198 47.7201 61.6198C48.2401 62.6598 48.6401 63.7898 48.9101 64.9198C49.5101 67.5198 49.5401 70.1698 49.5301 72.8298C49.5301 75.3498 49.5301 77.8698 49.5101 80.3898C49.5101 80.7398 49.6101 80.9498 49.9501 81.0498C50.5501 81.2098 51.1401 81.4398 51.7401 81.5298C54.5301 81.9798 57.3201 81.8198 60.0801 81.2498C61.5301 80.9498 61.1801 81.1998 61.4501 79.8898C62.4001 75.1998 63.3501 70.5098 64.7101 65.9098C65.9401 61.7598 67.4701 57.7298 69.6901 53.9898C70.1701 53.1798 70.8101 52.5098 71.6701 52.1398C72.1501 51.9398 72.7101 51.8198 73.2301 51.8498C74.3601 51.9298 75.0801 52.6898 75.6301 53.6098C76.2901 54.7098 76.5801 55.9398 76.6401 57.2098C76.7501 59.4098 76.3201 61.5398 75.8101 63.6598C74.7701 67.9298 73.1901 72.0098 71.4301 76.0298C71.2601 76.4298 71.2901 76.7398 71.5201 77.0698C72.1301 77.9198 72.9601 78.4498 73.9701 78.6698C74.4101 78.7698 74.8501 78.7098 75.2201 78.3898C76.3601 77.4098 77.6101 76.5298 78.6201 75.4298C84.8601 68.6098 88.0701 60.4998 88.5601 51.3098C88.8101 46.6698 87.9001 42.1898 86.1101 37.9098C84.2801 33.5398 81.6701 29.7298 78.0101 26.6698C77.7001 26.4098 77.4401 26.3498 77.0801 26.4998C76.3401 26.8098 75.5801 27.0798 74.8601 27.4298C69.4601 30.0398 64.9201 33.7698 60.9901 38.2598C60.7601 38.5198 60.8001 38.7298 60.9001 39.0198C62.0001 42.3498 64.1801 44.7798 67.1301 46.5798C67.2501 46.6598 67.3701 46.7398 67.4901 46.8298C67.1401 46.7598 66.8101 46.6498 66.5001 46.5198C62.7701 44.9698 60.0801 42.4198 58.8201 38.4998C58.7201 38.1898 58.7301 37.9498 58.9501 37.6898C59.3201 37.2498 59.6601 36.7898 60.0301 36.3498C62.1201 33.9198 64.6301 31.9898 67.2501 30.1698C67.4201 30.0498 67.5901 29.9298 67.7901 29.7798L67.7401 29.7998Z" fill="#1F689F"/>
<path d="M67.7404 29.7993C67.5404 29.9493 67.3704 30.0693 67.2004 30.1893C64.5804 31.9993 62.0704 33.9393 59.9804 36.3693C59.6104 36.7993 59.2704 37.2693 58.9004 37.7093C58.6804 37.9593 58.6704 38.2093 58.7704 38.5193C60.0304 42.4393 62.7104 44.9893 66.4504 46.5393C66.7704 46.6693 67.0904 46.7893 67.4404 46.8493C67.3204 46.7693 67.2004 46.6793 67.0804 46.5993C64.1304 44.7893 61.9504 42.3593 60.8504 39.0393C60.7604 38.7593 60.7204 38.5393 60.9404 38.2793C64.8704 33.7793 69.4104 30.0593 74.8104 27.4493C75.5304 27.0993 76.2904 26.8393 77.0304 26.5193C77.3904 26.3693 77.6604 26.4293 77.9604 26.6893C81.6204 29.7493 84.2304 33.5593 86.0604 37.9293C87.8504 42.2193 88.7604 46.6893 88.5104 51.3293C88.0204 60.5193 84.8104 68.6293 78.5704 75.4493C77.5604 76.5493 76.3104 77.4293 75.1704 78.4093C74.8004 78.7293 74.3704 78.7793 73.9204 78.6893C72.9104 78.4693 72.0804 77.9393 71.4704 77.0893C71.2304 76.7593 71.2004 76.4493 71.3804 76.0493C73.1304 72.0293 74.7104 67.9493 75.7604 63.6793C76.2804 61.5593 76.7004 59.4293 76.5904 57.2293C76.5304 55.9593 76.2404 54.7293 75.5804 53.6293C75.0304 52.7193 74.3104 51.9593 73.1804 51.8693C72.6704 51.8293 72.1004 51.9493 71.6204 52.1593C70.7604 52.5293 70.1204 53.1993 69.6404 54.0093C67.4204 57.7493 65.8904 61.7693 64.6604 65.9293C63.3004 70.5293 62.3504 75.2193 61.4004 79.9093C61.1404 81.2193 61.4804 80.9693 60.0304 81.2693C57.2704 81.8393 54.4904 81.9993 51.6904 81.5493C51.0804 81.4493 50.4904 81.2293 49.9004 81.0693C49.5604 80.9793 49.4604 80.7593 49.4604 80.4093C49.4804 77.8893 49.4704 75.3693 49.4804 72.8493C49.4804 70.1993 49.4604 67.5393 48.8604 64.9393C48.6004 63.7993 48.1904 62.6793 47.6704 61.6393C47.3204 60.9293 46.7304 60.2893 46.1204 59.7793C45.0104 58.8393 43.7404 58.8793 42.5604 59.7493C41.4704 60.5693 40.8504 61.7093 40.3804 62.9493C39.7204 64.7093 39.4104 66.5393 39.2004 68.3993C38.8904 71.2193 38.8904 74.0493 39.0104 76.8793C39.0504 77.9093 39.1204 78.9393 39.2204 79.9593C39.2604 80.3293 39.1204 80.4893 38.8304 80.6393C37.3304 81.4093 35.7204 81.7393 34.0604 81.8293C31.6204 81.9693 29.2304 81.6693 26.8804 80.9793C26.4204 80.8393 26.2004 80.6393 26.1204 80.1293C24.9104 72.4493 22.9504 64.9393 20.8204 57.4693C20.1304 55.0693 19.4104 52.6693 18.6904 50.2793C18.6504 50.1393 18.6004 50.0093 18.5004 49.7393C17.7204 53.6593 17.4204 57.4793 17.4804 61.3393C17.4304 61.3593 17.3904 61.3893 17.3404 61.4093C17.1304 61.1393 16.8904 60.8893 16.7104 60.6093C15.9404 59.3693 15.5104 57.9993 15.1704 56.5993C14.2504 52.8193 14.0204 48.9793 14.2604 45.0993C14.8704 35.4393 21.4904 25.2293 30.0804 20.7593C34.0004 18.7193 38.1604 17.6493 42.5904 17.8193C47.1404 17.9893 51.4204 19.2393 55.5104 21.1693C59.9204 23.2493 63.8404 26.0193 67.3304 29.4193C67.4404 29.5293 67.5504 29.6493 67.6904 29.8193L67.7404 29.7993Z" fill="white"/>
</svg>
