<svg width="102" height="102" viewBox="0 0 102 102" fill="none" xmlns="http://www.w3.org/2000/svg">
<path d="M50.3702 1.07031C22.7602 1.51031 0.730166 24.2503 1.17017 51.8603C1.61017 79.4703 24.3502 101.5 51.9602 101.06C79.5702 100.62 101.6 77.8803 101.16 50.2703C100.73 23.2803 78.9502 1.50031 51.9602 1.07031H50.3702ZM50.3702 12.1803C28.9002 12.6203 11.8402 30.3803 12.2802 51.8503C12.7202 73.3203 30.4802 90.3803 51.9502 89.9403C73.4202 89.5003 90.4802 71.7403 90.0402 50.2703C89.6102 29.4103 72.8102 12.6103 51.9502 12.1803H50.3602H50.3702ZM50.3702 23.2903C35.0402 23.7303 22.9602 36.5203 23.4002 51.8503C23.8402 67.1803 36.6302 79.2603 51.9602 78.8203C67.2902 78.3803 79.3702 65.5903 78.9302 50.2603C78.5102 35.5403 66.6802 23.7103 51.9602 23.2903H50.3702ZM50.3702 34.4003C41.1802 34.8403 34.0802 42.6503 34.5202 51.8403C34.9602 61.0303 42.7702 68.1303 51.9602 67.6903C61.1502 67.2503 68.2502 59.4403 67.8102 50.2503C67.4002 41.6703 60.5402 34.8103 51.9602 34.4003H50.3702ZM50.3702 45.5103C47.3302 45.9503 45.2302 48.7703 45.6702 51.8003C46.1102 54.8403 48.9302 56.9403 51.9602 56.5003C54.9902 56.0603 57.1002 53.2403 56.6602 50.2103C56.3102 47.7703 54.3902 45.8603 51.9602 45.5103H50.3702ZM101.16 51.0703H1.16016H101.16ZM86.8702 15.3603L15.4402 86.7903L86.8702 15.3603ZM86.8702 86.7903L15.4402 15.3603L86.8702 86.7903ZM51.1502 1.07031V101.07V1.07031Z" fill="black"/>
<path d="M101.16 51.0703H1.16016M86.8702 15.3603L15.4402 86.7903M86.8702 86.7903L15.4402 15.3603M51.1502 1.07031V101.07M50.3702 1.07031C22.7602 1.51031 0.730166 24.2503 1.17017 51.8603C1.61017 79.4703 24.3502 101.5 51.9602 101.06C79.5702 100.62 101.6 77.8803 101.16 50.2703C100.73 23.2803 78.9502 1.50031 51.9602 1.07031H50.3702ZM50.3702 12.1803C28.9002 12.6203 11.8402 30.3803 12.2802 51.8503C12.7202 73.3203 30.4802 90.3803 51.9502 89.9403C73.4202 89.5003 90.4802 71.7403 90.0402 50.2703C89.6102 29.4103 72.8102 12.6103 51.9502 12.1803H50.3602H50.3702ZM50.3702 23.2903C35.0402 23.7303 22.9602 36.5203 23.4002 51.8503C23.8402 67.1803 36.6302 79.2603 51.9602 78.8203C67.2902 78.3803 79.3702 65.5903 78.9302 50.2603C78.5102 35.5403 66.6802 23.7103 51.9602 23.2903H50.3702ZM50.3702 34.4003C41.1802 34.8403 34.0802 42.6503 34.5202 51.8403C34.9602 61.0303 42.7702 68.1303 51.9602 67.6903C61.1502 67.2503 68.2502 59.4403 67.8102 50.2503C67.4002 41.6703 60.5402 34.8103 51.9602 34.4003H50.3702ZM50.3702 45.5103C47.3302 45.9503 45.2302 48.7703 45.6702 51.8003C46.1102 54.8403 48.9302 56.9403 51.9602 56.5003C54.9902 56.0603 57.1002 53.2403 56.6602 50.2103C56.3102 47.7703 54.3902 45.8603 51.9602 45.5103H50.3702Z" stroke="#777777" stroke-width="0.79"/>
<path d="M40.0502 6.62988L24.1802 14.5699L78.1502 87.5899L86.0902 79.6499L51.1702 51.0799L40.0602 6.63988L40.0502 6.62988Z" fill="black" stroke="#777777" stroke-width="0.79"/>
<path d="M13.8604 39.96V62.18L51.1603 51.07L13.8604 39.96Z" fill="black" stroke="#777777" stroke-width="0.79"/>
<path d="M51.1702 51.0703L55.9302 78.8503H46.4102L51.1702 51.0703Z" fill="black" stroke="#777777" stroke-width="0.79"/>
<path d="M51.1699 51.0703L61.4899 19.3203L68.6299 23.2903L51.1699 51.0703Z" fill="black" stroke="#777777" stroke-width="0.79"/>
<path d="M51.1702 51.0705L62.2803 46.3105L63.0703 49.4805L30.5303 61.3805L32.9102 64.5505L51.1602 51.0605L51.1702 51.0705Z" fill="black" stroke="#777777" stroke-width="0.79"/>
</svg>
