<svg width="82" height="94" viewBox="0 0 82 94" fill="none" xmlns="http://www.w3.org/2000/svg">
<path d="M55.6698 28.0804C52.0698 12.2104 44.5698 7.98039 42.6598 4.99039C41.8698 3.67039 41.1697 2.31039 40.5697 0.900391C40.4697 2.31039 40.2797 3.20039 39.0797 4.27039C36.6697 6.42039 26.4497 14.7404 25.5897 32.7804C24.7897 49.6004 37.9497 59.9604 39.6897 61.0404C41.0297 61.7004 42.6597 61.0504 43.4497 60.4504C49.7997 56.1004 58.4698 44.4904 55.6698 28.0904" fill="#10AA50"/>
<path d="M41.12 52.0801C40.79 56.2401 40.55 58.6601 39.71 61.0401C39.71 61.0401 40.26 65.0001 40.65 69.2001H42.02C42.35 66.2401 42.85 63.3101 43.52 60.4101C41.74 59.5401 41.19 55.7301 41.12 52.0801Z" fill="#B8C4C2"/>
<path d="M43.5098 60.4107C41.7098 59.5807 41.1998 55.7007 41.1198 52.0807C41.5598 46.1107 41.6898 40.1207 41.5098 34.1407C41.4198 31.0007 41.5497 5.06074 40.7397 1.26074C41.2997 2.55074 41.9398 3.79074 42.6698 4.99074C44.5798 7.98074 52.0798 12.2107 55.6798 28.0807C58.4798 44.4507 49.8598 56.0307 43.5198 60.4107H43.5098Z" fill="#12924F"/>
<path d="M80.27 88.4698C79.46 88.4698 78.8101 87.8198 78.8101 87.0098C78.8101 86.1998 79.46 85.5498 80.27 85.5498C81.07 85.5498 81.72 86.1898 81.73 86.9898C81.75 87.7898 81.12 88.4498 80.33 88.4698C80.31 88.4698 80.29 88.4698 80.27 88.4698ZM80.27 85.6798C79.53 85.6798 78.9401 86.2698 78.9301 86.9998C78.9301 87.7398 79.52 88.3298 80.25 88.3398C80.99 88.3398 81.59 87.7498 81.59 87.0198C81.6 86.2998 81.0301 85.6998 80.3101 85.6898C80.3001 85.6898 80.28 85.6898 80.27 85.6898M80.62 87.9398L80.24 87.1298H79.9399V87.9398H79.72V86.0898H80.27C80.68 86.0898 80.85 86.2698 80.85 86.6098C80.85 86.8798 80.72 87.0498 80.48 87.0998L80.87 87.9398H80.63H80.62ZM79.95 86.9398H80.27C80.53 86.9398 80.63 86.8498 80.63 86.6198C80.63 86.3898 80.54 86.2998 80.24 86.2998H79.95V86.9398Z" fill="#21313C"/>
<path d="M58.5002 87.1302C58.9002 87.4502 59.6902 87.5802 60.3802 87.5802C61.2802 87.5802 62.1703 87.4102 63.0403 86.6302C63.9203 85.8302 64.5303 84.6002 64.5303 82.6402C64.5303 80.6802 63.8102 79.2302 62.3502 78.3402C61.5202 77.8202 60.4502 77.6102 59.2202 77.6102C58.8702 77.6102 58.5003 77.6302 58.3003 77.7202C58.2203 77.7902 58.1602 77.8802 58.1302 77.9802C58.0902 78.3102 58.0902 80.8702 58.0902 82.3702C58.0902 83.8702 58.0902 86.0702 58.1302 86.3402C58.1502 86.5602 58.2602 86.9602 58.5102 87.1202M54.7502 76.7602C55.0702 76.7602 56.2902 76.8202 56.8502 76.8202C57.9102 76.8202 58.6402 76.7602 60.6202 76.7602C62.2802 76.7602 63.6703 77.2102 64.6703 78.0602C65.8803 79.1002 66.5202 80.5602 66.5202 82.3202C66.5202 84.8302 65.3702 86.2902 64.2202 87.1102C63.0702 87.9702 61.5802 88.4502 59.4602 88.4502C58.3302 88.4502 56.3902 88.4102 54.7702 88.3902H54.7402C54.6602 88.2402 54.8802 87.6602 55.0102 87.6502C55.4502 87.6002 55.5702 87.5802 55.7702 87.5002C56.1102 87.3602 56.1902 87.1902 56.2302 86.5702C56.2902 85.4202 56.2702 84.0402 56.2702 82.4702C56.2702 81.3502 56.2902 79.1702 56.2502 78.4802C56.1902 77.9002 55.9502 77.7502 55.4602 77.6402C55.1102 77.5702 54.7602 77.5102 54.4002 77.4702C54.3602 77.3602 54.6502 76.8502 54.7502 76.7402" fill="#21313C"/>
<path d="M71.1798 77.7198C71.1098 77.7398 71.0098 77.9298 71.0098 78.0198C70.9898 78.6898 70.9697 80.4398 70.9697 81.6498C70.9697 81.6998 71.0198 81.7298 71.0598 81.7398C71.2998 81.7598 71.9098 81.7798 72.4198 81.7798C73.1398 81.7798 73.5498 81.6898 73.7798 81.5698C74.3798 81.2698 74.6598 80.6198 74.6598 79.9098C74.6598 78.2898 73.5298 77.6798 71.8498 77.6798C71.6198 77.6798 71.3998 77.6798 71.1698 77.7198M75.4497 85.1698C75.4497 83.5298 74.2398 82.5998 72.0398 82.5998C71.9498 82.5998 71.2497 82.5798 71.0797 82.6198C71.0197 82.6398 70.9697 82.6798 70.9697 82.7098C70.9697 83.8798 70.9498 85.7598 71.0098 86.5098C71.0498 86.8298 71.2698 87.2698 71.5598 87.3998C71.8598 87.5698 72.5398 87.5998 73.0098 87.5998C74.3098 87.5998 75.4597 86.8698 75.4597 85.1598M67.7898 76.7998C67.9598 76.7998 68.4598 76.8598 69.7398 76.8598C70.9498 76.8598 71.9197 76.8198 73.0897 76.8198C74.5397 76.8198 76.5398 77.3398 76.5398 79.4998C76.5398 80.5598 75.7898 81.4198 74.8098 81.8298C74.7498 81.8498 74.7498 81.8898 74.8098 81.8998C76.1998 82.2498 77.4298 83.1098 77.4298 84.7498C77.4298 86.3898 76.4298 87.3598 74.9798 87.9898C74.0998 88.3798 72.9998 88.5098 71.8898 88.5098C71.0398 88.5098 68.7698 88.4198 67.5098 88.4398C67.3798 88.3798 67.6298 87.7898 67.7398 87.6998C68.0298 87.6998 68.3197 87.6498 68.5897 87.5698C69.0397 87.4598 69.0998 87.3098 69.1498 86.6398C69.1898 86.0598 69.1897 83.9998 69.1897 82.5198C69.1897 80.5098 69.2097 79.1498 69.1897 78.4798C69.1697 77.9598 68.9798 77.7898 68.6198 77.6998C68.3398 77.6398 67.8698 77.5898 67.4898 77.5298C67.3998 77.4398 67.6898 76.8798 67.7798 76.7998" fill="#21313C"/>
<path d="M0.230002 88.4704C0.180002 88.3504 0.160065 88.2204 0.170065 88.0904C0.170065 88.0004 0.190002 87.9204 0.230002 87.8404C0.470002 87.8004 0.709973 87.7604 0.949973 87.6904C1.27997 87.6104 1.41008 87.4304 1.43008 87.0004C1.48008 86.0004 1.48999 84.1104 1.46999 82.7904V82.7504C1.46999 82.6104 1.47006 82.4104 1.29006 82.2804C0.980061 82.0904 0.64006 81.9404 0.290061 81.8404C0.130061 81.7904 0.0400703 81.7104 0.0500703 81.6104C0.0600703 81.5104 0.150007 81.4004 0.360007 81.3604C0.910007 81.3004 2.34005 80.9604 2.90005 80.7004C2.96005 80.7804 2.97999 80.8704 2.96999 80.9604C2.96999 81.0204 2.96998 81.0804 2.95998 81.1404C2.93998 81.3304 2.93008 81.5404 2.93008 81.7504C2.94008 81.8304 3.00999 81.8804 3.08999 81.8704C3.11999 81.8704 3.15007 81.8504 3.17007 81.8304C4.24007 80.9904 5.19996 80.6904 5.68996 80.6904C6.49996 80.6904 7.13002 81.0804 7.62002 81.8704C7.64002 81.9104 7.68 81.9304 7.73 81.9304C7.77 81.9304 7.80998 81.9104 7.82998 81.8804C8.80998 81.1304 9.78996 80.6904 10.44 80.6904C11.98 80.6904 12.9 81.8404 12.9 83.7804C12.9 84.3404 12.9 85.0404 12.89 85.7004C12.89 86.2804 12.89 86.8204 12.89 87.1904C12.89 87.2804 13.01 87.5304 13.19 87.5804C13.42 87.6904 13.74 87.7504 14.15 87.8204H14.1701C14.2001 87.9304 14.14 88.3604 14.07 88.4504C13.97 88.4504 13.83 88.4504 13.65 88.4304C13.33 88.4104 12.89 88.3904 12.38 88.3904C11.36 88.3904 10.8201 88.4104 10.3101 88.4404C10.2701 88.3104 10.2601 87.9004 10.3101 87.8104C10.5201 87.7804 10.73 87.7304 10.94 87.6704C11.27 87.5604 11.36 87.4104 11.38 86.9804C11.38 86.6704 11.45 83.9604 11.34 83.3204C11.24 82.6504 10.74 81.8704 9.64004 81.8704C9.23004 81.8704 8.56997 82.0404 7.94997 82.5204C7.90997 82.5604 7.89004 82.6204 7.89004 82.6804C7.96004 83.0404 7.95998 83.4504 7.95998 84.0604C7.95998 84.4104 7.95998 84.7804 7.95998 85.1504C7.95998 85.9004 7.95998 86.6004 7.95998 87.1404C7.95998 87.5004 8.18001 87.5904 8.36001 87.6604C8.46001 87.6804 8.53001 87.7004 8.61001 87.7204C8.76001 87.7604 8.91004 87.7904 9.14004 87.8304C9.17004 87.9804 9.17004 88.1504 9.14004 88.3004C9.14004 88.3604 9.10997 88.4104 9.06997 88.4604C8.49997 88.4404 7.91997 88.4204 7.06997 88.4204C6.80997 88.4204 6.40005 88.4304 6.03005 88.4404C5.73005 88.4404 5.45006 88.4604 5.29006 88.4604C5.25006 88.3604 5.23 88.2504 5.23 88.1404C5.23 88.0404 5.24006 87.9304 5.29006 87.8404L5.52004 87.8004C5.72004 87.7604 5.89007 87.7304 6.05007 87.6904C6.33007 87.6004 6.42997 87.4504 6.44997 87.0904C6.49997 86.2604 6.55008 83.8704 6.43008 83.2804C6.23008 82.3204 5.69008 81.8304 4.81008 81.8304C4.30008 81.8304 3.65002 82.0804 3.12002 82.4804C3.02002 82.5804 2.95998 82.7204 2.95998 82.8604V83.8504C2.95998 85.0504 2.96 86.5404 2.98 87.1904C3 87.3904 3.06996 87.6304 3.43996 87.7104C3.51996 87.7304 3.65998 87.7604 3.82998 87.7804C3.91998 87.8004 4.03003 87.8104 4.13003 87.8304C4.16003 88.0404 4.14998 88.2604 4.07998 88.4604C3.91998 88.4604 3.71 88.4504 3.48 88.4404C3.13 88.4204 2.68996 88.4004 2.18996 88.4004C1.59996 88.4004 1.19001 88.4204 0.860007 88.4404C0.640007 88.4504 0.450031 88.4604 0.260031 88.4604" fill="#21313C"/>
<path d="M19.1299 81.5002C18.8099 81.5002 18.4999 81.5802 18.2299 81.7502C17.5799 82.1502 17.2399 82.9402 17.2399 84.1102C17.2399 86.2902 18.3299 87.8202 19.8999 87.8202C20.3199 87.8302 20.7299 87.6902 21.0499 87.4102C21.5299 87.0202 21.7899 86.2202 21.7899 85.0902C21.7899 82.9402 20.7199 81.4902 19.1299 81.4902M19.4299 88.6202C16.5999 88.6202 15.5898 86.5402 15.5898 84.6002C15.5898 83.2402 16.1399 82.1802 17.2399 81.4502C18.0099 80.9802 18.8899 80.7202 19.7899 80.7002C21.9499 80.7002 23.4598 82.2502 23.4598 84.4802C23.4598 85.9902 22.8598 87.1802 21.7198 87.9302C21.1698 88.2602 20.2198 88.6302 19.4398 88.6302" fill="#21313C"/>
<path d="M47.9398 81.5002C47.6198 81.5002 47.3099 81.5802 47.0399 81.7502C46.3899 82.1502 46.0499 82.9402 46.0499 84.1102C46.0499 86.2902 47.1398 87.8202 48.7098 87.8202C49.1298 87.8302 49.5399 87.6902 49.8599 87.4102C50.3399 87.0202 50.5999 86.2202 50.5999 85.0902C50.5999 82.9402 49.5298 81.4902 47.9398 81.4902M48.2399 88.6202C45.4099 88.6202 44.3999 86.5402 44.3999 84.6002C44.3999 83.2402 44.9499 82.1802 46.0499 81.4502C46.8199 80.9802 47.6999 80.7202 48.5999 80.7002C50.7599 80.7002 52.2699 82.2502 52.2699 84.4802C52.2699 85.9902 51.6699 87.1902 50.5299 87.9302C49.9799 88.2702 49.0299 88.6302 48.2499 88.6302" fill="#21313C"/>
<path d="M38.4099 81.4304C37.5399 81.4304 36.9698 82.1204 36.9698 83.1804C36.9698 84.2404 37.4598 85.5104 38.8198 85.5104C39.0498 85.5104 39.4798 85.4104 39.6898 85.1704C40.0098 84.8804 40.2198 84.2804 40.2198 83.6404C40.2198 82.2504 39.5399 81.4204 38.4099 81.4204M38.2999 88.7804C38.0499 88.7804 37.8098 88.8404 37.5898 88.9604C36.8998 89.4004 36.5798 89.8404 36.5798 90.3504C36.5798 90.8304 36.7699 91.2104 37.1699 91.5504C37.6499 91.9604 38.3099 92.1604 39.1699 92.1604C40.8599 92.1604 41.6199 91.2504 41.6199 90.3504C41.6199 89.7204 41.3099 89.3004 40.6599 89.0604C40.1599 88.8804 39.3299 88.7804 38.3099 88.7804M38.4199 93.1004C37.3999 93.1004 36.6699 92.8904 36.0499 92.4004C35.4399 91.9304 35.1699 91.2304 35.1699 90.7504C35.1699 90.4404 35.2899 90.1404 35.4999 89.9104C35.6799 89.7104 36.0899 89.3304 37.0299 88.6804C37.0599 88.6704 37.0798 88.6404 37.0798 88.6104C37.0798 88.5704 37.0599 88.5404 37.0199 88.5304C36.2399 88.2304 35.9999 87.7404 35.9299 87.4704C35.9299 87.4704 35.9299 87.4504 35.9299 87.4304C35.9099 87.3304 35.8899 87.2304 36.0299 87.1304C36.1399 87.0504 36.3099 86.9504 36.4999 86.8404C36.7599 86.6904 37.0199 86.5304 37.2599 86.3504C37.3099 86.3004 37.2999 86.2204 37.2599 86.1704C37.2599 86.1704 37.2399 86.1604 37.2299 86.1504C36.0799 85.7604 35.4899 84.9004 35.4899 83.5904C35.4899 82.7604 35.8799 81.9804 36.5599 81.5004C37.0199 81.1304 38.1898 80.6904 38.9498 80.6904H38.9899C39.7699 80.7104 40.1999 80.8704 40.8099 81.1004C41.1499 81.2204 41.5199 81.2804 41.8899 81.2704C42.5299 81.2704 42.8099 81.0704 43.0599 80.8304C43.0999 80.9404 43.1199 81.0504 43.1199 81.1604C43.1299 81.4304 43.0599 81.7004 42.9099 81.9304C42.7799 82.1104 42.4698 82.2404 42.1898 82.2404C42.1598 82.2404 42.1299 82.2404 42.0999 82.2404C41.9499 82.2304 41.7999 82.2104 41.6599 82.1704L41.5898 82.2004C41.5898 82.2004 41.5899 82.2704 41.5999 82.3204C41.5999 82.3204 41.5999 82.3404 41.6099 82.3504C41.6599 82.5904 41.6998 82.8204 41.7098 83.0604C41.7098 84.4304 41.1698 85.0304 40.5898 85.4704C40.0198 85.8904 39.3499 86.1504 38.6499 86.2204C38.6499 86.2204 38.5599 86.2204 38.4199 86.2404C38.3299 86.2404 38.2198 86.2604 38.1998 86.2604H38.1799C38.0499 86.3004 37.7198 86.4504 37.7198 86.7504C37.7198 86.9904 37.8698 87.3004 38.5898 87.3504L39.0499 87.3804C39.9899 87.4504 41.1799 87.5304 41.7299 87.7204C42.4899 87.9904 42.9898 88.7104 42.9698 89.5104C42.9698 90.7404 42.0999 91.9004 40.6299 92.6004C39.9399 92.9304 39.1799 93.1004 38.4199 93.1004Z" fill="#21313C"/>
<path d="M34.0902 87.8107C33.6802 87.7507 33.3702 87.7007 33.0202 87.5307C32.9502 87.4607 32.9002 87.3707 32.8902 87.2707C32.8502 86.6907 32.8502 85.0207 32.8502 83.9207C32.8502 83.0307 32.7002 82.2507 32.3202 81.6907C31.8702 81.0607 31.2302 80.6807 30.4002 80.6807C29.6702 80.6807 28.6902 81.1807 27.8802 81.8707C27.8602 81.8907 27.7402 82.0107 27.7402 81.8207C27.7402 81.6307 27.7702 81.2607 27.7902 81.0307C27.8102 80.9007 27.7603 80.7707 27.6703 80.6807C27.1403 80.9407 25.6602 81.3007 25.1102 81.3507C24.7102 81.4307 24.6102 81.8107 25.0402 81.9507C25.3802 82.0407 25.7102 82.1907 26.0102 82.3807C26.1802 82.5107 26.1602 82.7007 26.1602 82.8507C26.1802 84.1007 26.1802 86.0207 26.1202 87.0607C26.1002 87.4707 25.9902 87.6207 25.6902 87.6907H25.7202C25.4902 87.7407 25.2602 87.7807 25.0202 87.8107C24.9302 87.9007 24.9302 88.4407 25.0202 88.5507C25.2102 88.5507 26.1702 88.4907 26.9602 88.4907C28.0502 88.4907 28.6202 88.5507 28.9002 88.5507C29.0102 88.4207 29.0502 87.9207 28.9802 87.8107C28.7202 87.8007 28.4602 87.7607 28.2102 87.7007C27.9102 87.6307 27.8302 87.4807 27.8202 87.1407C27.7802 86.2607 27.7802 84.4007 27.7802 83.1407C27.7802 82.7907 27.8702 82.6207 27.9902 82.5207C28.3702 82.1907 28.9902 81.9607 29.5302 81.9607C30.0702 81.9607 30.4103 82.1307 30.6803 82.3507C30.9903 82.6207 31.1802 83.0007 31.2202 83.4007C31.2902 84.1107 31.2802 85.5207 31.2802 86.7507C31.2802 87.4207 31.2202 87.5907 30.9802 87.6607C30.8702 87.7207 30.5702 87.7707 30.2102 87.8107C30.1002 87.9207 30.1302 88.4407 30.2102 88.5507C30.7002 88.5507 31.2702 88.4907 32.0902 88.4907C33.1302 88.4907 33.7903 88.5507 34.0503 88.5507C34.1603 88.4207 34.2002 87.9307 34.1302 87.8107" fill="#21313C"/>
</svg>
