<svg width="101" height="98" viewBox="0 0 101 98" fill="none" xmlns="http://www.w3.org/2000/svg">
<path d="M82.8198 80.6698C83.5298 82.3998 84.9198 83.2898 86.2698 84.1998C88.5898 85.7598 91.0298 87.1798 93.2098 88.9198C94.8298 90.2098 96.1198 91.9098 97.5498 93.4198C97.9198 93.8098 98.2698 94.2398 98.6898 94.5898C99.7098 95.4398 100.4 96.4798 100.8 97.9298C100.49 97.7198 100.25 97.5998 100.07 97.4298C96.7298 94.3398 92.8598 92.1398 88.7498 90.2298C85.0198 88.4998 81.5698 86.2498 79.0798 82.8698C78.3398 81.8698 77.8098 80.7098 77.2598 79.5798C76.9298 78.8998 77.5298 78.5398 78.0298 78.3898C80.2398 77.6998 82.4298 76.8898 84.6898 76.4798C86.9598 76.0698 89.2998 76.0698 91.6098 75.9098C92.0598 75.8798 92.5198 75.9098 93.1798 75.9098C92.9198 75.4798 92.7898 75.1398 92.5498 74.8998C92.1198 74.4798 91.6498 74.0998 91.1598 73.7598C89.2998 72.4798 87.3598 71.2898 85.5598 69.9298C82.0998 67.3098 78.1898 65.6398 74.0498 64.5598C71.3698 63.8598 69.4098 62.4598 68.2398 59.9498C66.9198 57.1298 65.5298 54.3298 64.2398 51.4998C62.4198 47.4898 60.7598 43.4098 58.8398 39.4398C56.4498 34.4898 53.3198 29.9998 49.5998 25.9498C44.1798 20.0398 37.9298 15.2498 30.5298 12.0298C28.2098 11.0198 25.8298 10.4298 23.2998 10.3898C22.0698 10.3698 20.8298 10.3398 19.6298 10.1198C18.9398 9.98981 18.2298 9.58981 17.6998 9.11981C14.7498 6.46981 11.1598 5.05981 7.49979 3.79981C6.92979 3.59981 6.24978 3.54981 5.64978 3.64981C4.20978 3.89981 3.42979 5.09981 3.99979 6.41981C4.63979 7.89981 5.44979 9.33981 6.40979 10.6298C8.76979 13.7998 11.3098 16.8498 12.5798 20.6798C13.3498 22.9898 14.0698 25.3098 14.8698 27.5998C15.9498 30.6998 17.3198 33.6498 19.7998 35.9298C20.7798 36.8398 21.1298 37.9898 20.7498 39.2998C20.3798 40.5598 20.0198 41.8298 19.5798 43.0598C17.0098 50.2698 17.2298 57.3698 20.3498 64.3698C20.8298 65.4498 21.4198 66.4598 22.5198 67.0598C23.5198 67.6098 23.7298 67.4798 23.8598 66.3698C24.1098 64.2998 24.3098 62.2098 24.7198 60.1698C25.4798 56.3598 26.3298 55.5498 28.9798 52.4798C32.8698 62.3398 37.6698 71.5798 45.2698 79.0598C44.9698 78.8698 44.5698 78.6798 44.2498 78.3898C41.7298 76.1798 39.2298 73.9598 36.7298 71.7298C33.6098 68.9498 31.4398 65.5098 29.7998 61.7098C29.6198 61.2998 29.3898 60.9098 28.9598 60.5298C28.7298 61.7098 28.4798 62.8898 28.2798 64.0798C28.0798 65.2598 27.9898 66.4698 27.7398 67.6398C27.0098 70.9498 23.6598 72.1698 21.0898 69.9498C19.8998 68.9198 18.8798 67.6198 18.0698 66.2598C16.2098 63.1598 15.4398 59.6998 15.1098 56.1298C14.6998 51.8298 15.1698 47.6198 16.4698 43.4998C16.9398 42.0098 17.4098 40.5098 17.7798 38.9898C17.8698 38.6298 17.6598 38.0398 17.3798 37.7598C14.6798 35.0498 13.2098 31.6298 11.9098 28.1398C10.9698 25.6198 10.1798 23.0498 9.34979 20.4998C8.73979 18.5998 7.48978 17.0998 6.33978 15.5298C4.83978 13.4698 3.25978 11.4598 1.89978 9.31981C0.869782 7.68981 0.469792 5.82981 1.15979 3.88981C2.00979 1.47981 3.77977 0.16981 6.32977 0.10981C8.72977 0.0498103 10.9498 0.79981 13.1098 1.74981C15.5798 2.83981 17.9798 4.05981 19.9498 5.95981C20.7198 6.69981 21.6698 6.77981 22.6598 6.79981C26.9298 6.86981 31.0598 7.68981 34.7998 9.74981C37.6998 11.3398 40.4598 13.2198 43.1598 15.1498C50.7398 20.5498 56.7198 27.4298 61.4198 35.4298C62.1798 36.7298 62.7298 38.1598 63.3598 39.5398C66.1698 45.6098 68.9698 51.6898 71.7898 57.7598C72.5198 59.3398 73.5498 60.4598 75.3298 61.0998C82.4998 63.6898 88.5498 68.0998 94.1998 73.0998C95.4098 74.1698 96.3298 75.5598 97.3598 76.8298C97.8498 77.4298 97.3798 77.6398 96.8998 77.7398C94.9198 78.1698 92.9398 78.5798 90.9498 78.9998C88.7198 79.4698 86.4798 79.9398 84.2398 80.4098C83.7998 80.4998 83.3498 80.5898 82.8198 80.6998V80.6698Z" fill="#00618A"/>
<path d="M24.8198 23.0596C23.5498 21.0896 22.2998 19.1596 21.0698 17.2396C23.1198 16.4196 24.3298 16.8896 25.5098 18.6796C26.5898 20.3296 26.2298 22.0096 24.8298 23.0496L24.8198 23.0596Z" fill="#00618A"/>
</svg>
