<svg width="94" height="58" viewBox="0 0 94 58" fill="none" xmlns="http://www.w3.org/2000/svg">
<path d="M46.5397 57.2406C46.2397 57.2406 45.9297 57.1606 45.6697 57.0106L42.8898 55.3606C42.4698 55.1306 42.6798 55.0506 42.8098 55.0006C43.3598 54.8106 43.4798 54.7606 44.0698 54.4306C44.1298 54.3906 44.2098 54.4106 44.2798 54.4406L46.4197 55.7106C46.4997 55.7506 46.6097 55.7506 46.6797 55.7106L55.0098 50.9006C55.0898 50.8606 55.1398 50.7706 55.1398 50.6706V41.0606C55.1398 40.9606 55.0898 40.8806 55.0098 40.8306L46.6898 36.0306C46.6098 35.9806 46.5097 35.9806 46.4297 36.0306L38.1097 40.8306C38.0297 40.8806 37.9797 40.9706 37.9797 41.0606V50.6706C37.9797 50.7606 38.0297 50.8506 38.1097 50.8906L40.3898 52.2106C41.6298 52.8306 42.3798 52.1006 42.3798 51.3706V41.8906C42.3798 41.7506 42.4898 41.6506 42.6198 41.6506H43.6697C43.7997 41.6506 43.9097 41.7506 43.9097 41.8906V51.3806C43.9097 53.0306 43.0098 53.9806 41.4398 53.9806C40.9598 53.9806 40.5798 53.9806 39.5198 53.4606L37.3398 52.2006C36.7998 51.8906 36.4697 51.3006 36.4697 50.6806V41.0706C36.4697 40.4406 36.7998 39.8606 37.3398 39.5506L45.6797 34.7406C46.2097 34.4406 46.9097 34.4406 47.4297 34.7406L55.7498 39.5506C56.2898 39.8606 56.6198 40.4406 56.6198 41.0706V50.6806C56.6198 51.3006 56.2798 51.8806 55.7498 52.2006L47.4297 57.0106C47.1597 57.1606 46.8597 57.2406 46.5497 57.2406" fill="#689F63"/>
<path d="M49.1097 50.6104C45.4697 50.6104 44.6997 48.9404 44.6997 47.5304C44.6997 47.4004 44.8097 47.2904 44.9397 47.2904H46.0197C46.1397 47.2904 46.2397 47.3804 46.2597 47.4904C46.4197 48.5904 46.9097 49.1404 49.1097 49.1404C50.8597 49.1404 51.6097 48.7404 51.6097 47.8104C51.6097 47.2704 51.3997 46.8804 48.6697 46.6104C46.3897 46.3804 44.9797 45.8804 44.9797 44.0604C44.9797 42.3804 46.3997 41.3804 48.7697 41.3804C51.4397 41.3804 52.7597 42.3104 52.9197 44.2904C52.9197 44.3604 52.8997 44.4304 52.8597 44.4804C52.8097 44.5304 52.7497 44.5604 52.6797 44.5604H51.5997C51.4897 44.5604 51.3897 44.4804 51.3697 44.3704C51.1097 43.2204 50.4797 42.8504 48.7697 42.8504C46.8497 42.8504 46.6297 43.5204 46.6297 44.0204C46.6297 44.6304 46.8897 44.8004 49.4797 45.1504C52.0397 45.4904 53.2497 45.9704 53.2497 47.7704C53.2497 49.5704 51.7397 50.6204 49.0997 50.6204M59.2397 40.4304H59.5197C59.7497 40.4304 59.7897 40.2704 59.7897 40.1804C59.7897 39.9304 59.6197 39.9304 59.5297 39.9304H59.2397V40.4304ZM58.8997 39.6404H59.5197C59.7297 39.6404 60.1497 39.6404 60.1497 40.1204C60.1497 40.4504 59.9398 40.5204 59.8098 40.5604C60.0598 40.5804 60.0697 40.7404 60.1097 40.9704C60.1297 41.1104 60.1496 41.3604 60.1996 41.4504H59.8196C59.8096 41.3704 59.7497 40.9104 59.7497 40.8804C59.7197 40.7804 59.6898 40.7304 59.5598 40.7304H59.2497V41.4504H58.8997V39.6504V39.6404ZM58.1597 40.5404C58.1597 41.2904 58.7597 41.8904 59.4997 41.8904C60.2397 41.8904 60.8497 41.2704 60.8497 40.5404C60.8497 39.8104 60.2397 39.2004 59.4997 39.2004C58.7597 39.2004 58.1597 39.7904 58.1597 40.5404ZM61.1097 40.5404C61.1097 41.4204 60.3897 42.1404 59.5097 42.1404C58.6297 42.1404 57.9097 41.4304 57.9097 40.5404C57.9097 39.6504 58.6597 38.9404 59.5097 38.9404C60.3597 38.9404 61.1097 39.6404 61.1097 40.5404Z" fill="#689F63"/>
<path fill-rule="evenodd" clip-rule="evenodd" d="M20.7598 19.6402C20.7598 19.2602 20.5597 18.9002 20.2297 18.7102L11.3998 13.6302C11.2498 13.5402 11.0797 13.5002 10.9097 13.4902H10.8198C10.6498 13.4902 10.4798 13.5402 10.3298 13.6302L1.49976 18.7102C1.16976 18.9002 0.969727 19.2502 0.969727 19.6402L0.989746 33.3202C0.989746 33.5102 1.08976 33.6902 1.24976 33.7802C1.40976 33.8802 1.61979 33.8802 1.77979 33.7802L7.02979 30.7702C7.35979 30.5702 7.55975 30.2202 7.55975 29.8402V23.4502C7.55975 23.0702 7.75978 22.7202 8.08978 22.5302L10.3198 21.2402C10.4898 21.1402 10.6697 21.1002 10.8497 21.1002C11.0297 21.1002 11.2198 21.1502 11.3798 21.2402L13.6097 22.5302C13.9397 22.7202 14.1398 23.0702 14.1398 23.4502V29.8402C14.1398 30.2202 14.3397 30.5702 14.6697 30.7702L19.9097 33.7702C20.0697 33.8702 20.2798 33.8702 20.4398 33.7702C20.5998 33.6802 20.6998 33.5002 20.6998 33.3102L20.7197 19.6302L20.7598 19.6402ZM62.4198 26.7602C62.4198 26.8602 62.3698 26.9402 62.2898 26.9902L59.2598 28.7402C59.1798 28.7902 59.0797 28.7902 58.9897 28.7402L55.9598 26.9902C55.8798 26.9402 55.8298 26.8502 55.8298 26.7602V23.2602C55.8298 23.1602 55.8798 23.0802 55.9598 23.0302L58.9897 21.2802C59.0697 21.2302 59.1798 21.2302 59.2598 21.2802L62.2898 23.0302C62.3698 23.0802 62.4198 23.1702 62.4198 23.2602V26.7602ZM63.2397 0.830195C63.0697 0.740195 62.8697 0.740195 62.7097 0.830195C62.5497 0.930195 62.4497 1.1002 62.4497 1.2902V14.8402C62.4497 14.9702 62.3798 15.1002 62.2598 15.1602C62.1498 15.2302 61.9998 15.2302 61.8898 15.1602L59.6798 13.8902C59.3498 13.7002 58.9497 13.7002 58.6097 13.8902L49.7798 18.9902C49.4498 19.1802 49.2498 19.5302 49.2498 19.9102V30.1102C49.2498 30.4902 49.4498 30.8402 49.7798 31.0302L58.6097 36.1302C58.9397 36.3202 59.3498 36.3202 59.6798 36.1302L68.5098 31.0302C68.8398 30.8402 69.0398 30.4902 69.0398 30.1102V4.7002C69.0398 4.3102 68.8297 3.9602 68.4897 3.7702L63.2397 0.840196V0.830195ZM92.6498 23.1702C92.9798 22.9802 93.1798 22.6302 93.1798 22.2502V19.7802C93.1798 19.4002 92.9798 19.0502 92.6498 18.8602L83.8798 13.7702C83.5498 13.5802 83.1398 13.5802 82.8098 13.7702L73.9797 18.8702C73.6497 19.0602 73.4497 19.4102 73.4497 19.7902V29.9802C73.4497 30.3602 73.6597 30.7202 73.9897 30.9102L82.7598 35.9102C83.0798 36.1002 83.4798 36.1002 83.8098 35.9102L89.1198 32.9602C89.2897 32.8702 89.3898 32.6902 89.3898 32.5002C89.3898 32.3102 89.2897 32.1302 89.1198 32.0402L80.2397 26.9402C80.0697 26.8502 79.9697 26.6702 79.9697 26.4802V23.2802C79.9697 23.0902 80.0697 22.9102 80.2397 22.8202L82.9998 21.2302C83.1598 21.1302 83.3698 21.1302 83.5298 21.2302L86.2998 22.8202C86.4598 22.9102 86.5697 23.0902 86.5697 23.2802V25.7902C86.5697 25.9802 86.6697 26.1602 86.8397 26.2502C86.9997 26.3402 87.2097 26.3402 87.3698 26.2502L92.6698 23.1702H92.6498Z" fill="#333333"/>
<path fill-rule="evenodd" clip-rule="evenodd" d="M83.1996 22.6902C83.2596 22.6502 83.3397 22.6502 83.3997 22.6902L85.0896 23.6702C85.1496 23.7102 85.1896 23.7702 85.1896 23.8502V25.8102C85.1896 25.8802 85.1496 25.9502 85.0896 25.9902L83.3997 26.9702C83.3397 27.0102 83.2596 27.0102 83.1996 26.9702L81.5096 25.9902C81.4496 25.9502 81.4097 25.8902 81.4097 25.8102V23.8502C81.4097 23.7802 81.4496 23.7102 81.5096 23.6702L83.2096 22.6902H83.1996Z" fill="#689F63"/>
<mask id="mask0_765_338" style="mask-type:luminance" maskUnits="userSpaceOnUse" x="25" y="13" width="20" height="24">
<path d="M34.4697 13.8099L25.6897 18.8799C25.3597 19.0699 25.1597 19.4199 25.1597 19.7999V29.9399C25.1597 30.3199 25.3597 30.6699 25.6897 30.8599L34.4697 35.9299C34.7997 36.1199 35.1997 36.1199 35.5297 35.9299L44.3097 30.8599C44.6397 30.6699 44.8397 30.3199 44.8397 29.9399V19.7999C44.8397 19.4199 44.6397 19.0699 44.3097 18.8799L35.5297 13.8099C35.3697 13.7199 35.1797 13.6699 34.9997 13.6699C34.8197 13.6699 34.6297 13.7199 34.4697 13.8099Z" fill="white"/>
</mask>
<g mask="url(#mask0_765_338)">
<path d="M53.7098 18.0196L28.9697 5.88965L16.2798 31.7696L41.0198 43.8997L53.7098 18.0196Z" fill="url(#paint0_linear_765_338)"/>
</g>
<mask id="mask1_765_338" style="mask-type:luminance" maskUnits="userSpaceOnUse" x="25" y="13" width="20" height="24">
<path d="M25.3696 30.5904C25.4496 30.7004 25.5596 30.7904 25.6796 30.8604L33.2097 35.2104L34.4597 35.9304C34.6497 36.0404 34.8596 36.0804 35.0696 36.0704C35.1396 36.0704 35.2097 36.0504 35.2797 36.0304L44.5396 19.0704C44.4696 18.9904 44.3896 18.9304 44.2896 18.8704L38.5396 15.5504L35.4996 13.8004C35.4096 13.7504 35.3196 13.7104 35.2196 13.6904L25.3496 30.5804L25.3696 30.5904Z" fill="white"/>
</mask>
<g mask="url(#mask1_765_338)">
<path d="M14.6797 21.61L32.1497 45.26L55.2597 28.19L37.7897 4.54004L14.6797 21.61Z" fill="url(#paint1_linear_765_338)"/>
</g>
<mask id="mask2_765_338" style="mask-type:luminance" maskUnits="userSpaceOnUse" x="25" y="13" width="20" height="24">
<path d="M34.89 13.6699C34.74 13.6799 34.5999 13.7299 34.4699 13.8099L25.71 18.8599L35.15 36.0599C35.28 36.0399 35.41 35.9999 35.53 35.9299L44.3099 30.8599C44.5799 30.6999 44.7699 30.4399 44.8199 30.1399L35.1899 13.6999C35.1199 13.6899 35.0499 13.6799 34.9799 13.6799C34.9499 13.6799 34.92 13.6799 34.89 13.6799" fill="white"/>
</mask>
<g mask="url(#mask2_765_338)">
<path d="M25.71 13.6699V36.0599H44.8199V13.6699H25.71Z" fill="url(#paint2_linear_765_338)"/>
</g>
<defs>
<linearGradient id="paint0_linear_765_338" x1="92.1645" y1="-29.716" x2="79.4777" y2="-3.8303" gradientUnits="userSpaceOnUse">
<stop offset="0.3" stop-color="#3E863D"/>
<stop offset="0.5" stop-color="#55934F"/>
<stop offset="0.8" stop-color="#5AAD45"/>
</linearGradient>
<linearGradient id="paint1_linear_765_338" x1="38.5316" y1="56.4188" x2="62.7403" y2="38.5314" gradientUnits="userSpaceOnUse">
<stop offset="0.57" stop-color="#3E863D"/>
<stop offset="0.72" stop-color="#619857"/>
<stop offset="1" stop-color="#76AC64"/>
</linearGradient>
<linearGradient id="paint2_linear_765_338" x1="25.4867" y1="17.8243" x2="44.9701" y2="17.8243" gradientUnits="userSpaceOnUse">
<stop offset="0.16" stop-color="#6BBF47"/>
<stop offset="0.38" stop-color="#79B461"/>
<stop offset="0.47" stop-color="#75AC64"/>
<stop offset="0.7" stop-color="#659E5A"/>
<stop offset="0.9" stop-color="#3E863D"/>
</linearGradient>
</defs>
</svg>
