<svg width="101" height="40" viewBox="0 0 101 40" fill="none" xmlns="http://www.w3.org/2000/svg">
<path d="M0.77002 0.55957H100.77V33.8896H50.77V39.4496H28.55V33.8896H0.77002V0.55957ZM6.32996 28.3396H17.4399V11.6696H23V28.3396H28.5601V6.11957H6.33997V28.3396H6.32996ZM34.11 6.11957V33.8996H45.22V28.3396H56.33V6.11957H34.11ZM45.22 11.6796H50.78V22.7896H45.22V11.6796ZM61.89 6.11957V28.3396H73V11.6696H78.5601V28.3396H84.12V11.6696H89.6801V28.3396H95.24V6.11957H61.91H61.89Z" fill="#CB3837"/>
<path d="M6.33008 28.3294H17.4401V11.6694H23.0001V28.3294H28.5502V6.10938H6.33008V28.3294Z" fill="white"/>
<path d="M34.1099 6.10938V33.8894H45.2198V28.3294H56.3298V6.10938H34.1099ZM50.7799 22.7794H45.2198V11.6694H50.7799V22.7794Z" fill="white"/>
<path d="M61.8901 6.10938V28.3294H73.0001V11.6694H78.5502V28.3294H84.1101V11.6694H89.6602V28.3294H95.2201V6.10938H61.8901Z" fill="white"/>
</svg>
