<svg width="101" height="108" viewBox="0 0 101 108" fill="none" xmlns="http://www.w3.org/2000/svg">
<path d="M43.1104 22.3498L25.2504 13.3398L5.65039 23.1198L23.9904 32.3298L43.1104 22.3498Z" fill="#4DABCF"/>
<path d="M51.3004 26.4795L70.0105 35.9295L50.5905 45.6895L32.2305 36.4595L51.3004 26.4795Z" fill="#4DABCF"/>
<path d="M76.3003 13.4697L95.5303 23.1197L78.3303 31.7597L59.5703 22.2897L76.3003 13.4697Z" fill="#4DABCF"/>
<path d="M68.0201 9.31965L50.7001 0.639648L33.5801 9.18965L51.4201 18.1796L68.0201 9.31965Z" fill="#4DABCF"/>
<path d="M54.4805 83.8794V107.509L75.4604 97.0394L75.4405 73.3994L54.4805 83.8794Z" fill="#4DABCF"/>
<path d="M75.4305 65.1498L75.4005 41.7598L54.4805 52.1598V75.5598L75.4305 65.1498Z" fill="#4DABCF"/>
<path d="M100.61 60.7695V84.4895L82.7202 93.4095L82.7002 69.7995L100.61 60.7695Z" fill="#4DABCF"/>
<path d="M100.61 52.4795V29.2295L82.6802 38.1395L82.7002 61.5795L100.61 52.4795Z" fill="#4DABCF"/>
<path d="M47.0804 52.1592L32.9504 45.0492V75.7492C32.9504 75.7492 15.6704 38.9892 14.0704 35.6792C13.8604 35.2492 13.0204 34.7892 12.8004 34.6692C9.68035 33.0392 0.610352 28.4492 0.610352 28.4492V82.6992L13.1704 89.4292V61.0592C13.1704 61.0592 30.2604 93.9092 30.4404 94.2692C30.6204 94.6292 32.3204 98.0892 34.1604 99.2992C36.6004 100.919 47.0704 107.209 47.0704 107.209V52.1392L47.0804 52.1592Z" fill="#4D77CF"/>
</svg>
