<svg width="101" height="101" viewBox="0 0 101 101" fill="none" xmlns="http://www.w3.org/2000/svg">
<path d="M65.0096 42.9304C68.953 42.9304 72.1497 39.7337 72.1497 35.7904C72.1497 31.8471 68.953 28.6504 65.0096 28.6504C61.0663 28.6504 57.8696 31.8471 57.8696 35.7904C57.8696 39.7337 61.0663 42.9304 65.0096 42.9304Z" fill="url(#paint0_linear_767_2838)"/>
<path d="M93.5795 14.3503C97.5228 14.3503 100.719 11.1536 100.719 7.21031C100.719 3.267 97.5228 0.0703125 93.5795 0.0703125C89.6362 0.0703125 86.4395 3.267 86.4395 7.21031C86.4395 11.1536 89.6362 14.3503 93.5795 14.3503Z" fill="url(#paint1_linear_767_2838)"/>
<path d="M65.0096 14.3503C68.953 14.3503 72.1497 11.1536 72.1497 7.21031C72.1497 3.267 68.953 0.0703125 65.0096 0.0703125C61.0663 0.0703125 57.8696 3.267 57.8696 7.21031C57.8696 11.1536 61.0663 14.3503 65.0096 14.3503Z" fill="url(#paint2_linear_767_2838)"/>
<path d="M36.4398 14.3503C40.3831 14.3503 43.5798 11.1536 43.5798 7.21031C43.5798 3.267 40.3831 0.0703125 36.4398 0.0703125C32.4965 0.0703125 29.2998 3.267 29.2998 7.21031C29.2998 11.1536 32.4965 14.3503 36.4398 14.3503Z" fill="url(#paint3_linear_767_2838)"/>
<path d="M7.85974 14.3503C11.8031 14.3503 14.9998 11.1536 14.9998 7.21031C14.9998 3.267 11.8031 0.0703125 7.85974 0.0703125C3.91643 0.0703125 0.719727 3.267 0.719727 7.21031C0.719727 11.1536 3.91643 14.3503 7.85974 14.3503Z" fill="url(#paint4_linear_767_2838)"/>
<path d="M7.85974 42.9304C11.8031 42.9304 14.9998 39.7337 14.9998 35.7904C14.9998 31.8471 11.8031 28.6504 7.85974 28.6504C3.91643 28.6504 0.719727 31.8471 0.719727 35.7904C0.719727 39.7337 3.91643 42.9304 7.85974 42.9304Z" fill="url(#paint5_linear_767_2838)"/>
<path d="M7.85974 57.21C3.91974 57.21 0.719727 60.41 0.719727 64.35V92.92C0.719727 96.86 3.91974 100.06 7.85974 100.06C11.7997 100.06 14.9998 96.86 14.9998 92.92V64.35C14.9998 60.41 11.7997 57.21 7.85974 57.21Z" fill="#282D33"/>
<path d="M65.0096 57.21C61.0696 57.21 57.8696 60.41 57.8696 64.35V92.92C57.8696 96.86 61.0696 100.06 65.0096 100.06C68.9496 100.06 72.1497 96.86 72.1497 92.92V64.35C72.1497 60.41 68.9496 57.21 65.0096 57.21Z" fill="#282D33"/>
<path d="M36.4398 28.6406C32.4998 28.6406 29.2998 31.8406 29.2998 35.7806V92.9206C29.2998 96.8606 32.4998 100.061 36.4398 100.061C40.3798 100.061 43.5798 96.8606 43.5798 92.9206V35.7906C43.5798 31.8506 40.3798 28.6506 36.4398 28.6506V28.6406Z" fill="#282D33"/>
<path d="M93.5795 28.6406C89.6395 28.6406 86.4395 31.8406 86.4395 35.7806V92.9206C86.4395 96.8606 89.6395 100.061 93.5795 100.061C97.5195 100.061 100.719 96.8606 100.719 92.9206V35.7906C100.719 31.8506 97.5195 28.6506 93.5795 28.6506V28.6406Z" fill="#282D33"/>
<defs>
<linearGradient id="paint0_linear_767_2838" x1="57.8596" y1="35.7904" x2="72.1497" y2="35.7904" gradientUnits="userSpaceOnUse">
<stop stop-color="#B596C3"/>
<stop offset="1" stop-color="#ACA8D6"/>
</linearGradient>
<linearGradient id="paint1_linear_767_2838" x1="86.4395" y1="7.21031" x2="100.719" y2="7.21031" gradientUnits="userSpaceOnUse">
<stop stop-color="#93CAE7"/>
<stop offset="1" stop-color="#82E0FA"/>
</linearGradient>
<linearGradient id="paint2_linear_767_2838" x1="-955.002" y1="7.21031" x2="-954.002" y2="7.21031" gradientUnits="userSpaceOnUse">
<stop stop-color="#B596C3"/>
<stop offset="1" stop-color="#ACA8D6"/>
</linearGradient>
<linearGradient id="paint3_linear_767_2838" x1="29.2898" y1="7.21031" x2="43.5798" y2="7.21031" gradientUnits="userSpaceOnUse">
<stop stop-color="#D76493"/>
<stop offset="1" stop-color="#C872AF"/>
</linearGradient>
<linearGradient id="paint4_linear_767_2838" x1="0.719727" y1="7.21031" x2="15.0098" y2="7.21031" gradientUnits="userSpaceOnUse">
<stop stop-color="#F92C6D"/>
<stop offset="1" stop-color="#EF437F"/>
</linearGradient>
<linearGradient id="paint5_linear_767_2838" x1="-955.002" y1="35.7904" x2="-954.002" y2="35.7904" gradientUnits="userSpaceOnUse">
<stop stop-color="#F92C6D"/>
<stop offset="1" stop-color="#EF437F"/>
</linearGradient>
</defs>
</svg>
