<svg width="98" height="100" viewBox="0 0 98 100" fill="none" xmlns="http://www.w3.org/2000/svg">
<path d="M72.5501 72.7895C73.1901 67.4895 73 66.7095 76.94 67.5695L77.94 67.6595C80.97 67.7995 84.9401 67.1695 87.2801 66.0895C92.3001 63.7595 95.28 59.8695 90.33 60.8895C79.04 63.2195 78.2601 59.3995 78.2601 59.3995C90.1801 41.7095 95.1701 19.2495 90.8701 13.7495C79.1401 -1.24052 58.8201 5.84948 58.4801 6.02948L58.3701 6.04948C56.1401 5.58948 53.64 5.30948 50.84 5.26948C45.73 5.18948 41.8501 6.60948 38.9101 8.83948C38.9101 8.83948 2.67006 -6.09052 4.36006 27.6095C4.72006 34.7795 14.64 81.8595 26.47 67.6395C30.79 62.4395 34.97 58.0395 34.97 58.0395C37.04 59.4195 39.5301 60.1195 42.1301 59.8695L42.33 59.6995C42.27 60.3495 42.2901 60.9795 42.4101 61.7195C39.3601 65.1295 40.2601 65.7195 34.1701 66.9795C28.0101 68.2495 31.6301 70.5095 33.9901 71.0995C36.8601 71.8195 43.49 72.8295 47.97 66.5595L47.7901 67.2795C48.9901 68.2395 48.9 74.1495 49.07 78.3795C49.24 82.6095 49.5201 86.5495 50.3801 88.8795C51.2401 91.2095 52.2601 97.1995 60.2701 95.4795C66.9601 94.0495 72.0801 91.9795 72.5501 72.7795" fill="black"/>
<path d="M57.5801 100C52.2901 100 48.6202 96.98 46.6702 90.97C46.5902 90.74 46.5301 90.52 46.4601 90.34C45.4401 87.58 45.0901 83.63 44.8901 78.55C44.8601 77.8 44.8402 77 44.8102 76.18C44.8002 75.67 44.7801 75.09 44.7601 74.47C41.3201 75.98 37.2901 76.25 32.9801 75.17C31.0501 74.69 29.0602 73.71 27.8102 72.22C24.3802 75.07 21.1201 74.65 19.3201 74.05C6.53006 69.78 0.330147 31.09 0.160147 27.81C-0.369853 17.2 2.50005 9.59996 8.69005 5.21996C18.3401 -1.60004 32.8701 2.29996 38.3401 4.14996C41.9301 2.01996 46.1801 0.979959 50.9001 1.05996C53.4201 1.09996 55.8102 1.31996 58.0502 1.70996C63.9602 -0.22004 82.7202 -3.47004 94.1702 11.16C100.18 18.84 94.0801 41.07 84.4501 57.44C85.6401 57.41 87.2801 57.23 89.4801 56.78C94.9801 55.65 96.4901 58.87 96.8201 59.89C98.5201 65.04 91.3002 68.85 89.0402 69.9C86.1902 71.22 81.5301 72.03 77.7501 71.86L76.8901 71.79C76.8701 71.96 76.8501 72.14 76.8301 72.31L76.7401 73.1C76.2301 92.67 70.8601 97.52 61.1501 99.6C59.8901 99.87 58.6901 100.01 57.5701 100.01L57.5801 100ZM50.4101 64.01C52.8102 65.93 53.0101 69.43 53.1901 75.96C53.2101 76.74 53.2301 77.51 53.2601 78.22C53.3501 80.35 53.5501 85.35 54.3201 87.43C54.4201 87.71 54.5301 88.02 54.6401 88.37C55.5101 91.04 55.8701 92.14 59.3901 91.38C64.3501 90.32 67.9401 89.55 68.3501 72.68L72.5402 72.78L68.3701 72.28L68.4801 71.32C68.8401 68.19 69.1301 65.72 71.3601 64.12C72.7701 63.11 74.3501 62.98 75.7301 63.1C74.6001 61.94 74.2401 60.76 74.1301 60.22L73.7801 58.5L74.7601 57.04C86.6401 39.42 89.8602 19.37 87.5402 16.33C78.2102 4.40996 61.9701 9.27996 60.1901 9.85996L59.8801 10.03L58.3102 10.32L57.5001 10.15C55.4601 9.72996 53.1901 9.48996 50.7501 9.44996C46.9601 9.38996 43.9202 10.28 41.4302 12.17L39.5201 13.62L37.3002 12.7C32.9602 10.92 20.2001 7.34996 13.5201 12.08C9.84013 14.69 8.16015 19.84 8.54015 27.38C8.67015 29.99 10.4401 39.8 13.3701 49.23C17.4401 62.36 21.0301 65.88 21.9801 66.09C21.9801 66.07 22.4401 65.89 23.2201 64.94C27.5801 59.69 31.7301 55.32 31.9101 55.14L34.3401 52.58L37.2801 54.53C38.2901 55.2 39.4002 55.59 40.5402 55.69L47.5101 49.74L46.5001 60.09C46.4801 60.29 46.4702 60.56 46.5502 61.07L46.8501 63.03L45.5301 64.51C45.5301 64.51 45.5101 64.54 45.4901 64.55L48.7501 66.05L50.4001 63.99L50.4101 64.01ZM60.4701 9.72996L60.3601 9.78996C60.4201 9.75996 60.4501 9.73996 60.4701 9.72996Z" fill="black"/>
<path d="M90.33 60.8895C79.04 63.2195 78.2601 59.3995 78.2601 59.3995C90.1801 41.7095 95.1701 19.2495 90.8701 13.7495C79.1401 -1.24052 58.8201 5.84948 58.4801 6.02948L58.3701 6.04948C56.1401 5.58948 53.64 5.30948 50.84 5.26948C45.73 5.18948 41.8501 6.60948 38.9101 8.83948C38.9101 8.83948 2.67006 -6.09052 4.36006 27.6195C4.72006 34.7895 14.64 81.8695 26.47 67.6495C30.79 62.4495 34.97 58.0495 34.97 58.0495C37.05 59.4295 39.5301 60.1295 42.1301 59.8795L42.33 59.7095C42.27 60.3595 42.3001 60.9895 42.4101 61.7295C39.3601 65.1395 40.2601 65.7295 34.1701 66.9895C28.0101 68.2595 31.6301 70.5195 33.9901 71.1095C36.8601 71.8295 43.49 72.8395 47.97 66.5695L47.7901 67.2895C48.9801 68.2495 49.8201 73.5095 49.6801 78.2795C49.5401 83.0495 49.4501 86.3295 50.3901 88.8895C51.3301 91.4495 52.2701 97.2095 60.2801 95.4895C66.9701 94.0595 70.4401 90.3395 70.9201 84.1395C71.2601 79.7295 72.04 80.3795 72.09 76.4395L72.71 74.5695C73.43 68.5995 72.82 66.6695 76.95 67.5595L77.95 67.6495C80.98 67.7895 84.9601 67.1595 87.2901 66.0795C92.3101 63.7495 95.29 59.8595 90.34 60.8795L90.33 60.8895Z" fill="#336791"/>
<path d="M58.0701 97.3797C51.3301 97.3797 49.2001 92.0497 48.3201 89.8597C47.0401 86.6597 46.7602 74.6997 47.0602 64.2697C47.0802 63.4997 47.7301 62.8897 48.5001 62.9097C49.2701 62.9297 49.8801 63.5797 49.8601 64.3497C49.5401 75.9697 49.9902 86.4897 50.9302 88.8197C52.3802 92.4297 54.5701 95.5897 60.7601 94.2697C66.7401 92.9897 68.8601 90.8397 69.8601 85.0597C70.6201 80.6397 72.1302 68.0797 72.3102 65.5997C72.3702 64.8297 73.0502 64.2497 73.8102 64.3097C74.5802 64.3697 75.1601 65.0397 75.1001 65.8097C74.9101 68.3897 73.4101 80.9497 72.6101 85.5397C71.4301 92.3897 68.3701 95.4997 61.3401 97.0097C60.1401 97.2697 59.0501 97.3797 58.0701 97.3797Z" fill="white"/>
<path d="M21.8802 71.5597C21.2302 71.5597 20.6402 71.4397 20.1302 71.2697C9.7202 67.7997 3.1102 32.0197 2.8802 27.5397C2.4002 17.9497 4.88018 11.1497 10.2402 7.34971C20.8402 -0.16029 38.6302 6.97971 39.3802 7.28971C40.0902 7.57971 40.4402 8.39971 40.1502 9.10971C39.8602 9.82971 39.0401 10.1697 38.3302 9.87971C38.1602 9.80971 21.2002 3.01971 11.8602 9.63971C7.33018 12.8497 5.25025 18.8297 5.68025 27.3997C5.82025 30.1097 7.53015 39.7797 10.4602 49.3897C13.8502 60.4997 17.7002 67.5097 21.0102 68.6097C21.5202 68.7797 23.0703 69.2997 25.3103 66.5997C29.6103 61.4197 33.5702 57.2897 33.6102 57.2497C34.1402 56.6897 35.0302 56.6697 35.5902 57.2097C36.1502 57.7397 36.1702 58.6297 35.6302 59.1897C35.5902 59.2297 31.7002 63.2997 27.4602 68.3997C25.4302 70.8397 23.4702 71.5597 21.8802 71.5597Z" fill="white"/>
<path d="M78.1801 60.6602C77.9101 60.6602 77.6401 60.5802 77.4001 60.4202C76.7601 59.9902 76.5901 59.1202 77.0201 58.4802C89.0501 40.6302 93.2901 19.0802 89.6801 14.4802C78.9301 0.740225 60.71 6.57023 59.07 7.14023C59 7.17023 58.93 7.20023 58.86 7.23023C58.18 7.44023 57.4 7.13023 57.11 6.48023C56.82 5.83023 57.0601 5.07023 57.6601 4.71023C57.6701 4.71023 57.8001 4.65023 58.0201 4.58023V4.56023C58.0801 4.54023 58.15 4.52023 58.21 4.51023C61.67 3.39023 80.5601 -1.71978 91.8801 12.7502C97.0201 19.3202 90.69 43.1902 79.33 60.0402C79.06 60.4402 78.6201 60.6602 78.1701 60.6602H78.1801Z" fill="white"/>
<path d="M78.7999 68.9298C76.7199 68.9298 74.8499 68.6398 73.7399 67.9698C72.5599 67.2598 72.3399 66.2998 72.3099 65.7898C71.9999 60.4298 74.8798 59.3598 76.4698 58.8998C76.2698 58.6098 75.9999 58.2798 75.7299 57.9298C74.8298 56.8098 73.6099 55.2698 72.6599 52.9798C72.5099 52.6298 72.0499 51.7998 71.5199 50.8398C68.6099 45.6198 62.5498 34.7498 66.4698 29.1498C68.2698 26.5798 71.8199 25.5498 77.0299 26.0698C75.3599 21.2298 67.8899 6.79982 50.7499 6.51982C45.5499 6.43982 41.2299 8.03982 37.9999 11.2898C30.7699 18.5798 31.0199 31.8398 31.0199 31.9698C31.0399 32.7398 30.4299 33.3798 29.6599 33.3998C28.8999 33.4198 28.2499 32.8098 28.2299 32.0398C28.2099 31.4498 27.9399 17.4698 36.0099 9.31982C39.7899 5.49982 44.7999 3.60982 50.7999 3.70982C72.2799 4.05982 79.9398 24.4698 80.1898 27.2098C80.3298 28.7498 79.1499 29.0398 79.0199 29.0598H78.5199C74.9899 28.5098 70.4399 28.3398 68.7699 30.7298C65.8599 34.8898 71.5499 45.0998 73.9799 49.4498C74.5998 50.5698 75.0599 51.3798 75.2599 51.8798C76.0599 53.8098 77.0999 55.1098 77.9299 56.1498C78.6699 57.0798 79.3199 57.8798 79.5599 58.8398C79.6899 59.0498 81.2599 61.1498 89.9999 59.3398C92.2999 58.8598 93.6899 59.2798 94.1199 60.5898C94.9499 63.1098 90.3698 65.9998 87.8298 67.1798C85.5698 68.2298 81.9598 68.8898 78.8398 68.8898L78.7999 68.9298ZM75.0898 65.5198C76.1398 66.4998 82.8999 66.3998 86.6099 64.6798C88.4899 63.8098 89.8198 62.8298 90.5898 62.1098C90.5698 62.1098 90.5499 62.1098 90.5299 62.1198C84.7799 63.3098 80.7099 63.1398 78.4299 61.6398C78.2799 61.5398 78.1499 61.4398 78.0299 61.3498C77.7999 61.4398 77.5898 61.4998 77.4498 61.5398C76.1598 61.8998 74.9298 62.2498 75.0998 65.5298L75.0898 65.5198Z" fill="white"/>
<path d="M38.0303 72.9096C36.6103 72.9096 35.1202 72.7196 33.5702 72.3296C33.1302 72.2196 29.2303 71.1696 29.2803 68.6796C29.3303 66.3996 32.5803 65.7296 33.8003 65.4796C38.1103 64.5896 38.3802 64.2396 39.7202 62.5396C40.1202 62.0396 40.6103 61.4096 41.2803 60.6596C43.5203 58.1596 45.6303 59.0296 46.5303 59.3996C47.9403 59.9896 49.1202 61.3996 49.6102 63.0896C50.0502 64.6196 49.8403 66.0896 49.0203 67.2396C46.3603 70.9696 42.5403 72.8996 38.0203 72.8996L38.0303 72.9096ZM32.3802 68.8096C32.7902 69.0896 33.4802 69.4196 34.2502 69.6096C37.9802 70.5396 43.1802 70.6096 46.7502 65.6096C47.1702 65.0196 47.0403 64.2596 46.9303 63.8596C46.6903 63.0096 46.0902 62.2396 45.4702 61.9796C44.7102 61.6696 44.2902 61.4896 43.3802 62.5196C42.7702 63.2096 42.3203 63.7696 41.9303 64.2696C40.2203 66.4396 39.4402 67.1696 34.3802 68.2196C33.3302 68.4396 32.7302 68.6496 32.3902 68.8096H32.3802Z" fill="white"/>
<path d="M42.1301 62.93C41.4501 62.93 40.8501 62.43 40.7501 61.74C40.7201 61.55 40.7 61.37 40.69 61.18C37.4 61.09 34.23 59.67 31.82 57.15C28.75 53.94 27.35 49.5 27.98 44.96C28.66 40.07 28.4101 35.76 28.2701 33.44C28.2301 32.79 28.2 32.3 28.21 32C28.23 29.75 34.8301 26.87 38.6501 26.47C43.4001 25.98 46.52 28.09 47.46 32.43C49.96 44 47.66 49.12 45.97 52.86C45.66 53.55 45.3601 54.21 45.1301 54.84L44.9201 55.4C44.0401 57.76 43.2801 59.8 43.5101 61.31C43.6301 62.07 43.1 62.79 42.34 62.91C42.27 62.92 42.2001 62.93 42.1301 62.93ZM31.0201 32.41C31.0301 32.64 31.05 32.94 31.07 33.28C31.21 35.69 31.4801 40.19 30.7601 45.35C30.2401 49.04 31.37 52.63 33.85 55.22C35.8 57.25 38.3601 58.38 41.0001 58.39C41.3001 57.15 41.79 55.84 42.32 54.43L42.5301 53.87C42.8001 53.15 43.11 52.45 43.44 51.72C45.05 48.15 47.0501 43.7 44.7401 33.03C44.2901 30.97 43.22 29.77 41.46 29.37C37.6 28.49 32.1901 31.38 31.0301 32.42L31.0201 32.41Z" fill="white"/>
<path d="M38.7201 31.8104C38.6601 32.2704 39.5601 33.4904 40.7401 33.6504C41.9201 33.8104 42.9201 32.8604 42.9801 32.4004C43.0401 31.9404 42.1401 31.4404 40.9601 31.2704C39.7801 31.1104 38.7801 31.3404 38.7201 31.8004V31.8104Z" fill="white"/>
<path d="M41.0101 34.14C40.9001 34.14 40.7901 34.14 40.6801 34.12C39.9401 34.02 39.1901 33.55 38.6801 32.87C38.5001 32.63 38.2101 32.17 38.2601 31.75C38.2801 31.59 38.3601 31.36 38.6301 31.16C39.1001 30.81 40.0201 30.68 41.0301 30.82C42.0501 30.96 42.9001 31.34 43.2501 31.81C43.4501 32.07 43.46 32.32 43.44 32.48C43.38 32.94 42.9301 33.39 42.5401 33.66C42.0701 33.98 41.5301 34.15 41.0101 34.15V34.14ZM39.2 31.9C39.27 32.21 39.9402 33.07 40.8102 33.19C41.7202 33.32 42.4801 32.55 42.5301 32.33C42.4801 32.25 41.9301 31.88 40.9101 31.74C39.9601 31.61 39.35 31.78 39.2 31.9Z" fill="white"/>
<path d="M74.5102 30.8798C74.5702 31.3398 73.6701 32.5599 72.4901 32.7199C71.3101 32.8799 70.3101 31.9298 70.2401 31.4698C70.1801 31.0098 71.0802 30.5099 72.2602 30.3399C73.4402 30.1699 74.4402 30.4099 74.5102 30.8699V30.8798Z" fill="white"/>
<path d="M72.2404 32.9697C71.0804 32.9697 70.1004 32.0497 70.0304 31.4997C69.9404 30.7997 71.0704 30.2697 72.2404 30.1097C73.4104 29.9497 74.6504 30.1397 74.7504 30.8397C74.7904 31.1497 74.5604 31.6297 74.1504 32.0597C73.8804 32.3397 73.3104 32.8297 72.5404 32.9397C72.4404 32.9497 72.3404 32.9597 72.2404 32.9597V32.9697ZM73.0004 30.5197C72.7904 30.5197 72.5605 30.5397 72.3005 30.5697C71.0705 30.7397 70.4604 31.2297 70.4804 31.4297C70.5204 31.7397 71.4004 32.6197 72.4604 32.4797C73.0904 32.3897 73.5705 31.9797 73.8005 31.7397C74.1505 31.3697 74.3004 31.0197 74.2804 30.8997C74.2604 30.7397 73.8004 30.5197 72.9904 30.5197H73.0004Z" fill="white"/>
<path d="M76.2099 57.2495C75.9399 57.2495 75.67 57.1695 75.43 57.0095C74.79 56.5795 74.62 55.7095 75.05 55.0695C77.78 50.9895 77.28 46.8095 76.8 42.7695C76.59 41.0395 76.38 39.2395 76.43 37.5195C76.49 35.7495 76.71 34.2895 76.93 32.8795C77.19 31.2195 77.4299 29.6395 77.3299 27.7795C77.2899 27.0095 77.88 26.3495 78.65 26.3095C79.46 26.2695 80.0799 26.8595 80.1199 27.6295C80.2399 29.7795 79.9599 31.5695 79.6899 33.2995C79.4899 34.6295 79.2699 35.9995 79.2199 37.6095C79.1699 39.1195 79.3599 40.7295 79.5699 42.4395C80.0899 46.7695 80.6799 51.6895 77.3699 56.6295C77.0999 57.0295 76.6599 57.2495 76.2099 57.2495Z" fill="white"/>
</svg>
