<svg width="101" height="101" viewBox="0 0 101 101" fill="none" xmlns="http://www.w3.org/2000/svg">
<path d="M100.38 50.3098C100.47 78.4098 77.3101 101 49.2601 100.36C21.7401 99.7298 -0.22988 76.9398 0.41012 49.2098C1.04012 21.6898 23.87 -0.320246 51.69 0.389754C79.08 1.08975 100.46 23.5498 100.39 50.3098H100.38Z" fill="#EC6C3F"/>
<path d="M30.3199 78.0398C29.3899 77.4498 28.86 76.7398 28.24 76.1398C27.34 75.2798 26.4899 74.3698 25.5899 73.5098C25.2099 73.1498 25.12 72.9198 25.54 72.4898C30.32 67.6798 35.0799 62.8398 39.8399 58.0098C40.1099 57.7398 40.41 57.5798 40.77 57.5198C42.97 57.1798 45.17 56.8298 47.37 56.4998C47.69 56.4498 48.01 56.3898 48.29 56.6798C49.02 57.4298 49.76 58.1798 50.52 58.8998C50.99 59.3498 50.55 59.4898 50.3 59.7098C46.45 62.8798 42.3699 65.7298 38.0999 68.2998C35.6899 69.7498 33.2099 71.0898 30.6899 72.3398C29.3199 73.0198 29.2399 73.1998 29.5799 74.7198C29.8199 75.7598 30.0499 76.7998 30.3399 78.0398H30.3199Z" fill="#FEFEFE"/>
<path d="M65.3601 31.5299C64.1101 31.8199 63.4001 32.4799 62.7001 33.1799C56.9901 38.8699 51.2502 44.5499 45.5502 50.2499C45.0502 50.7499 44.7701 50.8699 44.2501 50.2799C43.4701 49.3999 42.6101 48.5799 41.7501 47.7699C41.4101 47.4499 41.4101 47.2499 41.7501 46.9199C46.4001 42.3499 51.0401 37.7699 56.2501 33.7999C57.6401 32.7499 59.1101 31.8199 60.6901 31.0899C62.2301 30.3699 63.7101 30.4699 65.3701 31.5299H65.3601Z" fill="#FEFEFE"/>
<path d="M68.2701 35.17C68.2701 36.12 67.81 36.71 67.19 37.25C62.32 41.48 57.4601 45.72 52.6001 49.95C51.2401 51.13 49.8601 52.29 48.5401 53.51C48.0901 53.93 47.85 53.87 47.44 53.46C45.92 51.94 45.9001 51.95 47.4201 50.44C52.9501 44.95 58.4801 39.46 64.0201 33.97C65.5701 32.43 67.7 32.85 68.2 34.78C68.24 34.94 68.2601 35.1 68.2801 35.18L68.2701 35.17Z" fill="#FEFEFE"/>
<path d="M72.8702 33.6497C69.7902 33.6497 67.0702 31.7397 66.0102 28.8297C64.9802 25.9997 65.8502 22.7297 68.1502 20.7997C70.5002 18.8297 73.7602 18.5397 76.4202 19.9897C77.1902 20.4097 77.2301 20.6897 76.6001 21.2897C74.7701 23.0697 72.9802 24.8997 71.1802 26.7197C70.3702 27.5297 70.3801 27.7297 71.2001 28.5497C72.5201 29.8697 73.8302 31.1997 75.1702 32.5097C75.6002 32.9297 75.6502 33.1597 74.9902 33.3197C74.2902 33.4997 73.5902 33.6697 72.8602 33.6397L72.8702 33.6497Z" fill="#FEFEFE"/>
<path d="M68.19 38.7698C67.71 40.3998 66.9501 41.7298 66.1101 43.0098C63.5101 46.9498 60.2401 50.2998 56.9301 53.6198C55.5901 54.9698 54.2001 56.2698 52.8501 57.5998C52.4601 57.9898 52.1801 58.0998 51.7501 57.5998C51.1301 56.8898 50.4301 56.2398 49.7401 55.5798C49.4401 55.2898 49.3001 55.0798 49.7101 54.7298C55.7601 49.4498 61.8001 44.1598 67.8401 38.8798C67.8801 38.8398 67.96 38.8398 68.19 38.7598V38.7698Z" fill="#FEFEFE"/>
<path d="M80.1599 26.1397C80.1599 28.5597 79.3099 30.3397 77.7499 31.7997C77.3599 32.1597 77.0899 32.2997 76.6399 31.8197C75.4299 30.5297 74.1599 29.2997 72.8999 28.0697C72.5699 27.7497 72.5499 27.5497 72.8899 27.2097C74.6199 25.5097 76.3299 23.7997 78.0299 22.0697C78.4099 21.6897 78.5899 21.8197 78.8399 22.1897C79.7199 23.4697 80.22 24.8497 80.17 26.1497L80.1599 26.1397Z" fill="#FEFEFE"/>
<path d="M28.4 78.3199C25.56 78.1299 22.9899 77.9699 20.1899 77.7799C21.4299 76.5399 22.51 75.4699 23.58 74.3899C23.82 74.1399 23.99 74.1899 24.23 74.4099C25.55 75.6599 26.88 76.8999 28.41 78.3199H28.4Z" fill="#FEFDFD"/>
<path d="M43.1101 51.4493C40.7001 51.9593 38.3601 52.4693 36.0101 52.9693C35.9701 52.9093 35.9301 52.8493 35.8901 52.7993C37.2601 51.4293 38.6301 50.0593 40.0001 48.6893C40.1801 48.5093 40.3301 48.5393 40.5001 48.7093C41.3401 49.5993 42.1901 50.4893 43.1101 51.4593V51.4493Z" fill="#FEFDFD"/>
<path d="M46.7601 55.0095C45.2501 55.1895 44.0302 55.3295 42.8102 55.4795C42.7602 55.4095 42.7102 55.3395 42.6602 55.2795C43.3102 54.6295 43.9601 53.9795 44.6001 53.3295C44.8001 53.1295 44.9401 53.2495 45.0901 53.3895C45.5901 53.8795 46.1001 54.3795 46.7601 55.0195V55.0095Z" fill="#FEFBFA"/>
<path d="M78.94 26.5597C78.92 27.2997 78.74 27.8497 78.39 28.3497C78.13 28.7297 77.74 28.8597 77.37 28.6197C77.03 28.3997 77.21 28.0497 77.39 27.7597C77.71 27.2697 77.83 26.7597 77.61 26.1797C77.47 25.7997 77.37 25.3597 77.88 25.1997C78.4 25.0297 78.66 25.3697 78.77 25.8397C78.84 26.1197 78.8901 26.4097 78.9201 26.5597H78.94Z" fill="#EC6F42"/>
</svg>
