<svg width="77" height="94" viewBox="0 0 77 94" fill="none" xmlns="http://www.w3.org/2000/svg">
<path d="M37.6 0.970026C34.46 0.980026 31.46 1.25003 28.83 1.72003C21.06 3.09003 19.65 5.97003 19.65 11.26V18.26H38.01V20.59H12.76C7.41998 20.59 2.74998 23.8 1.28998 29.9C-0.400023 36.89 -0.470023 41.26 1.28998 48.56C2.58998 53.99 5.70998 57.87 11.05 57.87H17.36V49.48C17.36 43.42 22.6 38.08 28.83 38.08H47.17C52.27 38.08 56.35 33.88 56.35 28.75V11.26C56.35 6.28003 52.15 2.55003 47.17 1.72003C44.02 1.20003 40.74 0.960026 37.61 0.970026H37.6ZM27.67 6.60003C29.57 6.60003 31.11 8.17003 31.11 10.11C31.11 12.04 29.56 13.6 27.67 13.6C25.77 13.6 24.23 12.04 24.23 10.11C24.23 8.18003 25.77 6.60003 27.67 6.60003Z" fill="url(#paint0_linear_767_751)"/>
<path d="M58.6304 20.5901V28.7401C58.6304 35.0601 53.2704 40.3801 47.1604 40.3801H28.8304C23.8104 40.3801 19.6504 44.6801 19.6504 49.7101V67.1901C19.6504 72.1701 23.9804 75.0901 28.8304 76.5201C34.6404 78.2301 40.2104 78.5401 47.1704 76.5201C51.7904 75.1801 56.3504 72.4901 56.3504 67.1901V60.1901H38.0104V57.8601H65.5304C70.8704 57.8601 72.8504 54.1401 74.7104 48.5501C76.6304 42.8001 76.5504 37.2701 74.7104 29.8901C73.3904 24.5801 70.8704 20.5801 65.5304 20.5801H58.6404L58.6304 20.5901ZM48.3204 64.8601C50.2204 64.8601 51.7604 66.4201 51.7604 68.3501C51.7604 70.2801 50.2204 71.8601 48.3204 71.8601C46.4204 71.8601 44.8804 70.2901 44.8804 68.3501C44.8804 66.4101 46.4304 64.8601 48.3204 64.8601Z" fill="url(#paint1_linear_767_751)"/>
<path opacity="0.44" d="M38.2201 93.1699C51.8063 93.1699 62.8201 91.0343 62.8201 88.3999C62.8201 85.7655 51.8063 83.6299 38.2201 83.6299C24.6339 83.6299 13.6201 85.7655 13.6201 88.3999C13.6201 91.0343 24.6339 93.1699 38.2201 93.1699Z" fill="url(#paint2_radial_767_751)"/>
<defs>
<linearGradient id="paint0_linear_767_751" x1="-1.63522" y1="-34.5879" x2="40.7907" y2="1.26929" gradientUnits="userSpaceOnUse">
<stop stop-color="#5A9FD4"/>
<stop offset="1" stop-color="#306998"/>
</linearGradient>
<linearGradient id="paint1_linear_767_751" x1="56.3252" y1="24.1678" x2="41.0412" y2="2.92813" gradientUnits="userSpaceOnUse">
<stop stop-color="#FFD43B"/>
<stop offset="1" stop-color="#FFE873"/>
</linearGradient>
<radialGradient id="paint2_radial_767_751" cx="0" cy="0" r="1" gradientUnits="userSpaceOnUse" gradientTransform="translate(73.1326 86.9799) rotate(-90) scale(4.7712 20.874)">
<stop stop-color="#B8B8B8" stop-opacity="0.5"/>
<stop offset="1" stop-color="#7F7F7F" stop-opacity="0"/>
</radialGradient>
</defs>
</svg>
