<svg width="97" height="98" viewBox="0 0 97 98" fill="none" xmlns="http://www.w3.org/2000/svg">
<path d="M48.3702 57.5902C53.1144 57.5902 56.9603 53.7443 56.9603 49.0002C56.9603 44.256 53.1144 40.4102 48.3702 40.4102C43.6261 40.4102 39.7803 44.256 39.7803 49.0002C39.7803 53.7443 43.6261 57.5902 48.3702 57.5902Z" fill="#61DAFB"/>
<path d="M48.37 66.6004C73.8304 66.6004 94.47 58.7206 94.47 49.0004C94.47 39.2802 73.8304 31.4004 48.37 31.4004C22.9097 31.4004 2.27002 39.2802 2.27002 49.0004C2.27002 58.7206 22.9097 66.6004 48.37 66.6004Z" stroke="#61DAFB" stroke-width="4.19"/>
<path d="M71.4216 88.9196C79.8396 84.0595 76.3438 62.2451 63.6137 40.1958C50.8835 18.1466 33.7396 4.21196 25.3216 9.07207C16.9037 13.9322 20.3994 35.7465 33.1296 57.7958C45.8598 79.8451 63.0037 93.7797 71.4216 88.9196Z" stroke="#61DAFB" stroke-width="4.19"/>
<path d="M63.6083 57.7983C76.3385 35.749 79.8342 13.9347 71.4163 9.07454C62.9983 4.21444 45.8544 18.149 33.1242 40.1983C20.3941 62.2476 16.8983 84.062 25.3163 88.9221C33.7342 93.7822 50.8781 79.8476 63.6083 57.7983Z" stroke="#61DAFB" stroke-width="4.19"/>
</svg>
