<svg width="101" height="86" viewBox="0 0 101 86" fill="none" xmlns="http://www.w3.org/2000/svg">
<mask id="mask0_770_6994" style="mask-type:luminance" maskUnits="userSpaceOnUse" x="0" y="0" width="101" height="86">
<path d="M100.03 0.150391H0.0302734V85.8504H100.03V0.150391Z" fill="white"/>
</mask>
<g mask="url(#mask0_770_6994)">
<path d="M96.1 66.2198C90.77 69.0098 63.13 80.3798 57.17 83.4998C51.21 86.6198 48.0301 86.5298 43.3701 84.3098C38.7101 82.0898 9.39008 70.1598 4.08008 67.6198C1.40008 66.3598 0.0400391 65.2898 0.0400391 64.2898V54.1798C0.0400391 54.1798 38.3401 45.8698 44.5201 43.6298C50.7001 41.3898 52.8401 41.3398 58.0901 43.2598C63.3401 45.1798 94.8301 50.8698 100.02 52.7498V62.7198C100.02 63.7598 98.82 64.7698 96.1 66.2198Z" fill="#A32422"/>
<path d="M96.1003 56.1506C90.7703 58.9206 63.1303 70.2906 57.1703 73.3606C51.2103 76.4306 48.0303 76.4006 43.3703 74.1806C38.7104 71.9606 9.39037 60.0406 4.08037 57.5206C-1.22963 55.0006 -1.33964 53.2406 3.88036 51.2006C9.09036 49.1606 38.3404 37.7106 44.5204 35.4606C50.7004 33.2106 52.8404 33.1606 58.0904 35.0906C63.3404 37.0206 90.8703 47.9606 96.0403 49.8606C101.21 51.7606 101.45 53.3306 96.1003 56.1006V56.1506Z" fill="#DC382C"/>
<path d="M96.1002 49.7506C90.7702 52.5306 63.1302 63.8906 57.1702 66.9606C51.2102 70.0306 48.0503 70.0006 43.3903 67.7706C38.7303 65.5406 9.39025 53.6806 4.07025 51.1506C1.39025 49.8806 0.0302734 48.8106 0.0302734 47.8006V37.7206C0.0302734 37.7206 38.3303 29.3806 44.5103 27.1406C50.6903 24.9006 52.8303 24.8406 58.0803 26.7906C63.3303 28.7406 94.8203 34.3706 100.01 36.2706V46.2406C100.01 47.2806 98.8103 48.3206 96.0903 49.7506H96.1002Z" fill="#A32422"/>
<path d="M96.0999 39.6303C90.7699 42.4203 63.13 53.7803 57.17 56.8503C51.21 59.9203 48.03 59.9003 43.37 57.6703C38.71 55.4403 9.38999 43.5703 4.07999 41.0303C-1.23001 38.4903 -1.33002 36.7603 3.87998 34.7303C9.08998 32.7003 38.34 21.2103 44.52 19.0203C50.7 16.8303 52.84 16.6903 58.09 18.6003C63.34 20.5103 90.8699 31.5403 96.0399 33.3903C101.21 35.2403 101.45 36.8703 96.0999 39.6303Z" fill="#DC382C"/>
<path d="M96.1002 32.6503C90.7702 35.4403 63.1302 46.8103 57.1702 49.8703C51.2102 52.9303 48.0503 52.9103 43.3903 50.6903C38.7303 48.4703 9.39025 36.5803 4.07025 34.0503C1.39025 32.7903 0.0302734 31.7203 0.0302734 30.7103V20.6003C0.0302734 20.6003 38.3303 12.2903 44.5103 10.0503C50.6903 7.81026 52.8303 7.75027 58.0803 9.67027C63.3303 11.6003 94.8002 17.2803 100 19.1803V29.1503C100.01 30.2003 98.8203 31.2303 96.0903 32.6503H96.1002Z" fill="#A32422"/>
<path d="M96.1003 22.5502C90.7703 25.2802 63.1303 36.7202 57.1703 39.7602C51.2103 42.8002 48.0303 42.7902 43.3703 40.5802C38.7104 38.3702 9.39037 26.4602 4.08037 23.9402C-1.22963 21.4202 -1.33964 19.6602 3.88036 17.6202C9.09036 15.5802 38.3404 4.1102 44.5204 1.8802C50.7004 -0.349804 52.8404 -0.409804 58.0904 1.5102C63.3404 3.4402 90.8703 14.3802 96.0403 16.2802C101.21 18.1802 101.45 19.7602 96.1003 22.5202V22.5402V22.5502Z" fill="#DC382C"/>
</g>
<path d="M51.6001 8.19043L58.1901 6.02043L56.4101 10.3004L63.1201 12.8104L54.4701 13.7104L52.5201 18.3904L49.3901 13.1704L39.3901 12.2704L46.8601 9.58043L44.6101 5.44043L51.6001 8.19043Z" fill="white"/>
<path d="M52.0103 35.4604L35.8403 28.7504L59.0103 25.1904L52.0103 35.4604Z" fill="white"/>
<path d="M29.5902 15.4102C36.4202 15.4102 41.9702 17.5602 41.9702 20.1902C41.9702 22.8202 36.4002 24.9702 29.5902 24.9702C22.7802 24.9702 17.2002 22.8202 17.2002 20.1902C17.2002 17.5602 22.7502 15.4102 29.5902 15.4102Z" fill="white"/>
<path d="M73.3701 14.0908L87.0801 19.5108L73.3801 24.9208L73.3701 14.0908Z" fill="#741113"/>
<path d="M73.3704 14.0908L73.3804 24.9208L71.8904 25.5008L58.1904 20.0908L73.3704 14.0908Z" fill="#AC2724"/>
</svg>
