<svg width="110" height="90" viewBox="0 0 110 90" fill="none" xmlns="http://www.w3.org/2000/svg">
<path d="M52.9899 4.27023C54.3499 4.36023 55.8799 4.16022 57.3499 4.65022C57.8599 4.82022 58.7599 4.54022 58.7199 5.44022C58.6899 6.19022 59.0099 7.09022 57.9899 7.62022C56.8499 8.22022 55.82 9.04022 55.12 10.1302C54.57 10.9702 53.8199 10.7302 53.0999 10.7302C39.1799 10.7902 29.21 18.9402 26.4 32.6502C26.11 34.0402 25.57 34.5702 24.13 34.8102C19.62 35.5702 15.2799 36.8702 11.9099 40.2002C4.10993 47.9102 6.95998 61.8802 17.4 66.3802C19.45 67.2602 19.82 68.2602 19.77 70.1602C19.66 74.1602 19.6999 74.2702 15.8599 72.7702C7.99995 69.7002 3.20994 63.9002 1.53994 55.7302C-0.180062 47.3302 2.10995 40.0402 8.67995 34.3602C11.56 31.8702 15.07 30.3702 18.78 29.4602C20.02 29.1602 20.64 28.6002 21.02 27.3402C25.24 13.2002 37.9299 4.03023 52.9899 4.27023Z" fill="#01B4E5"/>
<path d="M109.9 48.3901C109.87 60.1601 103.48 68.8601 92.1804 72.6501C90.7504 73.1301 90.5004 72.8901 90.3704 71.3901C90.0804 68.0401 90.8004 65.9901 94.3504 64.3601C101.54 61.0501 103.59 54.4601 103.31 47.0601C103.12 41.8901 101.65 37.1401 97.8804 33.3301C97.4804 32.9201 97.1204 32.3101 97.4404 31.9301C98.6304 30.5101 100.48 29.7901 101.55 28.1701C101.72 27.9101 102.48 28.7401 102.89 29.1501C107.25 33.4601 109.91 40.8201 109.9 48.3901Z" fill="#01B4E5"/>
<path d="M77.51 77.2701C77.51 73.8101 77.54 70.3501 77.49 66.9001C77.47 65.7701 77.8 65.3701 79.01 65.3201C84.96 65.0601 84.96 65.0201 84.96 70.9901C84.96 76.4801 84.91 81.9701 84.99 87.4501C85.01 88.9101 84.62 89.3401 83.12 89.3401C77.47 89.3401 77.47 89.4001 77.44 83.8101C77.43 81.6301 77.44 79.4501 77.44 77.2701C77.47 77.2701 77.49 77.2701 77.52 77.2701H77.51Z" fill="#02B5E5"/>
<path d="M42.5896 52.7003C42.5896 50.8203 42.6596 48.9403 42.5696 47.0603C42.4996 45.7403 43.0296 45.4103 44.2596 45.4403C47.1996 45.5103 50.1496 45.5103 53.0896 45.4403C54.2596 45.4103 54.6796 45.7503 54.6396 46.9503C54.5996 48.0203 54.4595 48.6503 53.1595 48.5803C51.5795 48.4903 49.9895 48.5803 48.4095 48.5603C47.6295 48.5503 47.1496 48.7203 47.1196 49.6603C47.0896 50.7103 47.5796 50.9303 48.4896 50.9003C49.7696 50.8603 51.0596 50.9303 52.3396 50.8803C53.4096 50.8403 54.1795 50.8403 54.1595 52.3503C54.1395 53.7803 53.4896 53.9403 52.3596 53.8803C51.1596 53.8203 49.9396 53.9203 48.7396 53.8603C47.6196 53.8003 47.0896 54.1303 47.1196 55.3703C47.1396 56.5303 47.6996 56.7403 48.6796 56.7103C50.1096 56.6703 51.5496 56.7303 52.9796 56.6903C54.1196 56.6603 54.9396 56.6403 54.9896 58.2703C55.0396 60.0703 54.0796 59.9603 52.8796 59.9503C50.0896 59.9203 47.2896 59.8703 44.5096 59.9703C43.0896 60.0203 42.4596 59.6703 42.5796 58.1203C42.7096 56.3303 42.6096 54.5103 42.6096 52.7103L42.5896 52.7003Z" fill="#02B4E5"/>
<path d="M66.4902 49.5603C65.3202 49.7403 64.4902 49.7303 64.0102 48.6503C63.7502 48.0703 63.0702 47.8703 62.4702 47.8503C61.7902 47.8303 61.0402 47.9203 60.8602 48.7603C60.6902 49.5403 61.3002 49.8003 61.8902 49.9903C63.4002 50.4603 64.9502 50.8103 66.4302 51.3603C68.9602 52.3103 69.9303 55.1903 68.5802 57.5003C66.5302 60.9903 59.1402 61.2803 56.9202 57.9003C56.4102 57.1203 55.3602 55.7903 56.5602 55.2803C57.6502 54.8203 59.4702 53.9803 60.5002 55.8203C61.0402 56.7803 61.7602 57.2703 62.8602 57.2503C63.6702 57.2303 64.4002 57.0503 64.6402 56.1703C64.8902 55.2303 64.2802 54.7803 63.5002 54.5203C62.1402 54.0603 60.7602 53.6803 59.4202 53.1803C57.6502 52.5203 56.4303 51.2803 56.5203 49.3103C56.6203 47.2903 57.8402 45.9703 59.8102 45.4903C62.4502 44.8403 65.0602 44.7203 67.3302 46.5903C68.1003 47.2203 68.7902 48.1903 68.5002 49.1303C68.2002 50.0703 67.0302 49.3403 66.5102 49.5703L66.4902 49.5603Z" fill="#02B5E5"/>
<path d="M76.9103 45.46C78.6503 45.46 80.3903 45.56 82.1203 45.43C83.6203 45.32 83.6303 46.12 83.6203 47.21C83.6103 48.27 83.6403 49.03 82.1303 49.05C79.0203 49.09 79.0204 49.18 79.0204 52.32C79.0204 54.35 78.9203 56.39 79.0503 58.41C79.1903 60.6 77.6303 59.83 76.6103 59.9C75.5303 59.98 74.3104 60.28 74.4604 58.34C74.6304 56.1 74.3703 53.82 74.5403 51.58C74.6903 49.59 74.1503 48.61 72.0003 49C70.2903 49.32 69.7703 48.6 69.8603 46.9C69.9303 45.66 70.3703 45.39 71.4803 45.43C73.2903 45.5 75.1003 45.45 76.9103 45.45V45.46Z" fill="#02B4E5"/>
<path d="M94.6496 18.3702C93.6696 18.2402 92.4995 18.5702 92.2295 16.9902C91.9495 15.4102 91.4695 14.0002 93.4095 13.0102C95.0095 12.2002 95.1595 10.8802 93.9995 9.46021C93.5195 8.88021 93.0395 8.29022 92.6195 7.67022C91.5495 6.08021 90.3895 5.89022 88.8795 7.18022C88.2995 7.67022 87.6695 8.84022 86.6395 7.84022C85.6495 6.87022 83.4996 6.75022 84.3396 4.38022C84.9796 2.57022 84.1996 1.30021 82.0896 1.16021C81.6496 1.13021 81.1695 1.18021 80.8695 0.720215H78.1495C77.3295 1.48021 76.9595 2.50022 76.9795 3.54022C77.0095 5.40022 75.5495 5.06021 74.5095 5.48021C73.3795 5.93021 72.7495 5.58021 72.0595 4.66021C70.2995 2.30022 69.7295 2.28022 67.2995 4.09022C66.9995 4.32022 66.7095 4.57022 66.3995 4.77022C64.6695 5.86022 64.5096 7.18021 65.8396 8.69021C66.6496 9.61021 66.9895 10.4102 66.0595 11.6102C65.2295 12.6702 64.7595 13.6702 63.0695 13.1002C61.0595 12.4302 59.8895 13.3702 59.6895 15.4802C59.6195 16.2302 59.5595 16.9802 59.4495 17.7202C59.1995 19.3202 59.9295 20.1802 61.4795 20.3502C62.8395 20.5002 63.6696 20.8602 64.0896 22.4702C64.5396 24.1802 63.9295 24.9702 62.7195 25.7702C61.0795 26.8502 61.0595 28.1102 62.3195 29.5302C62.7695 30.0302 63.1695 30.5902 63.5395 31.1502C64.5495 32.7002 65.7295 32.7302 67.1695 31.7202C67.8695 31.2202 68.4195 30.0502 69.6395 31.0302C70.7595 31.9302 72.2195 32.3302 71.8495 34.4102C71.3895 37.0602 71.9395 37.5002 74.6795 37.7702C75.3595 37.8402 76.0295 37.8802 76.7095 37.9802C78.1195 38.1702 78.8295 37.5002 79.0395 36.1602C79.2095 35.0602 78.8495 33.7902 80.7195 33.5302C82.2795 33.3202 83.5495 32.8702 84.4895 34.6802C85.3395 36.3202 86.6695 36.3202 88.0595 35.2202C88.6495 34.7502 89.2495 34.2902 89.8695 33.8702C91.3695 32.8602 91.5495 31.7302 90.4095 30.2802C89.9495 29.6902 88.9395 29.1302 89.5095 28.1902C90.4095 26.7402 90.9995 24.8302 93.5195 25.6202C95.2195 26.1502 96.2495 25.2802 96.3595 23.4302C96.4095 22.6102 96.6195 21.8002 96.7295 20.9802C96.9495 19.4002 96.1996 18.5802 94.6496 18.3802V18.3702ZM77.9295 26.8602C73.9795 26.8602 70.4795 23.2102 70.5695 19.2002C70.6495 15.1802 73.9896 11.9402 78.0296 11.9702C82.1796 11.9902 85.4695 15.3002 85.4695 19.4602C85.4695 23.5502 82.0895 26.8802 77.9295 26.8702V26.8602Z" fill="#01B4E5"/>
<path d="M51.9795 88.7504C49.1995 81.3004 46.3995 73.8504 43.6295 66.3904C43.3595 65.6704 42.9795 65.3104 42.1495 65.3304C40.1095 65.3804 38.0695 65.3704 36.0395 65.3304C35.3095 65.3204 34.9395 65.6304 34.6995 66.2604C31.9495 73.5604 29.1895 80.8704 26.4295 88.1704C26.1995 88.7804 25.9995 89.3204 27.0395 89.3004C28.9295 89.2604 30.8195 89.2404 32.6995 89.3004C33.6695 89.3404 33.9295 88.6704 33.9695 88.0504C34.1695 85.3904 35.8195 85.0404 38.0095 85.2604C39.2795 85.3904 40.5795 85.3404 41.8595 85.2604C42.8595 85.2004 43.5495 85.5504 43.6095 86.5404C43.7495 89.2804 45.5095 89.4604 47.6495 89.3004C49.0695 89.1904 50.5095 89.2804 51.9195 89.2804C51.9495 89.0104 52.0295 88.8504 51.9795 88.7304V88.7504ZM40.3895 80.2004C39.1295 80.1804 37.8795 80.2004 36.3995 80.2004C37.2595 77.3904 38.0395 74.8304 39.0095 71.6204C39.9195 74.5304 40.6595 76.8504 41.3595 79.1804C41.6095 80.0204 41.0995 80.2104 40.3795 80.2004H40.3895Z" fill="#01B4E5"/>
<path d="M66.8398 65.3702C63.1398 65.2902 59.4398 65.4202 55.7398 65.3102C54.2798 65.2702 53.9798 65.7902 54.0098 67.1202C54.0898 70.5002 54.0398 73.8902 54.0398 77.2702V84.2702C54.0398 89.3102 54.0398 89.1902 59.0398 89.3602C61.1098 89.4302 61.7598 88.7802 61.4398 86.8602C61.3898 86.5702 61.4098 86.2602 61.4398 85.9602C61.5698 84.1802 60.6898 81.9502 61.7998 80.7302C62.8498 79.5802 65.0898 80.4102 66.7998 80.3102C71.6398 80.0402 74.4998 77.2302 74.4798 72.6502C74.4598 68.0702 71.7898 65.4802 66.8498 65.3802L66.8398 65.3702ZM63.2398 75.5802C60.6798 75.7402 61.5998 73.9402 61.4398 72.7502C61.1798 71.0902 61.3898 70.0102 63.5498 70.2002C65.9498 70.4102 67.2398 71.1902 67.2298 72.9102C67.2198 74.5802 65.7598 75.4302 63.2498 75.5802H63.2398Z" fill="#01B4E5"/>
<path d="M37.6895 53.5203C39.9395 52.2703 40.9895 50.5603 40.2895 48.2003C39.5695 45.8003 37.4895 45.5103 35.3695 45.4703C33.1795 45.4403 30.9895 45.5302 28.8095 45.4402C27.5795 45.3902 27.2795 45.8403 27.2995 46.9903C27.3595 50.6003 27.4195 54.2103 27.2795 57.8103C27.2095 59.5803 27.7295 60.0602 29.5095 60.0702C31.3295 60.0702 32.0795 59.7003 31.9195 57.7403C31.8195 56.5703 31.2295 54.5803 32.3195 54.2903C33.9995 53.8403 34.5095 55.9002 34.9595 57.1202C35.8695 59.6002 37.4695 60.4303 39.9495 60.0103C40.3795 59.9403 40.8295 59.9403 41.2795 59.9003C40.6395 57.5603 39.5695 55.6503 37.6995 53.5203H37.6895ZM33.1295 51.3403C31.6695 51.5403 31.9095 50.5503 31.8395 49.6603C31.7295 48.2503 32.6195 48.3103 33.7995 48.4003C34.5295 48.5603 35.9595 48.3203 35.8795 49.8103C35.7895 51.4703 34.2695 51.1903 33.1295 51.3403Z" fill="#01B4E5"/>
</svg>
