<svg width="101" height="101" viewBox="0 0 101 101" fill="none" xmlns="http://www.w3.org/2000/svg">
<path d="M50.54 100.38C78.1543 100.38 100.54 77.9941 100.54 50.3799C100.54 22.7656 78.1543 0.379883 50.54 0.379883C22.9258 0.379883 0.540039 22.7656 0.540039 50.3799C0.540039 77.9941 22.9258 100.38 50.54 100.38Z" fill="#8BC53F"/>
<mask id="mask0_769_5749" style="mask-type:luminance" maskUnits="userSpaceOnUse" x="0" y="0" width="101" height="101">
<path d="M50.54 100.38C78.1543 100.38 100.54 77.9941 100.54 50.3799C100.54 22.7656 78.1543 0.379883 50.54 0.379883C22.9258 0.379883 0.540039 22.7656 0.540039 50.3799C0.540039 77.9941 22.9258 100.38 50.54 100.38Z" fill="white"/>
</mask>
<g mask="url(#mask0_769_5749)">
<path d="M55.3695 100.38H45.6095C44.7395 99.9801 43.8196 100.24 42.9196 100.18C39.6196 99.9501 36.4896 99.0701 33.3896 97.9701C29.5196 96.5901 25.8295 94.8001 22.4395 92.5001C17.3495 89.0401 12.9695 84.8401 9.36954 79.8001C5.63954 74.5801 3.04955 68.8701 1.44955 62.6801C0.909554 60.6001 0.699534 58.4801 0.709534 56.3401C0.709534 55.9901 0.759531 55.6201 0.519531 55.3101V50.4301C1.10953 50.2601 1.22953 50.6701 1.35953 51.0901C3.24953 57.2401 10.6295 58.7301 15.0295 55.0101C15.4595 54.6501 15.7895 54.2101 16.0895 53.7501C16.6395 52.9101 17.2895 52.4901 18.4295 52.6201C20.8095 52.8801 23.1795 53.2201 25.5495 53.6101C26.2895 53.7301 27.0395 53.6301 27.7795 53.8201C29.1195 54.1601 29.7596 56.0501 28.7896 57.0401C28.0196 57.8301 27.1395 58.5101 26.3695 59.2901C25.1395 60.5401 23.7795 60.9801 22.0295 60.9401C20.0095 60.8901 18.1295 62.9201 17.9595 64.9701C17.7495 67.5201 18.6495 69.2601 20.6795 70.1901C23.3895 71.4301 26.4096 70.1601 27.4496 67.3501C27.5696 67.0101 27.6995 66.6801 27.7395 66.3201C27.8095 65.5801 27.8895 64.8501 28.3795 64.2501C29.4495 63.3101 30.5195 62.3601 31.5795 61.4001C32.3495 60.7001 32.7795 60.5701 33.6595 61.0601C35.1995 61.9401 36.8495 62.3201 38.6095 62.2601C39.3695 62.2301 39.8295 62.5101 40.2095 63.2301C41.2695 65.2401 42.1995 67.3201 43.2795 69.3201C43.7195 70.1301 43.7496 70.8701 43.1696 71.6701C41.8296 73.5301 41.3095 75.6101 41.5795 77.9301C41.9295 80.9801 44.4396 83.8801 47.4496 84.8201C51.3896 86.0501 55.3095 84.0301 56.9895 81.3501C58.7395 78.5601 58.8895 75.6201 57.3195 72.7401C55.7995 69.9401 53.3495 68.3201 50.1295 68.3501C48.5895 68.3701 47.8795 67.6701 47.3595 66.4701C46.5795 64.6801 45.6895 62.9501 44.8095 61.2101C44.4495 60.5101 44.4995 59.9901 45.0495 59.3801C46.7295 57.5101 47.7695 55.3301 47.6495 52.7601C47.5395 50.3501 46.8495 48.1001 44.9695 46.4801C43.5595 45.2601 43.1695 44.0801 43.8095 42.2301C44.7595 39.5101 45.5895 36.7401 46.3595 33.9601C46.6295 32.9901 47.2895 32.6201 48.2495 32.4301C51.3895 31.8201 53.5695 30.0001 54.7195 26.9901C55.1995 25.5601 55.3695 24.1001 55.0695 22.6101C54.3495 19.5401 52.5595 17.3401 49.5995 16.2401C44.7895 14.4501 39.8596 17.3701 38.6396 21.9401C38.3896 22.8601 37.9995 23.4601 36.9095 23.7201C33.4795 24.5601 30.0295 25.3701 26.6295 26.3201C25.3695 26.6701 24.4695 26.3501 23.5295 25.3601C18.8695 20.4301 11.4896 22.8201 9.41956 28.7201C7.82956 33.2501 11.5095 39.7701 17.7795 39.6301C18.6095 39.6101 19.3696 39.3201 20.1696 39.1701C20.8696 39.0401 21.4195 39.1601 21.9395 39.6801C24.4095 42.1701 26.8895 44.6601 29.3595 47.1501C29.7395 47.5301 29.9595 47.9401 29.7095 48.4601C29.4495 49.0101 28.9195 49.0201 28.4395 48.9201C25.7695 48.3901 23.0295 48.2901 20.3695 47.7001C20.1795 47.6601 19.9796 47.6201 19.7896 47.6401C18.3496 47.8501 17.7696 47.1101 17.3195 45.8101C16.0896 42.2701 12.8596 40.0601 9.13956 40.2401C6.07956 40.3801 3.72955 41.8801 2.09955 44.4801C2.00955 44.6201 1.95955 44.7801 1.87955 44.9101C1.67955 45.2301 1.55955 45.7201 1.06955 45.6301C0.49955 45.5201 0.749553 45.0001 0.729553 44.6501C0.639553 42.9101 0.929556 41.1901 1.16956 39.4701C2.49956 33.3301 4.92954 27.6401 8.39954 22.4401C11.8695 17.2301 16.2195 12.8301 21.3395 9.18012C25.7495 6.04012 30.5595 3.72012 35.7095 2.13012C38.5995 1.23012 41.5596 0.680122 44.6396 0.550122C47.4696 0.430122 50.2895 0.440122 53.1095 0.420122C58.1195 0.370122 62.9695 1.19012 67.6895 2.95012C73.0095 4.93012 77.8895 7.65012 82.2896 11.2301C87.5396 15.5101 91.7995 20.6401 95.0195 26.5901C97.2395 30.7001 98.8295 35.0601 99.8395 39.6201C100.16 41.0401 100.26 42.5001 100.36 43.9701C100.55 46.8101 100.54 49.6401 100.52 52.4801C100.5 55.2801 100.43 58.0801 99.8896 60.8401C99.7996 61.2901 99.6396 61.7301 99.6396 62.2001C98.8096 65.5201 97.6996 68.7301 96.2596 71.8301C94.6796 75.2301 92.7196 78.3901 90.4196 81.3501C88.2796 84.1101 85.9295 86.6601 83.2495 88.8901C80.2295 91.4101 77.0295 93.6601 73.4895 95.4401C69.8695 97.2601 66.1196 98.6501 62.1996 99.6401C61.7196 99.6801 61.2495 99.8201 60.7795 99.9001C59.2495 100.09 57.7295 100.28 56.1795 100.23C55.8895 100.23 55.5995 100.24 55.3495 100.42L55.3695 100.38Z" fill="#8BC53F"/>
<path d="M28.2193 66.3997C27.8693 68.8197 25.8793 70.8697 23.7493 71.0897C20.4393 71.4397 18.3093 69.8597 17.6293 67.4697C16.4193 63.2097 19.3693 59.9897 23.1693 60.2997C24.0793 60.3797 24.6693 60.1397 25.2893 59.5197C26.2293 58.5997 27.2593 57.7797 28.2793 56.9297C28.7593 56.5397 28.9793 56.0997 28.7493 55.4897C28.5293 54.9197 28.4693 54.3397 27.5693 54.2397C24.3493 53.8997 21.1393 53.4397 17.9293 52.9897C17.4093 52.9197 17.1693 53.1497 16.9093 53.5297C15.6993 55.3197 14.0893 56.5797 11.9793 57.1497C9.12931 57.9097 6.48928 57.5497 4.07928 55.7697C2.43928 54.5597 1.32929 52.9797 0.839294 50.9897C0.789294 50.7797 0.629297 50.5897 0.529297 50.3897C0.529297 46.8097 0.529297 43.2297 0.529297 39.6597C0.829297 39.3697 1.11931 39.0597 1.53931 39.4797C1.55931 40.8897 1.03931 42.2197 0.919312 43.6097C0.879312 44.1497 0.869301 44.6997 0.939301 45.2897C1.6393 44.1697 2.28931 43.0697 3.22931 42.1497C7.93931 37.5497 16.0893 39.6397 17.9293 45.9497C18.1593 46.7497 18.5193 47.0497 19.3993 47.1197C21.2393 47.2497 23.0793 47.4897 24.8893 47.8397C26.1393 48.0797 27.4193 47.9597 28.6393 48.3597C28.8593 48.4297 29.1893 48.5197 29.3593 48.2497C29.5693 47.9197 29.2793 47.7097 29.0793 47.5097C27.1193 45.5097 25.0793 43.5797 23.1993 41.5097C21.9193 40.1097 20.7393 38.8497 18.6693 40.0097C14.1693 40.5197 9.92929 37.6297 8.79929 33.1297C7.47929 27.8697 11.6093 22.0397 17.6593 22.1297C20.1293 22.1697 22.3893 23.0297 23.9393 24.9297C24.8793 26.0797 25.7293 25.9897 26.8493 25.6897C29.7593 24.9297 32.6593 24.1697 35.5793 23.4597C36.1693 23.3197 36.7293 23.0597 37.3593 23.0097C37.9893 22.9697 38.0093 22.2997 38.0993 21.8897C39.0093 17.7997 42.8993 14.9297 47.1093 15.1397C51.2093 15.3397 54.7493 18.1297 55.5393 22.4897C56.0493 24.0997 55.6193 25.6397 55.1793 27.1697C53.8593 30.4297 51.4593 32.3797 48.0093 32.9497C47.2793 33.0697 47.0093 33.4197 46.8393 33.9797C45.8593 37.1497 44.9093 40.3297 43.9393 43.5097C43.7493 44.1397 43.7793 44.6097 44.3893 45.1097C47.1093 47.3197 48.3793 50.2297 48.0993 53.7297C47.9293 55.9097 47.0993 57.8597 45.5593 59.4497C45.0593 59.9597 44.9393 60.3797 45.2893 61.0397C46.3193 63.0097 47.2793 65.0097 48.2593 66.9997C48.5193 67.5297 48.8693 67.7697 49.5393 67.7497C53.6293 67.6497 56.9093 69.7597 58.3193 73.6297C60.1793 78.7097 57.0793 84.1697 51.8493 85.4097C47.5093 86.4397 43.0193 83.6397 41.7293 80.3097C40.5093 77.1597 40.6993 74.1597 42.6993 71.3997C43.1793 70.7397 43.2093 70.2597 42.8393 69.5697C41.7793 67.5497 40.7593 65.4997 39.7693 63.4297C39.5093 62.8897 39.2093 62.6397 38.5893 62.6897C36.6193 62.8497 34.8193 62.2997 33.1193 61.3397C32.7693 61.1497 32.5293 61.0897 32.1893 61.4097C31.0893 62.4497 29.9393 63.4397 28.8093 64.4397C28.0993 64.9197 28.4693 65.7497 28.1893 66.3697L28.2193 66.3997Z" fill="#FEFEFE"/>
<path d="M85.6896 48.9302C85.2896 48.6502 85.3896 48.2802 85.2996 47.9902C84.7496 46.1702 83.5896 45.2302 81.6896 45.1502C80.6496 45.1102 79.6096 45.0602 78.5996 45.4302C77.2296 45.9302 76.4596 46.9602 76.4696 48.3302C76.4696 49.6202 77.1696 50.5402 78.5996 50.9802C80.2096 51.4702 81.8596 51.8002 83.4596 52.3102C85.6296 53.0002 86.3996 54.1902 86.1896 56.2802C86.0296 57.8602 84.4796 59.1302 82.6196 59.4702C80.6096 59.8402 78.7496 59.6902 77.0996 58.4402C76.0096 57.6102 75.5396 56.4102 75.4896 55.0602C75.4896 54.8802 75.4696 54.6302 75.7296 54.6102C75.9696 54.5902 76.0296 54.8002 76.0696 55.0002C76.0696 55.0302 76.0796 55.0602 76.0896 55.1002C76.2296 56.8302 76.9696 58.1902 78.6896 58.7202C80.5996 59.3002 82.5796 59.3702 84.3396 58.3002C85.4096 57.6502 85.9896 56.5302 85.7396 55.2102C85.4896 53.9202 84.5896 53.1802 83.3696 52.7802C81.7096 52.2402 79.9496 52.1002 78.3096 51.4502C76.6196 50.7802 75.7896 49.6702 75.8796 48.1202C75.9796 46.5102 77.0496 45.1502 78.6896 44.8102C80.5396 44.4202 82.4096 44.3002 84.1196 45.3502C85.4096 46.1402 86.0296 47.5702 85.6896 48.9302Z" fill="#FEFEFE"/>
<path d="M63.7091 52.0905C63.7091 50.0105 63.7291 47.9305 63.7091 45.8505C63.7091 45.1405 63.8791 44.7805 64.6891 44.7905C67.2191 44.8305 69.7592 44.7905 72.2892 44.8105C72.5692 44.8105 73.0592 44.6505 73.0392 45.1505C73.0192 45.5405 72.5792 45.4005 72.3192 45.4005C69.9192 45.4105 67.5091 45.4305 65.1091 45.4005C64.4091 45.4005 64.1292 45.5705 64.1692 46.3305C64.2292 47.7205 64.2392 49.1305 64.1692 50.5205C64.1292 51.3405 64.4691 51.4905 65.1891 51.4805C67.1991 51.4505 69.2192 51.4705 71.2292 51.4705C71.4592 51.4705 71.6791 51.4705 71.9091 51.4705C72.1391 51.4705 72.4292 51.4705 72.4492 51.7605C72.4792 52.1705 72.1091 52.0805 71.8791 52.0805C69.6991 52.0905 67.5192 52.1405 65.3492 52.0805C64.3992 52.0505 64.1192 52.3505 64.1692 53.2805C64.2492 54.8005 64.2292 56.3305 64.1692 57.8605C64.1392 58.6105 64.4091 58.8005 65.1191 58.7805C67.3891 58.7405 69.6691 58.7705 71.9391 58.7705C72.1991 58.7705 72.4591 58.7705 72.7191 58.7905C72.8691 58.8005 73.0691 58.7905 73.0791 59.0105C73.0891 59.2605 72.9092 59.3305 72.6992 59.3505C72.5092 59.3605 72.3091 59.3605 72.1191 59.3605C69.7191 59.3605 67.3091 59.3205 64.9091 59.3805C63.9291 59.4105 63.6891 59.0405 63.7091 58.1305C63.7591 56.1205 63.7292 54.1005 63.7292 52.0905H63.7091Z" fill="#FEFEFE"/>
<path d="M50.4895 52.7605C50.4895 54.6405 50.4995 56.5305 50.4895 58.4105C50.4895 58.6705 50.6295 59.1105 50.2495 59.1405C49.8495 59.1805 49.8995 58.7405 49.8995 58.4705C49.8995 54.2105 49.8995 49.9605 49.8995 45.7005C49.8995 45.1305 50.1095 44.7605 50.7595 44.7805C52.7995 44.8505 54.8495 44.6305 56.8795 44.9605C59.5395 45.4005 60.6195 46.8405 60.2195 49.5205C60.1795 49.8105 60.0895 50.0905 60.0295 50.3705C59.8595 51.7705 59.2295 52.2805 57.2795 52.5405C55.3795 52.2505 53.4695 52.4005 51.5695 52.3505C51.1995 52.3505 50.7895 52.4805 50.4795 52.1305C50.6695 51.4705 51.2295 51.5005 51.7295 51.4905C53.1895 51.4505 54.6495 51.5105 56.1095 51.4605C57.4195 51.4205 58.4295 50.8605 58.9495 49.6105C59.6295 47.9605 58.8295 46.4205 57.0995 46.0205C55.4295 45.6405 53.7395 45.8205 52.0495 45.8405C51.2895 45.8505 50.9895 46.3605 50.9695 47.0805C50.9495 48.1805 50.9695 49.2905 50.9495 50.3905C50.9495 50.8405 51.0095 51.3105 50.7195 51.7105C50.3395 51.9805 50.4095 52.3605 50.4695 52.7405L50.4895 52.7605Z" fill="#FEFEFE"/>
<path d="M93.6294 59.2305C93.2794 58.8305 93.3894 58.4605 93.3894 58.1105C93.3894 54.2705 93.3494 50.4405 93.4094 46.6005C93.4294 45.5705 93.0694 45.3005 92.1294 45.3705C91.1294 45.4405 90.1194 45.3905 89.1094 45.3705C88.9094 45.3705 88.5894 45.4805 88.5594 45.1505C88.5294 44.8505 88.7994 44.8105 89.0394 44.8105C92.0994 44.8105 95.1494 44.8105 98.2094 44.8105C98.4494 44.8105 98.7194 44.8405 98.6894 45.1505C98.6594 45.4705 98.3394 45.3705 98.1394 45.3705C96.9994 45.3805 95.8594 45.4205 94.7294 45.3705C93.9894 45.3405 93.7994 45.6105 93.8094 46.3205C93.8394 50.2905 93.8294 54.2505 93.8194 58.2205C93.8194 58.5305 93.8994 58.8605 93.6294 59.2305Z" fill="#FEFEFE"/>
<path d="M57.5391 52.3596C58.5291 51.8996 59.4391 51.3496 60.0291 50.3896C60.1491 50.6496 60.4191 50.9796 60.2591 51.1996C59.4291 52.2696 60.239 53.0996 60.619 53.9896C60.789 54.3996 60.8991 54.7996 60.5991 55.1696C60.0291 55.8796 60.3491 56.7297 60.2291 57.5097C59.8091 57.4497 59.8491 57.1697 59.8091 56.8297C59.7491 56.3597 59.7391 55.8796 59.7291 55.4196C59.6991 54.0196 59.009 53.1296 57.799 52.5696C57.689 52.5396 57.609 52.4696 57.549 52.3796L57.5391 52.3596Z" fill="#8CC53F"/>
<path d="M57.7097 52.3896C59.0697 52.6896 59.7398 53.3796 59.9098 54.6996C60.0298 55.6296 60.1198 56.5596 60.2298 57.4996C60.0998 58.0496 60.3698 58.6396 60.0998 59.2796C59.5598 58.7796 59.4997 58.2096 59.4897 57.6396C59.4597 56.7996 59.4798 55.9496 59.4498 55.1096C59.4198 54.0296 58.6798 53.3996 57.9198 52.7896C57.8298 52.6696 57.6198 52.6096 57.7198 52.3896H57.7097Z" fill="#FEFEFE"/>
<path d="M57.7095 52.3905C57.7795 52.5205 57.8395 52.6605 57.9095 52.7905C55.4395 52.6005 52.9595 52.5005 50.4895 52.7505C50.2395 52.4905 50.1195 52.2405 50.4895 51.9805C50.8795 52.3105 51.3495 52.1705 51.7795 52.1905C53.6995 52.2805 55.6295 52.0205 57.5395 52.3505C57.5995 52.3505 57.6495 52.3705 57.7095 52.3905Z" fill="#F8FBF5"/>
<path d="M55.1895 27.2005C55.5095 25.6505 55.7694 24.1005 55.5494 22.5205C56.2294 24.1405 55.8595 25.6805 55.1895 27.2005Z" fill="#B4D983"/>
<path d="M28.2198 66.3997C28.1598 65.6697 27.9398 64.8897 28.8398 64.4697C28.3998 65.0397 28.4898 65.7697 28.2198 66.3997Z" fill="#BFDF96"/>
<path d="M99.4496 60.75C99.5496 61.27 99.3696 61.72 99.1096 62.14C99.0396 61.63 99.0296 61.14 99.4496 60.75Z" fill="#B9DC8B"/>
<path d="M62.2191 99.03C61.7891 99.29 61.3391 99.48 60.8291 99.37C61.2191 98.95 61.7091 98.96 62.2191 99.03Z" fill="#B9DC8B"/>
<path d="M38.8398 28.9197C39.1498 28.8597 39.2998 29.1297 39.4498 29.2997C39.9898 29.9297 40.4298 30.6497 41.0998 31.1697C41.4198 31.4197 41.2898 31.6997 41.1898 32.0397C40.1598 35.4297 39.1598 38.8297 38.1298 42.2197C37.9998 42.6397 37.8098 43.0697 37.2198 43.0697C36.2998 43.0697 35.4398 43.3797 34.5898 43.6697C34.0598 43.8497 33.7798 43.7597 33.4098 43.3797C30.9398 40.8297 28.4498 38.2897 25.9598 35.7697C25.5998 35.3997 25.4198 35.0997 25.7898 34.6197C25.9798 34.3797 26.0998 34.0197 26.1098 33.7097C26.1598 32.2597 27.0598 31.8297 28.3298 31.5497C31.7598 30.7797 35.1598 29.8897 38.5698 29.0497C38.6598 29.0297 38.7498 28.9697 38.8498 28.9197H38.8398Z" fill="#8BC53F"/>
<path d="M50.4892 51.9906C50.4892 50.1006 50.5392 48.2206 50.4892 46.3306C50.4692 45.5606 50.7792 45.4006 51.4592 45.4106C53.0492 45.4506 54.6492 45.4106 56.2392 45.4306C58.7692 45.4706 59.6992 46.6006 59.7592 48.5406C59.8192 50.4706 58.5392 51.8906 56.2492 51.9906C54.3392 52.0806 52.4192 51.9906 50.4992 51.9906H50.4892Z" fill="#8CC53F"/>
</g>
</svg>
