<svg width="89" height="100" viewBox="0 0 89 100" fill="none" xmlns="http://www.w3.org/2000/svg">
<path d="M57.28 100C57.52 98.9303 57.37 97.8403 57.49 96.7603C57.64 95.3503 57.58 93.9203 57.66 92.5003C57.81 89.8303 57.94 87.1703 58.05 84.5003C58.12 82.8803 58.21 81.2503 58.29 79.6303C58.42 76.9803 58.5701 74.3403 58.6801 71.6903C58.7501 70.0703 58.84 68.4403 58.92 66.8203C59.05 64.1303 59.2001 61.4403 59.3101 58.7503C59.3801 57.1003 59.4801 55.4603 59.5601 53.8103C59.6801 51.2303 59.8299 48.6403 59.9399 46.0603C60.0099 44.3903 60.1099 42.7303 60.1899 41.0603C60.3199 38.4103 60.4599 35.7703 60.5699 33.1203C60.6399 31.4503 60.7399 29.7903 60.8199 28.1203C60.9499 25.5203 61.08 22.9103 61.2 20.3103C61.27 18.6203 61.34 16.9303 61.46 15.2503C61.54 14.1103 61.4301 12.9503 61.6801 11.8203C62.1101 11.8403 62.4099 12.0903 62.6899 12.3803C64.3899 14.0903 66.11 15.7803 67.79 17.5003C68.18 17.9003 68.59 18.0803 69.15 18.1103C71.49 18.2403 73.82 18.4203 76.16 18.6103C76.98 18.6803 77.27 19.0303 77.38 19.8503C77.8 22.8503 78.2499 25.8403 78.6899 28.8403C79.1299 31.8403 79.58 34.8303 80.02 37.8303C80.47 40.8503 80.91 43.8603 81.35 46.8803C81.79 49.8303 82.22 52.7903 82.65 55.7403C83.09 58.7603 83.54 61.7703 83.98 64.7903C84.42 67.7903 84.85 70.7803 85.29 73.7803C85.77 77.0603 86.27 80.3503 86.76 83.6303C87.22 86.7703 87.67 89.9103 88.15 93.0503C88.21 93.4603 87.94 93.4503 87.72 93.5003C85.36 94.0203 82.99 94.5203 80.62 95.0303C73.18 96.6403 65.74 98.2503 58.3 99.8603C57.96 99.9303 57.61 99.9803 57.27 100.03L57.28 100Z" fill="#5E8D3E"/>
<path d="M61.6702 11.81C61.1002 11.71 60.5401 11.79 60.0001 11.96C59.2801 12.18 58.5501 12.37 57.8501 12.65C57.3701 12.84 57.2102 12.69 57.0602 12.25C56.5102 10.67 55.7901 9.15002 54.8601 7.75002C53.0001 4.97002 50.5702 3.06002 47.0602 2.99002C46.5202 2.98002 46.1801 2.79002 45.8501 2.41002C44.6201 1.00002 43.1001 0.0500234 41.1901 2.33883e-05C38.7601 -0.0599766 36.4702 0.570023 34.3102 1.69002C31.4802 3.16002 29.2502 5.32002 27.3902 7.87002C23.9202 12.61 21.7502 17.96 20.3102 23.63C20.1802 24.13 20.0001 24.39 19.4801 24.55C16.3001 25.51 13.1401 26.54 9.96011 27.5C8.75011 27.87 8.13012 28.6 7.97012 29.86C7.53012 33.39 7.0501 36.91 6.5801 40.43C6.0501 44.45 5.51014 48.47 4.99014 52.5C4.47014 56.52 3.9602 60.55 3.4302 64.57C2.9102 68.59 2.37012 72.61 1.85012 76.64C1.33012 80.66 0.830166 84.69 0.270166 88.71C0.190166 89.26 0.330205 89.39 0.810205 89.48C2.50021 89.77 4.18014 90.09 5.87014 90.4C12.7301 91.69 19.6001 92.98 26.4601 94.26C33.2601 95.53 40.0601 96.8 46.8701 98.07C50.3401 98.72 53.8102 99.36 57.2902 100.01C57.5502 99.78 57.5801 99.46 57.5901 99.15C57.7201 95.7 57.9101 92.26 58.0801 88.81C58.2101 86.24 58.3401 83.67 58.4601 81.1C58.6201 77.67 58.7901 74.25 58.9701 70.82C59.1001 68.25 59.2201 65.68 59.3401 63.11C59.5101 59.64 59.6901 56.18 59.8401 52.71C59.9701 49.7 60.1702 46.7 60.2602 43.68C60.2902 42.74 60.3202 41.8 60.3902 40.86C60.5502 38.67 60.6301 36.47 60.7301 34.28C60.8301 32.19 60.9102 30.1 61.0302 28.01C61.1902 25.09 61.3301 22.16 61.4801 19.24C61.6001 16.96 61.7402 14.69 61.8002 12.41C61.8002 12.2 61.8501 11.99 61.6901 11.81H61.6702ZM32.1101 20.13C32.0501 20.45 31.9501 20.68 31.5701 20.79C29.2901 21.46 27.0101 22.17 24.7301 22.87C24.5801 22.92 24.4002 23.06 24.2602 22.94C24.1102 22.81 24.2202 22.63 24.2702 22.47C25.7602 17.72 27.6501 13.15 30.7401 9.17002C32.4701 6.94002 34.5201 5.08002 37.2201 4.09002C38.3901 3.66002 39.5901 3.44002 40.8501 3.47002C41.3901 3.48002 41.8601 3.66002 42.3801 3.99002C37.3701 6.64002 34.8302 11.04 33.1402 16.07C32.6902 17.4 32.3401 18.75 32.1001 20.14L32.1101 20.13ZM44.8902 16.66C42.1202 17.54 39.3402 18.37 36.5602 19.22C36.4002 19.27 36.2201 19.41 36.0901 19.3C35.9101 19.15 36.0801 18.95 36.1201 18.78C37.1401 15.12 38.6902 11.76 41.5202 9.10002C42.2902 8.38002 43.1701 7.83002 44.0801 7.30002C44.5201 7.04002 44.6702 7.18002 44.8102 7.62002C45.3902 9.40002 45.6702 11.23 45.8102 13.09C45.8602 13.8 45.8802 14.51 45.9102 15.13C45.9002 16.58 46.1301 16.25 44.8801 16.65L44.8902 16.66ZM53.8801 13.87C52.4602 14.3 51.0401 14.74 49.6201 15.17C49.6001 15.17 49.5802 15.17 49.5202 15.18C49.1802 15.14 49.3301 14.84 49.3301 14.65C49.2801 12.79 49.2201 10.93 48.8501 9.09002C48.7001 8.37002 48.5001 7.67002 48.3301 6.96002C48.3001 6.82002 48.1602 6.68002 48.2702 6.55002C48.4002 6.41002 48.5801 6.50002 48.7401 6.55002C49.8501 6.87002 50.7102 7.56002 51.4302 8.42002C52.6602 9.91002 53.3902 11.67 54.0202 13.47C54.0802 13.65 54.1101 13.78 53.8801 13.85V13.87Z" fill="#94BE46"/>
<path d="M38.7702 34.28C41.4302 34.25 43.8601 34.55 46.2001 35.46C46.7301 35.67 46.7701 35.9 46.6001 36.39C45.4501 39.75 44.3201 43.12 43.2101 46.5C43.0701 46.93 42.9301 47.05 42.4801 46.85C39.9001 45.69 37.2001 45.14 34.3601 45.36C33.6501 45.41 32.9602 45.57 32.2802 45.81C29.4602 46.8 27.9301 50.28 30.7401 52.94C31.9001 54.04 33.1901 54.97 34.4801 55.9C36.3501 57.25 38.1201 58.72 39.6001 60.51C41.5801 62.9 42.5901 65.65 42.7101 68.75C42.8501 72.15 42.2201 75.38 40.4701 78.32C38.2301 82.09 34.9102 84.33 30.5602 84.83C24.5302 85.53 19.1901 83.84 14.5901 79.83C13.9301 79.25 13.7202 78.74 14.0202 77.86C14.8002 75.54 15.4702 73.19 16.1602 70.84C16.3102 70.34 16.4401 70.32 16.8401 70.63C19.0001 72.32 21.2901 73.76 23.9901 74.43C24.8101 74.64 25.6401 74.73 26.4801 74.6C28.9601 74.22 30.2902 72.1 29.6602 69.52C29.3702 68.33 28.7301 67.33 27.8801 66.46C26.6301 65.19 25.1801 64.14 23.8401 62.98C22.0801 61.46 20.5202 59.78 19.6602 57.57C18.5702 54.77 18.5201 51.89 19.1001 48.98C20.5901 41.44 26.1102 36.37 33.5602 34.8C35.3302 34.43 37.1101 34.23 38.7501 34.28H38.7702Z" fill="#FEFEFE"/>
</svg>
