<svg width="101" height="91" viewBox="0 0 101 91" fill="none" xmlns="http://www.w3.org/2000/svg">
<path d="M98.8095 38.8202C92.5695 28.0202 86.3895 17.1902 80.1695 6.37019C77.7295 2.13019 73.9695 0.130194 69.1395 0.0901937C63.0395 0.0401937 56.9395 0.0801935 50.8395 0.0801935C44.5795 0.0801935 38.3295 0.0201939 32.0695 0.100194C27.3495 0.160194 23.6395 2.16019 21.2495 6.32019C15.0295 17.1302 8.84952 27.9702 2.60952 38.7602C0.0295192 43.2202 0.059518 47.5802 2.63952 52.0302C8.80952 62.6902 14.9295 73.3802 21.0295 84.0802C23.5495 88.5002 27.3295 90.6502 32.3595 90.6602C44.5595 90.6802 56.7595 90.6802 68.9595 90.6602C73.9895 90.6602 77.7995 88.5402 80.3195 84.1302C86.4295 73.4302 92.5395 62.7402 98.7195 52.0802C101.3 47.6302 101.38 43.2802 98.7995 38.8102L98.8095 38.8202ZM46.4695 19.8902C46.4995 17.0102 48.2695 15.1302 50.5995 15.1902C52.9995 15.2602 54.5295 17.1102 54.5495 20.0402C54.5695 23.8602 54.5495 27.6802 54.5495 31.5002C54.5495 35.3202 54.5795 39.1402 54.5495 42.9602C54.5195 45.7002 52.9295 47.5802 50.6795 47.6702C48.3195 47.7602 46.4895 45.8802 46.4695 43.0402C46.4095 35.3202 46.4095 27.6102 46.4695 19.8902ZM76.1495 53.5102C72.0995 64.1102 61.9095 71.1802 50.6295 71.2402C39.0095 71.2902 28.6795 63.9802 24.6495 52.8402C20.7495 42.0702 24.2795 29.4402 33.2195 22.1802C35.4995 20.3302 37.5595 20.2802 38.9895 22.0402C40.3695 23.7402 39.8995 25.8402 37.7395 27.6702C30.8795 33.4502 28.3795 42.5602 31.4195 50.7102C34.4595 58.8602 42.0895 64.1402 50.7495 64.0802C59.1095 64.0202 66.6395 58.6902 69.6095 50.7102C72.5395 42.8502 70.1595 33.6002 63.8195 28.1202C60.9795 25.6702 60.4295 23.7102 62.0495 21.9002C63.7395 20.0102 65.6995 20.2902 68.5395 22.8202C77.2595 30.6002 80.2695 42.7202 76.1495 53.5202V53.5102Z" fill="#6DB23F"/>
</svg>
