<svg width="101" height="70" viewBox="0 0 101 70" fill="none" xmlns="http://www.w3.org/2000/svg">
<path d="M33.4897 56.3204C31.8497 58.4004 28.6097 55.7704 30.3197 53.7404C31.9597 51.6604 35.1997 54.2904 33.4897 56.3204ZM65.9897 49.1504C58.8897 58.0104 45.9197 53.5204 36.4997 55.0604C49.4697 51.5304 60.8397 46.0604 63.8297 32.3804C60.0897 44.7104 43.1397 50.6304 33.8397 51.7704C27.6797 49.1004 27.4497 36.3904 38.0297 32.3104C48.7797 29.8304 59.2397 31.9704 65.8397 19.9404C68.6297 28.2104 71.9797 41.1504 65.9697 49.1904L65.9897 49.1604V49.1504Z" fill="#6DB33F"/>
<path d="M77.8296 69.03H25.2196C-5.63044 69.17 -9.04043 23.04 21.4396 18.59C37.0496 -7.54002 75.6396 -3.98002 85.8396 25.02C109.04 33.73 102.69 69.22 77.8296 69.03ZM52.1796 5.83998C41.2596 5.38998 30.9296 13.07 25.5596 21.6C24.9796 22.63 23.9996 23.4 22.8096 23.54C-2.05044 26.42 0.199558 64.03 25.2296 63.92H77.8296C96.9096 64.11 102 36.93 84.3896 29.93C79.9396 28.38 80.5696 22.49 77.3796 19.52C71.5996 11.37 62.3496 5.64998 52.1696 5.83998H52.1796Z" fill="#6DB33F"/>
</svg>
