<svg width="74" height="100" viewBox="0 0 74 100" fill="none" xmlns="http://www.w3.org/2000/svg">
<path d="M72.84 7.69973C31.53 -2.57027 41.77 -2.56027 0.55002 7.69973V35.5197H19.73C19.56 36.8497 19.56 38.1997 19.73 39.5297H0.55002C-4.56998 77.1997 27.44 95.3097 36.67 99.9897C46.19 95.1697 77.89 77.0097 72.79 39.5397H53.66C53.84 38.2097 53.84 36.8597 53.66 35.5297H72.84V7.69973ZM36.67 50.6097C19.49 50.2797 19.55 24.7297 36.72 24.4697C53.9 24.7997 53.84 50.3497 36.67 50.6097Z" fill="#6BB344"/>
<path d="M36.6696 31.3397C33.1996 31.2297 32.0096 36.2497 35.1196 37.7297V38.6097L36.1196 39.6097V40.2797L36.7896 40.9497V41.6197L36.1996 42.2097L36.8296 43.2497V43.9197L36.1596 44.7197L37.0996 45.6597L38.1396 44.6197V37.8197C41.4296 36.4297 40.2396 31.2097 36.6796 31.3597L36.6696 31.3397ZM36.6696 34.8597C35.0396 34.8797 35.0396 32.3197 36.6696 32.3497C38.2996 32.3297 38.2996 34.8897 36.6696 34.8597Z" fill="#6BB344"/>
</svg>
