<svg width="101" height="125" viewBox="0 0 101 125" fill="none" xmlns="http://www.w3.org/2000/svg">
<path d="M49.9501 87.0899C25.3201 87.0899 14.59 85.0599 0.0400391 81.6699V119.32L0.720032 119.49C14.75 122.91 25.3601 124.9 49.9401 124.9C74.5201 124.9 85.3201 122.86 99.3401 119.45L100.03 119.28V81.6299C85.5301 85.0399 74.7001 87.0899 49.9401 87.0899H49.9501Z" fill="#6DB33F"/>
<path d="M49.9498 0C25.3698 0 14.7598 2.02 0.729797 5.41L0.0498047 5.58V45.35C14.5898 41.93 25.3198 39.93 49.9598 39.93C74.5998 39.93 85.5498 41.97 100.05 45.4V5.62L99.3598 5.45C85.3398 2.04 74.6698 0 49.9598 0H49.9498Z" fill="#6DB33F"/>
<path d="M100.05 47.5499L99.36 47.3799C85.34 43.9699 74.6701 41.9199 49.9601 41.9199C25.2501 41.9199 14.7701 43.9499 0.740051 47.3299L0.0600586 47.4999V79.5199L0.740051 79.6799C14.7701 83.0999 25.3801 85.0999 49.9601 85.0999C74.5401 85.0999 85.34 83.0599 99.36 79.6399L100.05 79.4699V47.5599V47.5499Z" fill="#6DB33F"/>
</svg>
