<svg width="59" height="101" viewBox="0 0 59 101" fill="none" xmlns="http://www.w3.org/2000/svg">
<path d="M30.7297 0.0703125C31.0197 0.130312 31.3098 0.240313 31.5998 0.250313C36.8898 0.410313 42.0597 1.20031 46.9797 3.20031C49.1597 4.08031 51.1997 5.22031 52.8097 7.00031C54.0097 8.33031 54.7098 9.84031 54.7098 11.6803C54.6998 19.0103 54.7098 26.3503 54.7098 33.6803C54.7098 39.2603 54.6097 44.8303 54.7497 50.4103C54.8397 53.8303 53.2997 56.1703 50.6197 57.9703C47.6597 59.9603 44.3198 61.0003 40.8798 61.7503C37.7198 62.4303 34.5197 62.7403 31.2897 62.8603C25.4797 63.0903 19.7798 62.5203 14.2098 60.8203C11.1998 59.9003 8.34976 58.6303 6.06976 56.3503C4.63976 54.9103 3.88975 53.1803 3.88975 51.1603C3.88975 38.0203 3.86975 24.8803 3.88975 11.7403C3.88975 9.01031 5.38974 7.05031 7.47974 5.51031C10.1397 3.55031 13.1998 2.46031 16.3798 1.67031C19.8398 0.810313 23.3497 0.330313 26.9197 0.260313C27.3697 0.260313 27.8198 0.140313 28.2698 0.0703125C29.0898 0.0703125 29.8997 0.0703125 30.7197 0.0703125H30.7297ZM29.2797 4.53031C27.8297 4.60031 26.3798 4.64031 24.9398 4.74031C21.2498 4.99031 17.6298 5.61031 14.1598 6.91031C12.3198 7.59031 10.5297 8.40031 9.14974 9.87031C8.06974 11.0103 8.03975 12.1403 9.19975 13.1903C10.0197 13.9303 10.9397 14.6203 11.9297 15.1103C16.8497 17.5703 22.1897 18.2103 27.5897 18.4403C29.3597 18.5203 31.1497 18.3803 32.9297 18.3103C36.7797 18.1603 40.5397 17.4903 44.1898 16.2303C45.9697 15.6103 47.6697 14.8103 49.1397 13.5903C50.7297 12.2603 50.7698 10.8603 49.2398 9.49031C49.1498 9.41031 49.0397 9.33031 48.9398 9.25031C47.3498 7.97031 45.4997 7.19031 43.5897 6.57031C38.9497 5.06031 34.1697 4.53031 29.3097 4.52031L29.2797 4.53031ZM8.35975 31.8303C8.35975 32.2203 8.35975 32.4603 8.35975 32.7103C8.35975 34.6203 8.38975 36.5303 8.33975 38.4403C8.31975 39.3103 8.57975 40.0403 9.23975 40.5203C10.3398 41.3303 11.4398 42.1903 12.6598 42.7603C16.7698 44.6703 21.1897 45.3303 25.6697 45.6603C29.0197 45.9003 32.3697 45.7903 35.7197 45.3903C38.9598 45.0103 42.1598 44.4203 45.1598 43.1403C46.6098 42.5203 47.9598 41.6203 49.2698 40.7203C50.0698 40.1703 50.4198 39.3003 50.3798 38.2603C50.3198 36.4303 50.3697 34.5903 50.3597 32.7603C50.3597 32.5003 50.3297 32.2303 50.3097 31.8503C43.7197 35.5603 36.6098 36.4903 29.3798 36.4903C22.1198 36.4903 14.9897 35.5703 8.36974 31.8403L8.35975 31.8303ZM8.35975 18.2003C8.35975 20.1503 8.49976 21.9403 8.31976 23.7003C8.09976 25.8203 9.04975 27.1303 10.7497 28.1103C11.2997 28.4303 11.8397 28.7603 12.4197 29.0203C17.0897 31.1703 22.0697 31.9203 27.1497 32.0403C29.8897 32.1103 32.6297 31.9103 35.3697 31.7503C38.2397 31.5803 41.0397 30.9503 43.7597 30.0403C45.7897 29.3603 47.7897 28.5603 49.3298 27.0003C49.7998 26.5203 50.2797 25.8203 50.3097 25.1903C50.4297 23.0103 50.3598 20.8103 50.3498 18.6303C50.3498 18.5203 50.2997 18.4003 50.2597 18.2403C43.7097 21.8103 36.6597 22.7903 29.3997 22.8003C22.1097 22.8003 15.0297 21.8403 8.35975 18.2003ZM50.3597 45.4703C43.7097 49.1503 36.6097 50.1103 29.3397 50.1103C22.0697 50.1103 14.9697 49.1403 8.35975 45.4803C8.35975 47.4803 8.38975 49.3603 8.34975 51.2303C8.32975 52.0303 8.61975 52.6503 9.13975 53.2203C10.2097 54.3603 11.5397 55.1003 12.9497 55.7003C17.4297 57.6103 22.1697 58.2903 26.9797 58.4903C30.2297 58.6203 33.4797 58.5203 36.7197 58.0603C39.6198 57.6503 42.4598 57.0403 45.1898 55.9303C46.7498 55.3003 48.2497 54.5503 49.4697 53.3503C50.0697 52.7503 50.4098 52.0603 50.3798 51.1703C50.3398 49.8703 50.3697 48.5703 50.3697 47.2703C50.3697 46.7203 50.3697 46.1703 50.3697 45.4703H50.3597Z" fill="#DB7533"/>
<path d="M27.6096 96.3202C26.0196 95.8402 24.6796 95.1302 23.4796 94.1902C19.6496 91.2202 17.8296 87.3102 18.2896 82.4702C18.5896 79.3502 19.8596 76.6702 22.1296 74.4002C25.0496 71.4902 28.5296 70.5002 32.5296 70.7702C38.1496 71.1502 42.3496 75.0402 43.5396 80.2702C44.8396 85.9702 43.3796 91.4402 38.5196 94.9902C37.3996 95.8102 35.9996 96.2802 34.6796 96.7802C34.1696 96.9802 33.9896 97.1602 34.0096 97.6702C34.0396 98.2502 33.9996 98.8402 34.0196 99.4302C34.0396 99.8802 33.8796 100.07 33.3996 100.07C32.2796 100.05 31.1596 100.05 30.0396 100.07C29.5296 100.08 29.3896 99.8702 29.3896 99.3902C29.4096 95.8502 29.4096 92.3102 29.3896 88.7702C29.3896 88.2602 29.5196 88.0202 30.0696 88.0302C31.0596 88.0602 32.0596 88.0502 33.0496 88.0302C33.5396 88.0302 33.7396 88.2002 33.7196 88.7002C33.6896 89.3402 33.7096 89.9702 33.7196 90.6102C33.7196 91.4202 33.8396 91.5202 34.6196 91.2502C35.9696 90.7802 36.8396 89.7502 37.5396 88.5802C39.7996 84.8102 38.9296 79.7802 35.5396 76.9802C33.5096 75.3002 31.2296 75.0402 28.8096 75.9202C24.5996 77.4502 22.2196 83.1902 24.1196 87.2102C24.7596 88.5702 25.7096 89.7002 26.9996 90.4902C27.4396 90.7602 27.6196 91.0702 27.6096 91.6002C27.5696 93.1402 27.5996 94.6902 27.5996 96.3302L27.6096 96.3202Z" fill="#DB7533"/>
<path d="M14.6897 75.4398C12.8797 75.4398 11.1597 75.3998 9.43973 75.4498C8.55973 75.4798 7.65973 75.5698 6.79973 75.7798C5.06973 76.2198 4.78973 77.3498 6.07973 78.5698C6.92973 79.3698 7.85973 80.0798 8.76973 80.8198C10.7197 82.3998 12.8197 83.8299 14.2697 85.9398C15.4597 87.6698 16.0897 89.5299 15.4397 91.6199C14.6197 94.2499 12.5897 95.5299 10.0797 96.1898C9.44973 96.3498 8.76972 96.3798 8.11972 96.3898C5.79972 96.4098 3.48973 96.3899 1.16973 96.4099C0.609726 96.4099 0.339723 96.3099 0.369723 95.6599C0.419723 94.5399 0.399723 93.4199 0.369723 92.2999C0.349723 91.7099 0.589728 91.5598 1.13973 91.5798C3.11973 91.6598 5.09973 91.7399 7.07973 91.7299C7.87973 91.7299 8.69973 91.5898 9.46973 91.3699C10.6697 91.0198 10.9697 90.2398 10.1497 89.3298C9.06972 88.1298 7.82972 87.0598 6.61972 85.9898C4.91972 84.4898 3.12972 83.0998 1.86972 81.1698C0.789723 79.5198 0.149721 77.7499 0.179721 75.7299C0.199721 74.3299 0.779723 73.2798 1.86972 72.4898C3.04972 71.6298 4.39973 71.1598 5.84973 71.1298C8.51973 71.0798 11.1997 71.1198 13.8697 71.0898C14.4997 71.0898 14.7097 71.3098 14.6897 71.9298C14.6497 73.1198 14.6797 74.3098 14.6797 75.4298L14.6897 75.4398Z" fill="#DB7533"/>
<path d="M46.7196 71.1104C48.3196 71.1104 49.8396 71.1104 51.3596 71.1104C51.9596 71.1104 51.8896 71.5304 51.8896 71.9104C51.8896 75.0204 51.8896 78.1204 51.8896 81.2304C51.8896 83.4204 51.8896 85.6104 51.8996 87.8004C51.9196 89.6804 52.9996 90.8404 54.8696 91.0004C55.8296 91.0804 56.7896 91.1304 57.7596 91.1404C58.2296 91.1404 58.4796 91.2603 58.4696 91.7803C58.4496 93.0504 58.4596 94.3303 58.4596 95.6003C58.4596 96.1503 58.2596 96.4104 57.6396 96.3904C55.7796 96.3503 53.9196 96.3804 52.0596 96.3704C49.6696 96.3704 47.9796 95.2404 47.1596 93.0004C46.8896 92.2504 46.7096 91.4303 46.7096 90.6303C46.6696 84.3403 46.6896 78.0503 46.6896 71.7703C46.6896 71.5903 46.7096 71.4204 46.7196 71.1104Z" fill="#DB7533"/>
</svg>
