<svg width="101" height="60" viewBox="0 0 101 60" fill="none" xmlns="http://www.w3.org/2000/svg">
<path d="M50.6401 0C37.3101 0 28.9701 6.67 25.6401 20C30.6401 13.33 36.4701 10.83 43.1401 12.5C46.9401 13.45 49.6602 16.21 52.6702 19.26C57.5702 24.24 63.2501 29.99 75.6401 29.99C88.9701 29.99 97.3101 23.32 100.64 9.99C95.6401 16.66 89.8101 19.16 83.1401 17.49C79.3401 16.54 76.6201 13.78 73.6101 10.73C68.7101 5.75 63.0301 0 50.6401 0ZM25.6401 30C12.3101 30 3.97014 36.67 0.640137 50C5.64014 43.33 11.4701 40.83 18.1401 42.5C21.9401 43.45 24.6602 46.21 27.6702 49.26C32.5702 54.24 38.2501 59.99 50.6401 59.99C63.9701 59.99 72.3101 53.32 75.6401 39.99C70.6401 46.66 64.8101 49.16 58.1401 47.49C54.3401 46.54 51.6201 43.78 48.6101 40.73C43.7101 35.75 38.0301 29.99 25.6401 29.99V30Z" fill="#38BDF8"/>
</svg>
