<svg width="101" height="101" viewBox="0 0 101 101" fill="none" xmlns="http://www.w3.org/2000/svg">
<path d="M100.8 0.379883H0.969727V100.38H100.8V0.379883Z" fill="#005F0F"/>
<path d="M86.0496 14.0098C73.7596 29.0798 58.7396 41.6898 42.7296 52.6298C37.5196 56.3598 31.7796 59.6698 27.7796 64.7798C26.2496 67.4698 25.8796 71.2498 28.4996 73.4298C32.8496 77.5298 39.6296 78.4198 45.0796 76.1298C52.7096 73.2198 57.9896 66.5998 62.4196 60.0398C72.3096 45.7898 78.3096 29.4098 86.0596 14.0098H86.0496Z" fill="white"/>
<path d="M78.9995 19.2197C63.6895 31.3497 51.4495 37.8997 35.7895 43.5397C31.0695 45.5597 25.9995 48.1297 23.8095 53.0897C21.5495 57.7797 22.2896 64.3297 24.8796 68.6697C24.6896 66.8397 25.6595 63.8797 27.1195 62.4997C31.9395 57.1297 38.2296 53.6097 43.7596 49.5297H43.7696L43.7796 49.5097C56.5696 40.7197 68.5695 30.6797 78.9995 19.2197Z" fill="#AEA99F"/>
</svg>
