<svg width="101" height="100" viewBox="0 0 101 100" fill="none" xmlns="http://www.w3.org/2000/svg">
<path d="M86.1294 62.0299C86.1294 75.0299 75.5994 85.5499 62.6094 85.5499H38.0994C25.0994 85.5499 14.5794 75.0199 14.5794 62.0299V53.6299H0.359375V63.2699C0.359375 83.3799 16.6694 99.6799 36.7694 99.6799H63.9394C84.0494 99.6799 100.349 83.3699 100.349 63.2699V53.6299H86.1294V62.0299Z" fill="#FF0099"/>
<path d="M14.5596 37.9703C14.5596 24.9703 25.0896 14.4503 38.0796 14.4503H62.5896C75.5896 14.4503 86.1096 24.9803 86.1096 37.9703V46.6203H100.33V36.7303C100.35 16.6203 84.0396 0.320312 63.9296 0.320312H36.7596C16.6496 0.320312 0.349609 16.6303 0.349609 36.7303V46.6203H14.5696V37.9703H14.5596Z" fill="#FF0099"/>
<path d="M64.4792 21.75V61.12C64.4792 63 62.9592 64.52 61.0792 64.52C59.1992 64.52 57.6792 63 57.6792 61.12V46.63H42.9992V61.12C42.9992 63 41.4792 64.52 39.5992 64.52C37.7192 64.52 36.1992 63 36.1992 61.12V21.75C27.9492 23.12 21.6592 30.27 21.6592 38.9V61.09C21.6592 70.69 29.4392 78.47 39.0392 78.47H40.2592C42.6192 78.47 44.8592 78.01 46.9092 77.14C48.1092 76.63 49.2492 76 50.3092 75.26C51.3592 76 52.4992 76.63 53.7092 77.14C55.7592 77.98 58.0092 78.47 60.3592 78.47H61.5792C71.1792 78.47 78.9592 70.69 78.9592 61.09V38.9C78.9992 30.27 72.7192 23.12 64.4692 21.75H64.4792Z" fill="#FF0099"/>
</svg>
