<svg width="89" height="100" viewBox="0 0 89 100" fill="none" xmlns="http://www.w3.org/2000/svg">
<path d="M44.21 0L88.4 25V75.01L44.21 100.01L0.0200195 75.01V25L44.21 0Z" fill="white"/>
<path d="M80.5099 73.2803L45.6699 92.9903V77.6403L67.3799 65.7003L80.5099 73.2803ZM82.8999 71.1203V29.9103L70.1599 37.2803V63.7703L82.8999 71.1203ZM7.7699 73.2803L42.6099 92.9903V77.6403L20.8899 65.7003L7.7699 73.2803ZM5.37988 71.1203V29.9103L18.1199 37.2803V63.7703L5.37988 71.1203ZM6.87988 27.2403L42.6099 7.03027V21.8603L19.7098 34.4603L19.5299 34.5603L6.87988 27.2403ZM81.3999 27.2403L45.6699 7.03027V21.8603L68.5698 34.4403L68.7499 34.5403L81.3999 27.2303V27.2403Z" fill="#8ED6FB"/>
<path d="M42.61 74.1495L21.1899 62.3695V39.0395L42.61 51.4095V74.1595V74.1495ZM45.67 74.1495L67.09 62.3795V39.0395L45.67 51.4095V74.1595V74.1495ZM22.64 36.3395L44.14 24.5195L65.64 36.3395L44.14 48.7495L22.64 36.3395Z" fill="#1C78C0"/>
</svg>
