<svg width="101" height="76" viewBox="0 0 101 76" fill="none" xmlns="http://www.w3.org/2000/svg">
<path d="M25.3098 61.5502C28.2398 58.6402 31.1298 55.7702 34.0698 52.8502C33.8498 52.6202 33.6797 52.4302 33.4897 52.2402C26.6597 45.4002 19.8297 38.5602 12.9897 31.7402C12.6497 31.4102 12.5098 31.0702 12.5098 30.6002C12.5298 27.0102 12.5198 23.4202 12.5198 19.8302C12.5198 19.6102 12.5198 19.3802 12.5198 19.1202H24.8998C24.9098 19.3602 24.9297 19.5802 24.9297 19.8002C24.9297 21.7402 24.9298 23.6802 24.9398 25.6202C24.9398 25.8502 24.9998 26.1402 25.1498 26.2902C28.0998 29.2502 31.0598 32.1802 33.9598 35.0702C38.3698 30.6702 42.7897 26.2602 47.2397 21.8202C47.1897 21.7602 47.0597 21.6202 46.9297 21.4902C44.1698 18.7302 41.4098 15.9702 38.6298 13.2302C38.3998 13.0002 37.9897 12.8402 37.6597 12.8402C29.5197 12.8202 21.3797 12.8202 13.2397 12.8402C12.7397 12.8402 12.3997 12.6802 12.0497 12.3302C8.29974 8.56016 4.52978 4.80016 0.769775 1.03016C0.609775 0.870156 0.459727 0.710156 0.219727 0.450156C0.539727 0.430156 0.759736 0.410156 0.979736 0.410156C14.9197 0.410156 28.8698 0.410156 42.8098 0.420156C43.1398 0.420156 43.5697 0.550156 43.7997 0.780156C50.7597 7.75016 57.7097 14.7402 64.6597 21.7202C64.7597 21.8202 64.8597 21.9302 64.9797 22.0702C63.5397 23.5002 62.1198 24.9302 60.6498 26.4002C60.8198 26.5902 60.9697 26.7502 61.1198 26.9102C63.6598 29.4502 66.2097 31.9702 68.7397 34.5202C68.9497 34.7302 69.1398 35.0802 69.1398 35.3602C69.1598 40.8902 69.1597 46.4202 69.1597 51.9502C69.1597 52.0702 69.1498 52.1902 69.1298 52.4002C63.3598 46.6102 57.6398 40.8802 51.9398 35.1502C50.3898 36.7202 48.9498 38.1702 47.4498 39.6802C53.1298 45.3802 58.8698 51.1302 64.6898 56.9702C64.3798 56.9902 64.1998 57.0102 64.0198 57.0102C58.5698 57.0102 53.1197 57.0102 47.6797 57.0002C47.3697 57.0002 46.9898 56.8402 46.7698 56.6202C44.1998 54.0802 41.6497 51.5202 39.1097 48.9602C38.9497 48.8002 38.8397 48.5902 38.7297 48.4402C37.1797 50.0002 35.7298 51.4602 34.2598 52.9402C34.3298 53.0202 34.4697 53.1702 34.6198 53.3202C37.7598 56.4602 40.9097 59.6002 44.0497 62.7602C44.3897 63.1002 44.7198 63.2302 45.1998 63.2302C59.2098 63.2202 73.2097 63.2302 87.2197 63.2102C87.7197 63.2102 88.0697 63.3502 88.4197 63.7002C92.1797 67.4602 95.9597 71.2102 99.7397 74.9602C99.8897 75.1102 100.08 75.2102 100.25 75.3302C100.22 75.4002 100.19 75.4802 100.16 75.5502H47.9998C45.2898 75.5502 42.5697 75.5502 39.8597 75.5402C39.5797 75.5402 39.2397 75.4102 39.0497 75.2202C34.5697 70.7802 30.1198 66.3302 25.6498 61.8702C25.5598 61.7802 25.4897 61.6902 25.3497 61.5202L25.3098 61.5502Z" fill="black"/>
<path d="M75.4396 56.9902V56.1202C75.4396 48.4002 75.4396 40.6802 75.4396 32.9502C75.4396 32.4702 75.2996 32.1402 74.9596 31.8002C71.8396 28.6902 68.7296 25.5702 65.6196 22.4602C65.4496 22.2902 65.2096 22.1702 65.0396 22.0602C68.0696 19.0302 70.9696 16.1302 73.8996 13.2002C74.0096 13.3102 74.1696 13.4402 74.3096 13.5902C78.6796 17.9602 83.0396 22.3302 87.4196 26.6902C87.7396 27.0102 87.8696 27.3302 87.8696 27.7802C87.8596 37.2502 87.8496 46.7302 87.8696 56.2002C87.8696 56.8502 87.6896 56.9902 87.0696 56.9902C83.4396 56.9602 79.8096 56.9802 76.1796 56.9802H75.4296L75.4396 56.9902Z" fill="black"/>
</svg>
