<svg width="101" height="100" viewBox="0 0 101 100" fill="none" xmlns="http://www.w3.org/2000/svg">
<path d="M7.58008 50C7.58008 66.98 17.4501 81.65 31.7501 88.6L11.2902 32.54C8.91016 37.87 7.58008 43.78 7.58008 50Z" fill="#21759B"/>
<path d="M79.4302 47.8296C79.4302 42.5296 77.5301 38.8596 75.8901 35.9996C73.7201 32.4696 71.6802 29.4696 71.6802 25.9396C71.6802 21.9996 74.6701 18.3296 78.8801 18.3296C79.0701 18.3296 79.2501 18.3496 79.4401 18.3596C71.8101 11.3696 61.6401 7.09961 50.4801 7.09961C35.5001 7.09961 22.3101 14.7896 14.6401 26.4296C15.6501 26.4596 16.5901 26.4796 17.4001 26.4796C21.8901 26.4796 28.8301 25.9396 28.8301 25.9396C31.1401 25.7996 31.4101 29.1996 29.1101 29.4696C29.1101 29.4696 26.7901 29.7396 24.2001 29.8796L39.8201 76.3396L49.2101 48.1896L42.5302 29.8796C40.2202 29.7396 38.0302 29.4696 38.0302 29.4696C35.7202 29.3296 35.9902 25.7996 38.3002 25.9396C38.3002 25.9396 45.3801 26.4796 49.6001 26.4796C54.0901 26.4796 61.0302 25.9396 61.0302 25.9396C63.3402 25.7996 63.6202 29.1996 61.3102 29.4696C61.3102 29.4696 58.9801 29.7396 56.4001 29.8796L71.9001 75.9896L76.1802 61.6896C78.0302 55.7596 79.4501 51.4996 79.4501 47.8196L79.4302 47.8296Z" fill="#21759B"/>
<path d="M51.2299 53.75L38.3599 91.15C42.1999 92.28 46.2699 92.9 50.4799 92.9C55.4699 92.9 60.2598 92.04 64.7198 90.47C64.5998 90.29 64.4999 90.09 64.4099 89.88L51.2198 53.76L51.2299 53.75Z" fill="#21759B"/>
<path d="M88.11 29.4199C88.29 30.7899 88.4 32.2499 88.4 33.8299C88.4 38.1799 87.59 43.0799 85.14 49.1899L72.04 87.0699C84.79 79.6299 93.37 65.8199 93.37 49.9999C93.37 42.5399 91.47 35.5299 88.12 29.4199H88.11Z" fill="#21759B"/>
<path d="M50.48 0C22.91 0 0.47998 22.43 0.47998 50C0.47998 77.57 22.91 100 50.48 100C78.05 100 100.48 77.57 100.48 50C100.48 22.43 78.05 0 50.48 0ZM50.48 97.7C24.18 97.7 2.77002 76.3 2.77002 49.99C2.77002 23.68 24.17 2.29 50.48 2.29C76.79 2.29 98.1801 23.69 98.1801 49.99C98.1801 76.29 76.78 97.7 50.48 97.7Z" fill="#21759B"/>
</svg>
