<svg width="100" height="100" viewBox="0 0 100 100" fill="none" xmlns="http://www.w3.org/2000/svg">
<path fill-rule="evenodd" clip-rule="evenodd" d="M49.5805 0C62.4605 0 75.3405 0 88.2205 0C89.8405 0 91.4405 0.14 92.9905 0.61C96.3505 1.63 98.1305 4.05 98.8305 7.37C99.1105 8.69 99.1905 10.03 99.1905 11.37C99.2105 20.39 99.2305 29.41 99.2305 38.43C99.2305 54.86 99.2305 71.29 99.2005 87.71C99.2005 90.01 99.0705 92.33 97.9405 94.43C96.6805 96.75 94.9605 98.59 92.3405 99.4C91.8705 99.55 91.3705 99.71 90.8905 99.71C89.7705 99.71 88.6905 99.99 87.5705 99.99C62.3505 99.99 37.1305 100 11.9105 99.96C9.86047 99.96 7.77047 99.81 5.83047 98.97C5.44047 98.8 5.05048 98.66 4.71047 98.4C2.23047 96.51 0.540475 94.15 0.180475 90.96C0.0504748 89.81 0.0104748 88.67 0.0104748 87.51C0.000474792 61.97 0.000474792 36.41 0.0204748 10.85C0.0204748 9.37 0.0404748 7.86 0.490475 6.44C1.71047 2.65 4.36048 0.59 8.31048 0.17C9.22048 0.07 10.1405 0 11.0605 0C23.9005 0 36.7405 0 49.5805 0Z" fill="#FB7A24"/>
<path fill-rule="evenodd" clip-rule="evenodd" d="M49.9106 63.6101C49.6306 65.3401 49.4306 66.9001 48.8106 68.3301C45.9106 75.0701 40.9606 79.1701 33.5406 79.9901C24.7706 80.9601 16.6706 75.5401 14.2406 67.1401C13.3606 64.0901 13.4506 60.9901 13.7706 57.8901C14.1106 54.5801 15.0906 51.4401 16.6106 48.4701C16.8306 48.0501 16.8206 47.7301 16.5506 47.3201C14.2106 43.8001 13.3006 39.9101 13.6306 35.7201C13.8106 33.4801 14.3506 31.3301 15.3706 29.3201C18.3506 23.4301 24.8906 18.4401 33.6606 19.2701C41.3706 20.0001 48.5006 26.6501 49.6206 34.1201C49.6806 34.5001 49.7806 34.8601 49.9006 35.4201C50.0806 34.4201 50.2206 33.5901 50.3906 32.7701C51.8306 25.9801 58.4706 18.8701 67.9006 18.7801C77.4506 18.6901 84.5206 26.1801 85.8606 33.1401C86.4206 36.0801 86.3306 39.0201 85.8606 41.9501C85.3906 44.8801 84.5306 47.7001 83.2706 50.3901C82.9906 50.9801 83.0206 51.4101 83.3806 51.9601C85.4406 55.1501 86.3406 58.6501 86.2306 62.4501C85.9906 70.3801 80.3806 77.4901 72.6606 79.3501C61.8906 81.9501 53.6306 75.5001 50.8506 67.7101C50.4006 66.4401 50.1806 65.1201 49.9206 63.6001L49.9106 63.6101ZM69.4806 49.6801C69.6006 49.2301 69.9406 48.9601 70.1906 48.6301C72.8906 45.0401 74.3106 41.0301 73.9906 36.5201C73.7606 33.2301 71.0506 30.9001 67.7706 31.0301C64.4906 31.1501 62.0106 33.6801 61.9706 36.9701C61.9706 37.2401 61.9806 37.5101 61.9706 37.7801C61.7406 41.2801 59.8106 43.2001 56.8906 43.4101C56.3606 43.4501 55.8206 43.5001 55.2806 43.5001C51.4806 43.5001 47.6806 43.5001 43.8806 43.5001C42.2206 43.5001 40.5806 43.6801 39.0006 44.1701C31.6306 46.4501 27.3206 51.4901 25.9006 59.0101C25.6206 60.5001 25.3606 62.0401 25.8506 63.5701C26.5506 65.7601 27.8506 67.3901 30.1606 67.9401C32.5506 68.5001 34.6406 67.8801 36.2906 66.0001C37.3606 64.7801 37.7006 63.3401 37.7806 61.7601C37.9906 57.6801 40.2106 55.6501 43.9106 55.6801C49.5906 55.7301 55.2706 55.6801 60.9506 55.6901C61.9606 55.6901 61.9706 55.7001 61.9706 56.7001C61.9706 58.5401 61.9206 60.3901 61.9906 62.2201C62.1106 65.2201 64.7506 67.7201 67.8106 67.8101C70.9706 67.9001 73.7806 65.5601 73.9906 62.5201C74.1706 59.8801 74.1606 57.2301 73.9906 54.5801C73.8606 52.5401 72.7506 51.0801 70.8806 50.2301C70.4306 50.0301 69.9606 49.8801 69.4906 49.7001L69.4806 49.6801ZM33.8906 43.4801C35.1106 43.4801 36.1106 43.4701 37.1006 43.4801C37.5906 43.4801 37.7806 43.2801 37.7706 42.7901C37.7506 40.8701 37.8506 38.9501 37.7306 37.0401C37.5706 34.5201 36.2306 32.7001 33.8906 31.7801C31.4906 30.8401 29.2906 31.3801 27.4306 33.1501C25.5606 34.9301 25.3106 37.1201 25.9706 39.5001C26.5706 41.6901 27.9906 42.9401 30.2206 43.3201C31.5206 43.5401 32.8206 43.4301 33.8906 43.4701V43.4801Z" fill="white"/>
</svg>
