<svg width="78" height="100" viewBox="0 0 78 100" fill="none" xmlns="http://www.w3.org/2000/svg">
<path d="M2.77001 0H55.51C55.77 0.13 56.14 0.12 56.18 0.53C56.25 0.9 56.26 1.27 56.26 1.65C56.26 7.81 56.26 13.97 56.26 20.13C56.26 20.36 56.26 20.59 56.27 20.82C56.28 21.1 56.43 21.23 56.7 21.25C56.93 21.26 57.16 21.26 57.39 21.26C63.47 21.26 69.54 21.26 75.62 21.26C76.1 21.26 76.58 21.26 77.05 21.31C77.43 21.47 77.51 21.82 77.58 22.17C77.65 22.52 77.63 22.88 77.63 23.23C77.63 38.28 77.63 53.33 77.63 68.38C77.63 68.81 77.71 69.26 77.43 69.65C77.23 69.83 76.98 69.85 76.73 69.86C76.5 69.87 76.27 69.86 76.04 69.86C51.35 69.86 26.67 69.86 1.97997 69.86C1.52997 69.86 1.06 69.95 0.640004 69.67C0.450004 69.47 0.429972 69.22 0.419972 68.97C0.409972 68.76 0.419972 68.55 0.419972 68.35C0.419972 46.8 0.419972 25.26 0.419972 3.71C0.419972 3.21 0.419977 2.71 0.549977 2.22C0.829977 1.04 1.37001 0.09 2.77001 0Z" fill="#E8E8DF"/>
<path d="M77.3601 69.6299C77.3601 69.8599 77.3801 70.0899 77.3801 70.3199C77.3801 79.1699 77.3401 88.0199 77.4101 96.8699C77.4301 99.0099 76.0101 100.01 74.2601 100.01C50.7601 99.9799 27.2501 99.9899 3.75012 99.9899C3.58012 99.9899 3.42012 99.9899 3.25012 99.9899C1.71012 99.9399 0.640137 98.8599 0.640137 97.3099C0.640137 93.3299 0.640137 89.3599 0.640137 85.3799C0.640137 80.3799 0.640137 75.3899 0.640137 70.3899C0.640137 70.1399 0.650095 69.8899 0.660095 69.6399C26.2301 69.6399 51.8001 69.6399 77.3601 69.6399V69.6299Z" fill="#F19B1F"/>
<path d="M56.0002 0.370117C56.1402 0.490117 56.2902 0.600117 56.4202 0.740117C63.1602 7.48012 69.9002 14.2101 76.6302 20.9501C76.7602 21.0801 76.8802 21.2301 77.0002 21.3701C76.8102 21.5601 76.5702 21.5001 76.3502 21.5001C69.7902 21.5001 63.2402 21.5001 56.6802 21.5101C56.1102 21.5101 55.9902 21.3301 55.9902 20.8001C56.0102 13.9901 56.0002 7.19012 56.0002 0.380117V0.370117Z" fill="#D8D6C9"/>
<path d="M30.9899 55.26C30.9699 55 31.0699 54.72 31.1699 54.45C34.6699 44.53 38.1699 34.62 41.6699 24.7C41.9299 23.96 42.3299 23.39 43.1399 23.26C43.8299 23.14 44.4199 23.34 44.8599 23.91C45.3399 24.51 45.3099 25.17 45.0599 25.86C44.2699 28.07 43.4999 30.29 42.7199 32.5C40.0299 40.12 37.3299 47.74 34.6399 55.36C34.5499 55.61 34.4699 55.88 34.3499 56.12C33.9799 56.87 33.1399 57.26 32.3699 57.08C31.5199 56.87 30.9799 56.18 30.9899 55.27V55.26Z" fill="#F19B1F"/>
<path d="M27.3099 28.5797C28.7799 28.5897 29.6199 30.0397 28.9399 31.2197C28.7799 31.4997 28.5399 31.7497 28.2999 31.9797C25.4199 34.8697 22.5399 37.7597 19.6399 40.6297C19.2899 40.9797 19.3099 41.1597 19.6399 41.4897C22.5799 44.4097 25.4999 47.3497 28.4299 50.2797C28.8399 50.6897 29.1699 51.1197 29.1599 51.7397C29.1599 52.5097 28.8099 53.0697 28.1299 53.3897C27.4999 53.6897 26.8699 53.6097 26.3099 53.1797C26.1299 53.0397 25.9699 52.8797 25.8099 52.7097C22.3799 49.2797 18.9399 45.8497 15.5099 42.4197C14.6599 41.5697 14.6499 40.5297 15.5099 39.6697C18.9999 36.1797 22.4999 32.6997 25.9799 29.2097C26.3799 28.8097 26.8299 28.5397 27.2999 28.5697L27.3099 28.5797Z" fill="#F19B1F"/>
<path d="M48.8502 28.5798C49.4402 28.5198 49.8803 28.8798 50.3103 29.3098C53.2803 32.2898 56.2502 35.2598 59.2302 38.2398C59.7002 38.7098 60.1802 39.1698 60.6602 39.6398C61.5702 40.5198 61.5802 41.5898 60.6802 42.4898C57.3102 45.8598 53.9303 49.2298 50.5603 52.5998C50.3403 52.8198 50.1203 53.0398 49.8703 53.2298C49.1403 53.7698 48.2503 53.6998 47.5903 53.0698C46.9503 52.4598 46.8502 51.5398 47.3602 50.7998C47.5102 50.5798 47.7103 50.3798 47.9003 50.1898C50.7503 47.3298 53.6002 44.4698 56.4802 41.6298C56.9002 41.2198 56.9803 41.0098 56.5103 40.5398C53.5503 37.6398 50.6303 34.6998 47.7103 31.7598C46.8503 30.8998 46.8303 29.8398 47.6203 29.0598C47.9503 28.7298 48.3502 28.5898 48.8602 28.5998L48.8502 28.5798Z" fill="#F19B1F"/>
<path d="M46.0103 82.5699C45.0103 85.0699 44.0002 87.5799 42.9902 90.0799C42.7602 90.6599 42.5002 91.2299 42.3002 91.8199C42.1902 92.1399 42.0302 92.2799 41.6702 92.2599C40.9702 92.2199 40.1102 92.4599 39.6002 92.1399C39.1202 91.8399 39.0102 90.9499 38.7502 90.3199C37.7802 87.9299 36.8202 85.5399 35.8502 83.1499C35.7702 82.9599 35.6903 82.7799 35.5303 82.4099C35.5103 82.7999 35.4902 83.0099 35.4902 83.2199C35.4902 86.7399 35.4902 90.2599 35.4902 93.7799C35.4902 94.7499 35.6202 94.6199 34.6102 94.6299C34.1102 94.6299 33.6102 94.5999 33.1102 94.6399C32.6102 94.6799 32.4902 94.5099 32.4902 94.0199C32.5102 89.4199 32.5002 84.8199 32.5002 80.2099C32.5002 79.1699 32.5102 78.1299 32.5002 77.0899C32.5002 76.7399 32.6003 76.6099 32.9603 76.6299C33.6003 76.6499 34.2503 76.6699 34.9003 76.6299C35.3503 76.5999 35.5502 76.7799 35.7202 77.1699C37.3002 80.8599 38.9103 84.5299 40.5103 88.2099C40.6003 88.4199 40.7003 88.6199 40.8303 88.9299C41.2003 88.0999 41.5302 87.3499 41.8602 86.5899C43.2102 83.4599 44.5703 80.3299 45.9003 77.1999C46.0803 76.7799 46.2903 76.5899 46.7703 76.6299C47.3503 76.6799 47.9403 76.6699 48.5203 76.6299C49.0103 76.5899 49.1503 76.7499 49.1503 77.2499C49.1303 80.8099 49.1403 84.3699 49.1403 87.9299C49.1403 89.9899 49.1403 92.0499 49.1403 94.1099C49.1403 94.5099 49.0402 94.6599 48.6202 94.6399C47.9802 94.6099 47.3302 94.5999 46.6802 94.6399C46.2302 94.6699 46.1302 94.5099 46.1302 94.0799C46.1502 90.4599 46.1302 86.8299 46.1302 83.2099V82.5899C46.1302 82.5899 46.0402 82.5799 46.0002 82.5699H46.0103Z" fill="#FEFEFE"/>
<path d="M28.1598 94.6201C27.0698 94.6201 26.0598 94.6201 25.0498 94.6201C24.6898 94.6201 24.6799 94.3401 24.5899 94.1201C23.7699 92.1901 22.9699 90.2501 22.1499 88.3201C22.0799 88.1401 22.0798 87.8501 21.8098 87.8601C21.5598 87.8601 21.5498 88.1501 21.4698 88.3301C20.5898 90.2601 19.7098 92.1901 18.8598 94.1301C18.6898 94.5101 18.4799 94.6501 18.0699 94.6301C17.1599 94.6001 16.2499 94.6201 15.2499 94.6201C15.4399 94.2501 15.5898 93.9501 15.7398 93.6701C17.0098 91.2401 18.2698 88.8001 19.5498 86.3801C19.7398 86.0301 19.7398 85.7701 19.5498 85.4101C18.0898 82.6801 16.6698 79.9301 15.2198 77.1901C14.9798 76.7301 14.9998 76.5901 15.5598 76.6201C16.2398 76.6601 16.9398 76.6601 17.6198 76.6201C18.1098 76.5901 18.3498 76.7401 18.5398 77.2101C19.4098 79.3001 20.3298 81.3701 21.2398 83.4501C21.3198 83.6301 21.3299 83.9201 21.5699 83.9301C21.8199 83.9401 21.8398 83.6501 21.9198 83.4801C22.9198 81.3801 23.9199 79.2801 24.8899 77.1601C25.0699 76.7601 25.2898 76.6001 25.7298 76.6301C26.4398 76.6701 27.1498 76.6601 27.8498 76.6301C28.3498 76.6101 28.4799 76.6901 28.2099 77.1901C26.7699 79.8801 25.3698 82.6001 23.9298 85.2901C23.6998 85.7201 23.6898 86.0501 23.9298 86.4801C25.2898 89.0301 26.6099 91.6001 27.9499 94.1601C28.0199 94.2901 28.0698 94.4101 28.1798 94.6301L28.1598 94.6201Z" fill="#FEFEFE"/>
<path d="M53.6301 85.6097C53.6301 82.8197 53.6401 80.0297 53.6201 77.2397C53.6201 76.7397 53.7601 76.5897 54.2501 76.6197C54.7901 76.6597 55.3401 76.6697 55.8701 76.6197C56.4601 76.5597 56.6401 76.7297 56.6401 77.3597C56.6101 82.1297 56.6401 86.8997 56.6101 91.6697C56.6101 92.2197 56.7201 92.4097 57.3101 92.3997C59.6401 92.3597 61.9701 92.3997 64.3101 92.3697C64.7901 92.3697 64.9301 92.5097 64.8901 92.9697C64.8501 93.3797 64.8601 93.7997 64.8901 94.2197C64.9101 94.5597 64.7701 94.6397 64.4501 94.6397C60.9901 94.6397 57.5401 94.6197 54.0801 94.6397C53.5701 94.6397 53.6301 94.3597 53.6301 94.0497C53.6301 91.2397 53.6301 88.4297 53.6301 85.6197V85.6097Z" fill="#FEFEFE"/>
</svg>
