<?xml version="1.0" encoding="UTF-8"?>
<svg id="Layer_1" data-name="Layer 1" xmlns="http://www.w3.org/2000/svg" viewBox="0 0 2000 284">
  <defs>
    <style>
      .cls-1 {
        fill: #f16145;
      }
    </style>
  </defs>
  <path class="cls-1" d="M585.54,207.19h118.29v36.26h-157.57V36.26h39.28v170.93ZM742.72,243.45h39.28V36.26h-39.28v207.19ZM343.05,111.58l120.33-75.32h-120.33v75.32ZM992.59,36.26h-56.19s-69.73,81.66-69.73,81.66V36.26h-39.28v207.18h39.28v-81.65l77.61,81.65h56.2l-101.83-103.81,93.94-103.37ZM193.62,36.26H49l120.33,75.32v131.87h173.71v-48.58h-149.42V36.26ZM1413.53,243.45h39.28V36.26h-39.28v207.19ZM1884.72,36.26v137.01l-115.52-137.01h-37.92v207.19h39.28V105.3l116.48,138.14h36.96V36.26h-39.28ZM1061.61,157.11h99.84v-35.65h-99.84v-48.94h113.11v-36.26h-152.39v207.19h153.86v-36.26h-114.58v-50.08ZM1702.42,139.23c0,62.03-48.24,110.13-109.82,110.13s-109.21-46.82-109.21-108.9,48.24-110.13,109.82-110.13,109.21,46.81,109.21,108.89ZM1663.95,139.45c0-40.27-30.45-70.63-70.84-70.63s-71.23,31.2-71.23,71.43,30.45,70.64,70.84,70.64,71.23-31.2,71.23-71.44ZM1254.62,36.26h-39.28v207.19h157.57v-36.26h-118.29V36.26Z"/>
</svg>