<?xml version="1.0" encoding="UTF-8"?>
<svg id="Layer_2" data-name="Layer 2" xmlns="http://www.w3.org/2000/svg" viewBox="0 0 1040.37 115.6">
  <defs>
    <style>
      .cls-1 {
        fill: #fff;
      }

      .cls-2 {
        fill: #ee7524;
      }
    </style>
  </defs>
  <g id="_레이어_1" data-name="레이어 1">
    <g>
      <path class="cls-1" d="M670.55,91.48h62.12v22.19h-86.7V1.93h24.58V91.48Zm-135.08,22.19h86.7v-21.87h-62.44v-23.07h55.22v-21.87h-55.22V23.8h62.44V1.93h-86.7V113.67Zm220.44,0h24.58V1.93h-24.58V113.67ZM284.67,1.93h-24.58V113.67h86.7v-22.19h-62.12V1.93Zm85.36,111.74h24.58V1.93h-24.58V113.67ZM1015.79,1.93V71.73L963.6,3.14l-.92-1.21h-23.66V113.67h24.58V42.71l52.19,68.52,1.86,2.44h22.73V1.93h-24.58Zm-100.73,33.12c-2.95-6.97-7.06-13.04-12.36-18.2-5.3-5.16-11.59-9.26-18.87-12.29-7.28-3.03-15.25-4.55-23.92-4.55s-16.67,1.52-24.01,4.55c-7.33,3.03-13.64,7.18-18.94,12.45-5.3,5.27-9.45,11.39-12.45,18.36-2.99,6.97-4.49,14.45-4.49,22.43v.32c0,7.98,1.47,15.46,4.42,22.43,2.94,6.97,7.06,13.04,12.36,18.2,5.3,5.16,11.59,9.26,18.87,12.29,7.28,3.03,15.25,4.55,23.92,4.55s16.67-1.52,24-4.55c7.33-3.03,13.65-7.19,18.94-12.46,5.3-5.27,9.45-11.39,12.45-18.36,2.99-6.97,4.5-14.45,4.5-22.43v-.32c0-7.98-1.48-15.46-4.42-22.43Zm-20.96,23.07c0,4.86-.84,9.42-2.52,13.68-1.69,4.26-4.02,8.01-7,11.25-2.99,3.24-6.59,5.77-10.82,7.61-4.23,1.83-8.85,2.75-13.84,2.75s-9.74-.94-13.92-2.84c-4.17-1.88-7.82-4.45-10.91-7.69-3.1-3.24-5.48-7.02-7.16-11.34-1.68-4.31-2.52-8.9-2.52-13.76v-.32c0-4.86,.84-9.42,2.52-13.69,1.68-4.26,4.01-8.01,7-11.25,2.98-3.24,6.56-5.77,10.74-7.61,4.18-1.83,8.82-2.76,13.92-2.76s9.6,.95,13.84,2.84c4.24,1.88,7.9,4.45,10.99,7.69,3.1,3.24,5.48,7.02,7.17,11.33,1.68,4.32,2.52,8.91,2.52,13.77v.32ZM517.89,1.93h-29.69l-45.33,47.96V1.93h-24.58V113.67h24.58v-34.16l12.93-13.41,34.64,47.57h29.53l-47.57-64.34L517.89,1.93ZM151.72,42.56L216.74,1.93h-65.02V42.56Z"/>
      <path class="cls-2" d="M151.72,84.77v28.9H65.02V42.56L0,1.93H65.02s11.56,0,11.56,0V84.77h75.14Z"/>
    </g>
  </g>
</svg>