<?xml version="1.0" encoding="UTF-8"?>
<svg id="Layer_2" data-name="Layer 2" xmlns="http://www.w3.org/2000/svg" viewBox="0 0 1618.22 179.8">
  <defs>
    <style>
      .cls-1 {
        fill: #f08314;
      }

      .cls-2 {
        fill: #121114;
      }
    </style>
  </defs>
  <g id="_레이어_1" data-name="레이어 1">
    <g>
      <path class="cls-2" d="M1042.99,142.29h96.62v34.51h-134.85V3h38.23V142.29Zm-210.11,34.51h134.86v-34.01h-97.12v-35.88h85.89v-34.02h-85.89V37.01h97.12V3h-134.86V176.81Zm342.88,0h38.24V3h-38.24V176.8ZM442.79,3h-38.23V176.81h134.85v-34.51h-96.62V3Zm132.77,173.8h38.24V3h-38.24V176.81ZM1579.98,3V111.56L1498.8,4.88l-1.44-1.89h-36.8V176.8h38.24V66.43l81.18,106.58,2.89,3.79h35.35V3h-38.24Zm-156.67,51.52c-4.58-10.84-10.99-20.28-19.23-28.31-8.24-8.03-18.03-14.41-29.34-19.12-11.32-4.72-23.72-7.08-37.21-7.08s-25.94,2.36-37.34,7.08c-11.4,4.71-21.22,11.17-29.47,19.37-8.24,8.2-14.69,17.71-19.36,28.56-4.65,10.84-6.98,22.48-6.98,34.89v.5c0,12.41,2.29,24.05,6.87,34.89,4.57,10.84,10.98,20.28,19.22,28.31,8.24,8.03,18.03,14.4,29.34,19.12,11.32,4.71,23.72,7.07,37.21,7.07s25.93-2.36,37.33-7.07c11.41-4.72,21.23-11.18,29.47-19.37,8.24-8.2,14.69-17.71,19.36-28.56,4.65-10.84,6.99-22.48,6.99-34.89v-.5c0-12.41-2.3-24.05-6.87-34.89Zm-32.6,35.89c0,7.55-1.31,14.66-3.92,21.29-2.62,6.63-6.25,12.46-10.89,17.5-4.65,5.04-10.25,8.98-16.83,11.84-6.58,2.85-13.77,4.28-21.53,4.28s-15.15-1.47-21.65-4.41c-6.49-2.93-12.16-6.92-16.96-11.96-4.81-5.04-8.52-10.91-11.14-17.63-2.62-6.71-3.93-13.85-3.93-21.4v-.5c0-7.55,1.31-14.65,3.93-21.29,2.62-6.63,6.24-12.46,10.89-17.5,4.64-5.03,10.21-8.98,16.71-11.84,6.5-2.85,13.71-4.29,21.65-4.29s14.94,1.48,21.53,4.42c6.59,2.93,12.29,6.92,17.1,11.96,4.81,5.03,8.52,10.92,11.15,17.63,2.61,6.72,3.92,13.86,3.92,21.41v.5ZM805.53,3h-46.18l-70.51,74.59V3h-38.24V176.81h38.24v-53.14l20.12-20.86,53.88,74h45.93l-73.99-100.07L805.53,3ZM235.99,66.2L337.13,3h-101.14v63.2Z"/>
      <path class="cls-1" d="M235.99,131.85v44.95H101.14V66.2L0,3H101.14s17.98,0,17.98,0V131.85h116.87Z"/>
    </g>
  </g>
</svg>