<svg width="530" height="86" viewBox="0 0 530 86" fill="none" xmlns="http://www.w3.org/2000/svg">
<path d="M389.959 23.54H395.529V57.52H411.799V62.42H389.959V23.54Z" fill="#9FA0A0"/>
<path d="M430.169 23.54H436.019L452.439 62.42H446.369L442.419 52.62H423.379L419.429 62.42H413.579L430.169 23.54ZM432.909 28.78L425.209 48.05H440.719L432.909 28.78Z" fill="#9FA0A0"/>
<path d="M459.819 23.54H470.349C478.419 23.54 483.99 26.16 483.99 33.35C483.99 38.7 480.869 41.37 475.969 42.59V42.7C481.259 43.15 484.99 46.6 484.99 52.06C484.99 60.41 478.08 62.42 470.17 62.42H459.81V23.54H459.819ZM465.359 40.14H468.43C473.83 40.14 478.4 39.64 478.4 33.91C478.4 29.28 474.439 28.12 471.209 28.12H465.359V40.15V40.14ZM465.359 57.85H469.54C474.55 57.85 479.069 56.8 479.069 51.56C479.069 45.54 473.78 44.71 469.03 44.71H465.38L465.359 57.85Z" fill="#9FA0A0"/>
<path d="M510.7 22.28C522.87 22.28 529.99 31.11 529.99 42.99C529.99 54.87 522.93 63.71 510.7 63.71C498.47 63.71 491.42 55.15 491.42 42.99C491.42 30.83 498.54 22.28 510.7 22.28ZM510.7 58.66C519.94 58.66 523.9 50.97 523.9 42.99C523.9 35.01 519.54 27.27 510.7 27.32C501.86 27.37 497.51 34.84 497.51 42.99C497.51 51.14 501.47 58.66 510.7 58.66Z" fill="#9FA0A0"/>
<path d="M113.44 23.55H122.24L137.5 62.43H128.87L125.53 53.52H109.76L106.37 62.43H98.2998L113.45 23.55H113.44ZM117.73 31.35H117.62L111.99 47.39H123.36L117.73 31.35Z" fill="#051C2C"/>
<path d="M144.739 23.55H152.539V56.3H167.629V62.43H144.739V23.55Z" fill="#051C2C"/>
<path d="M173.979 23.55H181.77V56.3H196.87V62.43H173.979V23.55Z" fill="#051C2C"/>
<path d="M232.349 30.71C229.089 29.31 225.569 28.59 222.019 28.59C212.669 28.59 207.509 34.89 207.509 43.1C207.509 51.31 212.559 57.39 221.099 57.39C222.869 57.42 224.649 57.22 226.369 56.82V46.38H217.879V40.07H234.059V61.64C229.849 62.89 225.489 63.59 221.089 63.71C208.119 63.71 199.119 57.22 199.119 43.68C199.119 30.14 207.499 22.28 221.089 22.28C225.069 22.24 229.039 22.8 232.849 23.94L232.329 30.71H232.349Z" fill="#051C2C"/>
<path d="M244.409 22.77H252.999C261.509 22.77 271.689 22.49 271.689 33.51C271.779 38.25 268.199 42.27 263.479 42.72V42.83C265.639 43 266.889 45.16 267.689 46.92L274.079 62.43H265.219L260.449 50.05C259.319 47.09 258.299 45.95 254.979 45.95H252.429V62.43H244.469L244.429 22.78L244.409 22.77ZM252.369 40.11H254.979C258.899 40.11 263.389 39.54 263.389 34.64C263.389 29.74 258.959 29.48 254.979 29.48H252.369V40.12V40.11Z" fill="#051C2C"/>
<path d="M298.22 22.28C310.78 22.28 317.84 30.77 317.84 42.87C317.84 54.97 310.91 63.69 298.22 63.69C285.53 63.69 278.6 55.15 278.6 42.87C278.6 30.59 285.48 22.28 298.22 22.28ZM298.22 57.39C306.43 57.39 309.46 50.09 309.46 42.87C309.46 35.65 306.19 28.59 298.22 28.59C290.25 28.59 286.98 35.82 286.98 42.87C286.98 49.92 290.02 57.39 298.22 57.39Z" fill="#051C2C"/>
<path d="M322.109 23.55H330.299L337.539 54.63H337.649L344.279 23.55H354.859L361.709 54.63H361.819L369.109 23.55H376.689L366.549 62.43H356.529L349.519 31.35H349.399L342.489 62.43H332.419L322.109 23.55Z" fill="#051C2C"/>
<path fill-rule="evenodd" clip-rule="evenodd" d="M42.5295 85.5C65.9995 85.49 85.0195 66.46 85.0195 42.99C85.0195 19.52 65.9995 0.5 42.5295 0.5H42.5095C19.0395 0.51 0.0195312 19.54 0.0195312 43.01C0.0295312 66.48 19.0595 85.5 42.5295 85.5ZM34.6995 19.28H50.0594L67.7095 56.29L57.8895 66.37L42.4094 31.82L42.3195 31.8L26.6495 66.42L16.9395 56.33L34.6995 19.28Z" fill="#051C2C"/>
</svg>
