<svg width="413" height="91" viewBox="0 0 413 91" fill="none" xmlns="http://www.w3.org/2000/svg">
<path d="M89.9898 45.01C89.9898 57.68 89.9898 70.35 89.9898 83.01C89.9898 83.54 90.0098 84.06 89.9898 84.59C89.8798 86.91 88.7298 88.55 86.6398 89.52C85.9098 89.86 85.1198 90.03 84.3098 90C83.8798 89.99 83.4598 90 83.0298 90C57.6898 90 32.3598 90 7.01982 90C6.56982 90 6.11982 90 5.66982 90C2.55982 89.97 0.0198155 87.58 0.00981554 84.3C-0.000184461 76.81 0.00981554 69.33 0.00981554 61.84C0.00981554 43.29 0.00981554 24.74 0.00981554 6.19002C0.00981554 5.56002 0.0198155 4.94002 0.169816 4.33002C0.789816 1.79002 2.92982 0.0700195 5.54982 0.0200195C6.09982 0.0200195 6.64982 0.0200195 7.19982 0.0200195C32.4098 0.0200195 57.6198 0.0200195 82.8298 0.0200195C83.4098 0.0200195 83.9798 0.0200195 84.5598 0.0200195C87.1298 0.0800195 89.2898 1.83002 89.8598 4.33002C89.9398 4.69002 89.9698 5.07002 89.9798 5.45002C89.9998 6.00002 89.9798 6.55002 89.9798 7.10002C89.9798 19.74 89.9798 32.39 89.9798 45.03L89.9898 45.01ZM14.9798 9.78002C14.9798 26.9 14.9798 43.92 14.9798 60.94C14.9798 61 15.0298 61.06 15.0898 61.22C15.1698 60.97 15.2298 60.81 15.2698 60.65C16.0698 57.46 17.2598 54.41 18.7098 51.46C22.0798 44.58 26.6798 38.65 32.4298 33.59C32.6298 33.41 32.8298 33.22 33.0698 33.01C32.7398 32.71 32.4398 32.44 32.1498 32.17C31.8698 31.92 31.5898 31.67 31.3098 31.42C31.0098 31.15 30.7198 30.88 30.4198 30.62C30.1398 30.37 29.8598 30.12 29.5798 29.87C29.2798 29.6 28.9898 29.33 28.6898 29.07C28.4098 28.82 28.1298 28.57 27.8498 28.31C27.5598 28.04 27.2398 27.81 26.9398 27.44C27.1698 27.38 27.3298 27.32 27.4898 27.3C28.7998 27.13 30.1198 26.97 31.4398 26.8C32.4598 26.67 33.4698 26.54 34.4898 26.42C35.5098 26.29 36.5298 26.17 37.5398 26.05C38.5798 25.92 39.6298 25.8 40.6698 25.67C41.7398 25.54 42.8098 25.42 43.8798 25.3C44.9498 25.18 46.0198 25.06 47.0898 24.94C48.2598 24.81 49.4298 24.68 50.5998 24.55C51.7398 24.43 52.8898 24.31 54.0298 24.19C55.0298 24.09 56.0198 23.99 57.0198 23.89C57.1998 23.87 57.3698 23.89 57.4998 24.07C57.6098 24.45 57.4098 24.79 57.2998 25.14C55.3098 31.41 53.3098 37.68 51.3198 43.95C50.3198 47.1 49.3198 50.24 48.3098 53.39C48.2398 53.61 48.2398 53.89 47.9498 54.07C47.4598 53.18 46.9798 52.3 46.4998 51.42C46.0298 50.56 45.5598 49.71 45.0898 48.85C44.6098 47.98 44.1598 47.09 43.6498 46.26C43.5498 46.27 43.4898 46.26 43.4498 46.29C43.2298 46.41 43.0098 46.52 42.7898 46.65C40.4998 48.05 38.3298 49.62 36.2698 51.33C32.0398 54.83 28.3198 58.8 25.2798 63.38C22.0698 68.21 19.8398 73.45 18.8098 79.17C18.7798 79.34 18.7398 79.51 18.7298 79.69C18.7198 79.88 18.6198 80.07 18.7598 80.32C19.0698 80.32 19.3898 80.34 19.7098 80.34C30.5798 80.34 41.4398 80.34 52.3098 80.34C54.6798 80.34 56.9998 80.08 59.2998 79.54C61.9198 78.92 64.4098 77.97 66.6998 76.52C70.1198 74.35 72.5398 71.38 73.8698 67.55C74.5898 65.48 74.9298 63.34 75.0098 61.15C75.1098 58.62 74.7298 56.16 73.9098 53.77C73.5598 52.75 73.1298 51.77 72.5998 50.83C70.8298 47.68 68.2698 45.43 64.9198 44.07C64.6998 43.98 64.4298 43.96 64.2498 43.71C64.4298 43.62 64.5798 43.55 64.7398 43.47C65.7798 42.97 66.7598 42.37 67.6598 41.65C70.9798 38.99 72.7398 35.53 72.8798 31.28C72.9398 29.48 72.7998 27.68 72.5698 25.89C72.1698 22.87 71.0698 20.14 69.1198 17.78C66.0498 14.07 62.2098 11.61 57.4798 10.56C54.9798 10 52.4498 9.70002 49.8898 9.70002C45.4298 9.70002 40.9798 9.67002 36.5198 9.68002C29.6098 9.70002 22.6998 9.74002 15.7898 9.77002C15.5498 9.77002 15.2998 9.79002 14.9698 9.81002L14.9798 9.78002Z" fill="url(#paint0_linear_320_668)"/>
<path d="M164.61 31.44C164.05 31.74 163.81 32.21 163.5 32.61C161.8 34.86 160.1 37.12 158.42 39.39C157.98 39.98 157.5 40.43 156.71 40.48C155.69 40.55 154.91 40.27 154.29 39.38C152.7 37.11 151.05 34.9 149.41 32.67C149.11 32.26 148.76 31.88 148.45 31.5C147.87 31.83 148.06 32.29 148.05 32.66C148.04 37.07 148.05 41.49 148.05 45.9C148.05 46.37 148.07 46.84 148.03 47.31C147.95 48.29 147.46 48.86 146.48 48.9C144.78 48.96 143.07 48.96 141.36 48.9C140.37 48.86 139.9 48.33 139.76 47.33C139.71 46.98 139.72 46.63 139.72 46.27C139.72 37.44 139.72 28.61 139.72 19.79C139.72 19.5 139.71 19.2 139.73 18.91C139.84 17.68 140.27 17.2 141.49 17.17C143.37 17.12 145.26 17.15 147.14 17.16C147.26 17.16 147.37 17.19 147.49 17.19C148 17.21 148.39 17.44 148.69 17.83C148.94 18.16 149.18 18.49 149.42 18.83C151.35 21.5 153.28 24.17 155.22 26.84C155.56 27.31 155.93 27.77 156.26 28.19C156.94 28.22 157.11 27.71 157.36 27.35C159.41 24.55 161.44 21.73 163.49 18.93C164.79 17.15 164.57 17.15 166.96 17.14C168.31 17.14 169.67 17.12 171.02 17.14C172.76 17.18 173.1 17.53 173.15 19.21C173.15 19.5 173.15 19.8 173.15 20.09C173.15 28.68 173.15 37.28 173.15 45.87C173.15 46.34 173.17 46.81 173.13 47.28C173.05 48.27 172.58 48.77 171.6 48.9C171.25 48.95 170.9 48.93 170.54 48.93C169.3 48.93 168.07 48.96 166.83 48.92C165.44 48.87 164.96 48.38 164.86 46.97C164.83 46.5 164.85 46.03 164.84 45.56C164.84 41.44 164.84 37.32 164.84 33.2C164.84 32.64 164.97 32.05 164.59 31.43L164.61 31.44Z" fill="#CF2024"/>
<path d="M131.47 32.3C131.84 32.73 132.12 33.03 132.38 33.35C134.86 36.39 135.19 39.75 133.7 43.29C132.71 45.65 130.82 47.11 128.42 47.92C126.51 48.57 124.52 48.85 122.52 48.87C118.22 48.91 113.92 48.88 109.62 48.88C109.5 48.88 109.38 48.88 109.27 48.88C107.76 48.79 107.27 48.32 107.19 46.84C107.18 46.55 107.19 46.25 107.19 45.96C107.19 37.24 107.19 28.53 107.19 19.81C107.19 19.4 107.17 18.98 107.22 18.58C107.33 17.67 107.77 17.2 108.66 17.05C109.06 16.98 109.48 16.99 109.89 16.99C113.95 16.99 118.02 16.99 122.08 16.99C123.68 16.99 125.25 17.2 126.79 17.63C132.93 19.33 134.24 24.64 133.47 28.67C133.21 30.04 132.47 31.17 131.47 32.3ZM115.61 40.89C118.3 40.89 120.82 40.98 123.34 40.83C124.16 40.78 124.96 40.55 125.64 40.04C126.1 39.69 126.36 39.22 126.23 38.67C126.14 38.29 125.94 37.89 125.67 37.61C124.76 36.68 123.58 36.32 122.31 36.31C120.37 36.29 118.43 36.31 116.49 36.31C116.21 36.31 115.93 36.4 115.6 36.45C115.35 37.9 115.38 39.28 115.6 40.89H115.61ZM115.55 28.47C116.89 28.66 122.67 28.73 123.62 28.56C123.96 28.5 124.31 28.39 124.61 28.23C125.45 27.79 125.69 26.94 125.16 26.15C124.91 25.78 124.54 25.41 124.14 25.23C123.62 25 123.02 24.88 122.45 24.87C120.45 24.83 118.45 24.85 116.46 24.87C116.18 24.87 115.91 24.95 115.56 25.01C115.4 26.19 115.41 27.28 115.56 28.47H115.55Z" fill="#CF2024"/>
<path d="M345.73 32.28C346.13 32.75 346.44 33.1 346.73 33.46C349.21 36.61 349.42 40.03 347.81 43.58C346.81 45.79 344.97 47.14 342.7 47.91C340.73 48.58 338.69 48.85 336.62 48.87C332.38 48.91 328.14 48.88 323.9 48.89C323.78 48.89 323.66 48.89 323.55 48.89C321.98 48.82 321.56 48.42 321.47 46.89C321.45 46.48 321.46 46.07 321.46 45.65C321.46 37.17 321.46 28.69 321.46 20.21C321.46 19.62 321.46 19.03 321.54 18.45C321.66 17.58 322.02 17.22 322.9 17.07C323.3 17 323.72 17 324.13 16.99C328.19 16.99 332.26 16.99 336.32 16.99C337.98 16.99 339.61 17.22 341.2 17.66C347.11 19.32 348.72 24.92 347.66 28.97C347.34 30.2 346.67 31.22 345.73 32.28ZM329.8 40.73C331.06 40.9 336.64 41 337.56 40.83C338.25 40.7 338.95 40.53 339.57 40.22C340.71 39.65 340.84 38.51 339.96 37.61C339.32 36.95 338.51 36.6 337.63 36.43C337.06 36.32 336.46 36.29 335.88 36.3C333.89 36.33 331.9 36.17 329.84 36.41C329.59 37.88 329.64 39.26 329.81 40.73H329.8ZM329.74 28.37C330.02 28.5 330.13 28.59 330.23 28.59C332.7 28.59 335.17 28.61 337.64 28.58C338.09 28.58 338.56 28.39 338.97 28.19C339.6 27.87 339.82 27.2 339.6 26.53C339.43 26 339.07 25.63 338.62 25.33C338.05 24.95 337.41 24.89 336.76 24.89C334.76 24.89 332.76 24.88 330.76 24.89C330.43 24.89 330.11 25.03 329.75 25.11V28.39L329.74 28.37Z" fill="#CF2024"/>
<path d="M244.13 40.03V37.2C243.68 37.13 243.29 37.01 242.9 37.01C241.49 36.99 240.07 37.02 238.66 36.99C237.29 36.96 236.88 36.55 236.84 35.18C236.8 33.83 236.8 32.47 236.84 31.12C236.88 29.86 237.41 29.37 238.72 29.29C239.13 29.27 239.54 29.29 239.96 29.29C243.02 29.29 246.08 29.29 249.14 29.29C249.61 29.29 250.09 29.27 250.55 29.33C251.45 29.45 251.89 29.94 251.98 30.84C252.01 31.13 252.01 31.43 252.01 31.72C252.01 35.13 251.98 38.55 252.03 41.96C252.05 43.11 251.68 43.97 250.87 44.78C248.28 47.37 245.21 48.9 241.57 49.39C238.65 49.79 235.82 49.52 233.03 48.68C227.81 47.11 224.55 43.61 223.09 38.39C222.05 34.65 222.18 30.93 223.4 27.26C225.37 21.32 229.46 17.76 235.6 16.55C239.06 15.86 242.39 16.28 245.63 17.59C247.34 18.28 248.84 19.31 250.21 20.53C250.47 20.76 250.72 21.02 250.92 21.31C251.3 21.85 251.29 22.41 250.92 22.96C250.82 23.11 250.72 23.26 250.6 23.38C249.66 24.35 248.74 25.35 247.76 26.28C246.82 27.18 246.3 27.2 245.28 26.47C245.04 26.3 244.83 26.09 244.59 25.92C242.31 24.27 239.72 23.77 237.04 24.35C233.74 25.06 231.77 27.31 230.91 30.52C230.45 32.25 230.45 34.04 230.85 35.77C231.41 38.15 232.8 39.94 235.09 40.85C238.16 42.06 241.17 41.99 244.12 40.04L244.13 40.03Z" fill="#CF2024"/>
<path d="M316.46 33.09C316.37 35.31 315.96 37.45 315.2 39.5C313.14 45.06 309.12 48.28 303.31 49.31C300.67 49.78 298.04 49.63 295.44 48.98C290.24 47.68 286.75 44.45 284.95 39.45C283.44 35.26 283.44 31 284.99 26.83C287 21.4 290.84 18.01 296.58 16.85C299.65 16.23 302.68 16.36 305.63 17.34C311.18 19.18 314.49 23.12 315.84 28.73C316.18 30.15 316.26 31.63 316.46 33.08V33.09ZM300 41.64C300.3 41.64 300.54 41.64 300.78 41.64C303.82 41.5 306.08 40.14 307.29 37.31C308.56 34.35 308.51 31.36 307.13 28.42C306.57 27.23 305.73 26.25 304.62 25.52C300.23 22.63 294.25 24.64 292.61 29.62C291.8 32.09 291.87 34.61 292.83 37.06C293.6 39.03 295 40.4 296.95 41.18C297.95 41.58 299 41.69 300 41.64Z" fill="#CF2024"/>
<path d="M192.66 16.09C194.13 16.06 195.99 16.34 197.79 16.92C200.27 17.73 202.32 19.14 203.78 21.34C204.01 21.68 204.22 22.04 204.38 22.42C204.78 23.34 204.6 24.05 203.74 24.54C202.46 25.27 201.16 25.95 199.83 26.57C198.91 27 198.29 26.85 197.63 26.11C195.46 23.67 192.7 23.34 189.72 23.95C189.17 24.06 188.62 24.39 188.17 24.74C187.25 25.47 187.35 26.62 188.35 27.22C189.44 27.87 190.66 28.05 191.89 28.19C193.88 28.41 195.85 28.74 197.78 29.28C199.15 29.66 200.45 30.18 201.64 30.98C203.37 32.14 204.55 33.71 205.11 35.72C206.04 39.09 205.68 42.26 203.5 45.09C202.32 46.62 200.75 47.65 198.96 48.33C196.34 49.31 193.61 49.71 190.82 49.54C189 49.43 187.19 49.19 185.45 48.59C182.48 47.57 180.23 45.7 178.75 42.92C178.58 42.61 178.42 42.29 178.3 41.96C177.9 40.86 178.13 40.16 179.16 39.6C180.4 38.92 181.66 38.29 182.93 37.66C183.24 37.51 183.59 37.41 183.93 37.37C184.43 37.31 184.85 37.51 185.15 37.93C185.28 38.12 185.39 38.33 185.5 38.54C186.51 40.39 188.14 41.3 190.16 41.66C191.51 41.9 192.85 41.87 194.2 41.66C194.98 41.54 195.68 41.26 196.32 40.83C197.62 39.95 197.76 38.06 196.18 37.21C195.18 36.67 194.11 36.4 193 36.22C191.03 35.9 189.05 35.6 187.11 35.14C185.98 34.87 184.87 34.4 183.84 33.87C179.77 31.76 178.95 27.44 179.43 24.45C179.95 21.21 181.87 19.03 184.73 17.63C187.1 16.47 189.64 16.05 192.69 16.08L192.66 16.09Z" fill="#CF2024"/>
<path d="M381.43 48.94C380.61 48.94 379.78 48.94 378.96 48.94C377.96 48.94 377.3 48.5 376.9 47.58C376.41 46.44 375.89 45.33 375.39 44.19C375.18 43.7 374.84 43.45 374.31 43.45C374.02 43.45 373.72 43.44 373.43 43.44C370.07 43.44 366.72 43.44 363.36 43.44C363.07 43.44 362.77 43.45 362.48 43.46C362.02 43.46 361.71 43.69 361.52 44.11C361.06 45.13 360.53 46.12 360.14 47.16C359.66 48.44 358.86 49.03 357.47 48.95C356.12 48.87 354.76 48.93 353.41 48.93C353.17 48.93 352.94 48.93 352.7 48.9C351.46 48.73 350.96 47.98 351.32 46.79C351.45 46.34 351.66 45.91 351.85 45.48C355.76 36.72 359.66 27.97 363.57 19.21C363.69 18.94 363.83 18.68 363.93 18.4C364.3 17.36 365.07 16.96 366.11 16.96C367.64 16.96 369.17 16.97 370.7 16.96C371.83 16.95 372.55 17.43 373.01 18.49C374.44 21.78 375.92 25.05 377.38 28.33C379.92 34.02 382.46 39.72 385 45.41C385.19 45.84 385.4 46.26 385.54 46.71C385.94 47.98 385.41 48.77 384.07 48.9C383.6 48.95 383.13 48.92 382.66 48.92C382.25 48.92 381.84 48.92 381.42 48.92L381.43 48.94ZM371.37 35.3C370.92 33.64 369.24 29.82 368.4 28.56C368.16 29 367.91 29.37 367.74 29.78C366.98 31.59 366.08 33.34 365.48 35.22C366.82 35.59 369.64 35.63 371.38 35.3H371.37Z" fill="#CF2024"/>
<path d="M266.31 40.85C266.9 40.88 267.47 40.93 268.04 40.93C271.45 40.93 274.87 40.93 278.28 40.93C280.63 40.93 280.95 41.25 280.96 43.56C280.96 44.74 280.99 45.92 280.94 47.09C280.9 48.29 280.41 48.75 279.2 48.87C278.91 48.9 278.61 48.89 278.32 48.89C272.38 48.89 266.43 48.89 260.49 48.89C260.02 48.89 259.55 48.88 259.09 48.8C258.46 48.69 258.02 48.31 257.92 47.64C257.85 47.18 257.8 46.71 257.8 46.24C257.8 37.35 257.79 28.47 257.8 19.58C257.8 17.43 258.25 17.01 260.39 16.98C261.45 16.97 262.51 16.97 263.57 16.98C263.98 16.98 264.4 17 264.79 17.09C265.64 17.27 266 17.68 266.07 18.53C266.12 19.06 266.1 19.59 266.1 20.12C266.1 26.36 266.1 32.6 266.1 38.83C266.1 39.46 266.01 40.11 266.29 40.84L266.31 40.85Z" fill="#CF2024"/>
<path d="M397.4 40.94C398.22 40.94 398.8 40.94 399.39 40.94C402.74 40.94 406.09 40.94 409.45 40.94C411.88 40.94 412.17 41.24 412.18 43.7C412.18 44.82 412.21 45.94 412.16 47.05C412.1 48.29 411.67 48.71 410.45 48.86C410.1 48.9 409.75 48.89 409.39 48.89C403.51 48.89 397.63 48.9 391.75 48.89C391.17 48.89 390.58 48.82 390.01 48.69C389.52 48.58 389.21 48.21 389.16 47.68C389.12 47.21 389.08 46.74 389.08 46.27C389.08 37.39 389.08 28.51 389.08 19.63C389.08 19.45 389.08 19.28 389.08 19.1C389.14 17.55 389.55 17.06 391.05 17C392.46 16.95 393.87 16.97 395.28 17C395.68 17 396.09 17.12 396.48 17.25C396.89 17.39 397.18 17.7 397.22 18.15C397.28 18.79 397.32 19.44 397.32 20.08C397.32 26.26 397.32 32.43 397.32 38.61C397.32 39.31 397.36 40 397.39 40.93L397.4 40.94Z" fill="#CF2024"/>
<path d="M107.97 57.95C108.35 58.38 108.75 58.8 109.11 59.24C111.93 62.7 114.75 66.17 117.58 69.63C117.93 70.06 118.19 70.62 118.79 70.78C119.22 70.41 119.08 69.97 119.08 69.59C119.09 66.3 119.08 63 119.09 59.71C119.09 59.13 118.99 58.53 119.27 58C119.69 57.89 120.01 57.92 120.07 58.41C120.1 58.7 120.11 59 120.11 59.29C120.11 63.82 120.11 68.35 120.11 72.87C120.11 73.15 120.06 73.42 120.04 73.65C119.46 73.82 119.32 73.41 119.12 73.16C117.32 70.98 115.54 68.79 113.76 66.61C112.61 65.2 111.46 63.78 110.3 62.38C109.93 61.93 109.54 61.5 109.18 61.09C108.55 61.32 108.71 61.8 108.71 62.17C108.69 65.4 108.71 68.64 108.7 71.87C108.7 72.4 108.7 72.93 108.63 73.45C108.61 73.62 108.37 73.82 108.18 73.9C107.94 74.01 107.63 73.73 107.6 73.4C107.57 73.11 107.57 72.81 107.57 72.52C107.57 68.05 107.57 63.58 107.57 59.11C107.57 58.77 107.62 58.43 107.65 58.09C107.76 58.04 107.87 57.99 107.99 57.94L107.97 57.95Z" fill="black"/>
<path d="M165.42 72.86C165.9 73.18 166.29 73.44 166.68 73.69C168.85 75.1 168.9 79.19 166.32 80.59C164.03 81.83 161.69 81.81 159.43 80.46C158.37 79.82 157.73 78.84 157.66 77.57C157.63 77.1 157.91 76.95 158.35 77.1C158.42 77.19 158.52 77.28 158.54 77.38C158.94 79.48 160.45 80.21 162.33 80.46C163.34 80.59 164.34 80.43 165.27 80.03C166.57 79.46 167.29 78.48 167.31 77.01C167.33 75.55 166.68 74.49 165.35 73.96C164.55 73.64 163.65 73.46 162.79 73.41C160.73 73.31 159.13 72.48 158.24 70.6C157.28 68.55 157.34 66.48 158.61 64.55C159.83 62.7 162.16 62.06 164.42 62.65C164.98 62.8 165.52 63.06 165.73 63.14C166.72 63.33 166.85 62.09 167.8 62.64C167.53 63.1 167.28 63.53 166.99 64.02C169.05 67.36 168.64 70.34 165.41 72.84L165.42 72.86ZM167.27 68.04C167.34 65.06 165.31 63.18 162.33 63.47C160.09 63.68 158.63 65.39 158.61 67.84C158.59 70.24 160.07 72.11 162.19 72.39C164.9 72.75 167.21 70.77 167.27 68.04Z" fill="black"/>
<path d="M354.64 63.31C355.14 62.98 355.55 62.7 356.01 62.4C356.44 63.22 355.57 63.51 355.55 64.07C357.31 66.88 357.59 69.87 354.09 72.77C354.18 73.25 354.66 73.28 354.97 73.5C356.43 74.5 357.03 75.89 356.79 77.61C356.55 79.34 355.52 80.49 353.89 81.06C352.34 81.59 350.77 81.62 349.21 81.09C347.52 80.51 346.41 79.39 346.15 77.57C346.08 77.08 346.42 76.99 346.9 77.11C346.97 77.29 347.08 77.5 347.14 77.72C347.56 79.26 348.67 80.01 350.15 80.36C351.4 80.65 352.62 80.54 353.78 80.06C355.08 79.52 355.85 78.52 355.88 77.07C355.91 75.63 355.26 74.54 353.93 74C353.13 73.67 352.23 73.43 351.38 73.43C346.91 73.45 344.91 68.54 346.92 64.92C348.09 62.82 350.62 62 353.06 62.71C353.56 62.86 354.04 63.09 354.63 63.32L354.64 63.31ZM351.38 63.44C348.83 63.47 347.14 65.22 347.11 67.85C347.08 70.48 348.94 72.42 351.45 72.41C353.89 72.4 355.88 70.34 355.86 67.84C355.84 65.21 354.01 63.41 351.38 63.44Z" fill="black"/>
<path d="M210.84 64.05C213.76 61.52 216.8 62.08 218.75 64.86C219.11 64.47 219.45 64.09 219.79 63.72C221.68 61.72 226.05 61.93 227.31 65.17C227.54 65.76 227.67 66.42 227.68 67.06C227.73 69 227.7 70.94 227.7 72.89C227.7 73.07 227.72 73.27 227.64 73.41C227.54 73.58 227.35 73.7 227.2 73.84C227.07 73.67 226.86 73.52 226.82 73.33C226.75 72.99 226.77 72.63 226.76 72.28C226.76 70.87 226.76 69.46 226.76 68.04C226.76 67.45 226.74 66.86 226.64 66.28C226.33 64.53 224.99 63.42 223.17 63.37C221.35 63.31 219.88 64.31 219.45 65.99C219.28 66.66 219.24 67.39 219.22 68.09C219.19 69.56 219.22 71.03 219.2 72.5C219.2 72.95 219.11 73.4 219.04 74.03C218.71 73.83 218.43 73.76 218.38 73.62C218.27 73.3 218.24 72.94 218.23 72.59C218.22 71.12 218.23 69.65 218.22 68.18C218.22 67.65 218.22 67.12 218.16 66.59C217.93 64.73 216.58 63.49 214.74 63.4C212.73 63.3 211.29 64.34 210.87 66.25C210.74 66.82 210.71 67.41 210.7 68C210.68 69.47 210.7 70.94 210.69 72.41C210.69 72.82 210.66 73.23 210.59 73.63C210.57 73.74 210.35 73.84 210.2 73.88C210.13 73.9 209.96 73.78 209.93 73.7C209.84 73.43 209.75 73.14 209.75 72.86C209.74 69.8 209.74 66.74 209.75 63.68C209.75 63.03 209.98 62.67 210.28 62.75C210.75 62.88 210.59 63.31 210.68 63.62C210.71 63.73 210.77 63.83 210.86 64.05H210.84Z" fill="black"/>
<path d="M251.88 71.97C250.92 72.59 250.07 73.18 249.18 73.71C248.89 73.89 248.52 73.97 248.18 74.02C247.72 74.08 247.24 74.1 246.77 74.09C246.36 74.09 245.95 74.04 245.55 73.96C245.21 73.89 244.87 73.76 244.56 73.61C244.24 73.46 243.94 73.28 243.65 73.07C243.37 72.86 243.1 72.63 242.86 72.37C241.01 70.32 240.95 66.53 242.74 64.37C243.32 63.68 244.03 63.18 244.87 62.86C245.65 62.56 246.46 62.47 247.29 62.48C248.19 62.48 249.06 62.65 249.82 63.12C250.5 63.54 251.1 64.07 251.84 64.62C252.08 63.82 251.97 63.13 251.99 62.44C252.01 61.68 251.99 60.91 251.99 60.15C251.99 59.45 252.02 58.75 252.03 58.12C252.55 57.82 252.83 57.94 252.89 58.39C252.95 58.79 252.93 59.21 252.93 59.62C252.93 63.85 252.93 68.08 252.93 72.31C252.93 72.77 252.86 73.24 252.78 73.69C252.76 73.78 252.5 73.86 252.35 73.88C252.27 73.88 252.11 73.77 252.09 73.69C252 73.13 251.95 72.57 251.87 71.97H251.88ZM247.07 63.42C244.25 63.44 242.43 65.35 242.4 68.27C242.37 71.05 244.24 73.18 247.23 73.16C249.34 73.14 251.94 71.74 251.95 68.29C251.96 65.04 249.49 63.27 247.07 63.41V63.42Z" fill="black"/>
<path d="M400.79 71.61C400.76 72.57 400.72 73.14 400.72 73.71C400.7 75.18 400.71 76.65 400.69 78.11C400.69 78.6 400.38 78.68 399.88 78.49C399.85 78.07 399.79 77.61 399.79 77.15C399.79 72.8 399.79 68.46 399.79 64.11C399.79 63.7 399.81 63.29 399.91 62.9C399.95 62.76 400.24 62.69 400.55 62.51C400.66 63.33 400.75 63.99 400.85 64.68C401.48 64.63 401.67 64.12 402 63.83C403.88 62.22 406.64 61.96 408.73 63.28C410.86 64.63 411.5 66.72 411.24 69.09C410.99 71.36 409.85 73.07 407.56 73.78C405.39 74.44 403.38 74.19 401.71 72.5C401.51 72.3 401.3 72.1 400.79 71.61ZM405.57 63.41C403.2 63.3 400.86 65.05 400.81 68.21C400.76 71.25 403.03 73.23 405.62 73.16C408.44 73.09 410.29 71.24 410.33 68.34C410.36 65.35 408.5 63.41 405.58 63.41H405.57Z" fill="black"/>
<path d="M394.3 68.72C390.87 68.82 387.58 68.69 384.37 68.8C383.97 69.46 384.26 69.95 384.47 70.41C385.21 72.06 386.51 72.95 388.3 73.11C389.76 73.24 391.11 72.92 392.31 72.06C392.88 71.65 393.27 71.62 393.35 71.91C393.5 72.44 393.06 72.64 392.75 72.86C390.89 74.16 388.85 74.48 386.71 73.74C384.55 72.99 383.38 71.38 383.15 69.13C383.07 68.32 383.07 67.45 383.29 66.68C384.67 61.88 389.96 61.6 392.54 63.64C394.11 64.88 394.6 66.57 394.3 68.72ZM384.16 67.57C384.34 67.69 384.43 67.81 384.52 67.81C387.16 67.84 389.8 67.86 392.43 67.87C392.71 67.87 392.99 67.8 393.26 67.76C393.49 66.08 392.92 64.79 391.53 64.03C389.88 63.14 388.14 63.06 386.47 63.94C385.03 64.7 384.26 65.96 384.15 67.56L384.16 67.57Z" fill="black"/>
<path d="M284.6 71.75C283.09 73.48 281.56 74.21 279.66 74.1C278.25 74.02 277.03 73.54 276 72.58C273.84 70.53 273.63 66.85 275.52 64.54C276.09 63.85 276.79 63.31 277.62 62.98C278.39 62.67 279.18 62.48 280.02 62.49C280.92 62.51 281.79 62.68 282.55 63.14C283.23 63.55 283.85 64.08 284.63 64.66C284.71 64.03 284.76 63.53 284.86 63.04C284.89 62.92 285.09 62.76 285.22 62.75C285.35 62.75 285.56 62.87 285.62 63C285.71 63.2 285.74 63.45 285.74 63.68C285.74 66.74 285.74 69.79 285.74 72.85C285.74 72.97 285.74 73.09 285.73 73.2C285.7 73.5 285.63 73.82 285.29 73.87C284.9 73.92 284.84 73.59 284.8 73.29C284.74 72.9 284.7 72.52 284.59 71.74L284.6 71.75ZM279.99 73.14C282.77 73.26 284.87 71.11 284.86 68.26C284.86 65.49 282.82 63.51 280.07 63.44C277.37 63.37 275.19 65.52 275.21 68.35C275.23 70.9 277.18 73.24 279.99 73.14Z" fill="black"/>
<path d="M203.11 64.78C203.19 64 203.25 63.44 203.31 62.91C203.73 62.64 204.03 62.69 204.15 63.14C204.21 63.36 204.19 63.61 204.19 63.84C204.19 66.84 204.19 69.83 204.19 72.83C204.19 73.12 204.17 73.43 204.05 73.68C203.98 73.82 203.7 73.86 203.39 74.01C203.29 73.3 203.21 72.74 203.14 72.18C202.59 72.04 202.4 72.49 202.11 72.74C200.33 74.29 198.29 74.5 196.18 73.67C193.94 72.78 192.82 70.96 192.72 68.6C192.61 66.16 193.58 64.22 195.83 63.13C198.03 62.06 200.16 62.29 202.08 63.87C202.38 64.12 202.67 64.38 203.12 64.78H203.11ZM198.47 73.15C201.31 73.26 203.28 70.99 203.3 68.42C203.32 65.54 201.34 63.47 198.5 63.46C195.74 63.46 193.71 65.44 193.66 68.2C193.61 71.04 195.73 73.25 198.47 73.14V73.15Z" fill="black"/>
<path d="M135.7 64.62C135.79 64 135.82 63.54 135.92 63.1C136 62.75 136.28 62.69 136.64 62.81C136.69 62.95 136.79 63.11 136.79 63.27C136.8 66.56 136.81 69.84 136.8 73.13C136.8 73.36 136.72 73.58 136.69 73.77C136.32 73.97 136.03 73.89 135.94 73.56C135.82 73.12 135.8 72.65 135.73 72.18C135.12 72.15 134.91 72.64 134.58 72.91C132.06 75.04 127.21 74.45 125.8 70.58C124.13 65.97 127.37 62.29 131.43 62.51C132.58 62.57 133.6 62.97 134.51 63.67C134.87 63.95 135.22 64.24 135.69 64.62H135.7ZM131.15 73.14C133.44 73.27 135.97 71.64 135.98 68.23C135.98 65.46 133.92 63.46 131.17 63.45C128.32 63.45 126.37 65.47 126.36 68.37C126.35 71.22 128.62 73.27 131.14 73.13L131.15 73.14Z" fill="black"/>
<path d="M371.32 73.79C370.92 73.96 370.66 73.81 370.59 73.49C370.51 73.15 370.52 72.79 370.52 72.44C370.52 71.03 370.52 69.61 370.52 68.2C370.52 67.85 370.52 67.49 370.5 67.14C370.46 64.88 369.18 63.73 367.61 63.48C365.55 63.15 363.69 64.09 362.99 65.9C362.72 66.6 362.62 67.38 362.59 68.13C362.53 69.72 362.58 71.31 362.56 72.9C362.56 73.18 362.48 73.47 362.4 73.75C362.38 73.82 362.21 73.89 362.11 73.89C362.01 73.89 361.83 73.82 361.81 73.75C361.72 73.42 361.63 73.08 361.62 72.74C361.6 70.5 361.62 68.27 361.62 66.03C361.62 63.79 361.62 61.56 361.62 59.32C361.62 58.97 361.62 58.61 361.69 58.27C361.78 57.89 362.08 57.92 362.44 58.06C362.73 60.06 362.38 62.12 362.64 64.12C363.15 64.24 363.33 63.87 363.58 63.65C364.78 62.61 366.19 62.34 367.71 62.54C369.64 62.79 371.02 64.15 371.36 66.1C371.42 66.45 371.45 66.8 371.45 67.15C371.45 69.15 371.45 71.15 371.45 73.15C371.45 73.38 371.37 73.6 371.33 73.79H371.32Z" fill="black"/>
<path d="M263.96 74.09C261.36 74.21 258.31 72.33 258.28 68.44C258.26 65.56 259.78 63.27 262.47 62.65C266.84 61.64 269.7 64.69 269.69 67.99C269.69 68.8 269.63 69.65 269.39 70.42C268.65 72.77 266.59 74.11 263.96 74.1V74.09ZM268.76 68.24C268.76 68.1 268.74 67.81 268.71 67.51C268.46 65.33 266.83 63.67 264.73 63.43C262.31 63.15 260.3 64.3 259.53 66.44C259.18 67.4 259.17 68.4 259.33 69.4C259.54 70.69 260.2 71.71 261.31 72.39C262.94 73.4 264.67 73.44 266.35 72.59C268.03 71.74 268.76 70.25 268.76 68.24Z" fill="black"/>
<path d="M307.77 73.75C307.33 73.96 307.09 73.81 306.99 73.5C306.91 73.23 306.92 72.92 306.92 72.63C306.92 68.16 306.92 63.68 306.92 59.21C306.92 58.86 306.96 58.5 307.07 58.18C307.12 58.04 307.43 58.01 307.78 57.85C307.81 60.05 307.84 62.09 307.86 64.09C308.5 64.31 308.67 63.81 308.96 63.57C310.42 62.41 312.04 62.22 313.79 62.73C315.28 63.17 316.16 64.22 316.56 65.67C316.7 66.18 316.77 66.72 316.77 67.24C316.8 69.12 316.79 71.01 316.78 72.89C316.78 73.12 316.75 73.37 316.65 73.58C316.6 73.69 316.38 73.76 316.23 73.79C316.16 73.8 316 73.67 315.98 73.59C315.92 73.24 315.88 72.89 315.87 72.54C315.86 71.07 315.89 69.6 315.85 68.13C315.83 67.43 315.78 66.71 315.63 66.03C315.3 64.51 314.21 63.6 312.66 63.45C310.14 63.21 308.32 64.61 307.93 67.13C307.86 67.59 307.85 68.07 307.85 68.54C307.84 69.83 307.85 71.13 307.84 72.42C307.84 72.88 307.77 73.34 307.74 73.74L307.77 73.75Z" fill="black"/>
<path d="M142.63 62.77C143.8 62.65 143.1 63.83 143.74 64.11C143.93 63.95 144.17 63.78 144.38 63.59C145.74 62.39 147.37 62.25 149.03 62.6C151.05 63.02 152.47 64.6 152.58 66.69C152.7 68.92 152.61 71.16 152.61 73.39C152.61 73.5 152.56 73.62 152.49 73.71C152.43 73.79 152.29 73.9 152.22 73.88C152.07 73.85 151.84 73.76 151.81 73.66C151.72 73.33 151.69 72.97 151.69 72.63C151.68 71.1 151.69 69.57 151.69 68.04C151.69 67.63 151.69 67.21 151.65 66.81C151.43 64.87 150.11 63.6 148.18 63.44C145.38 63.21 143.52 64.83 143.44 67.62C143.39 69.38 143.44 71.15 143.41 72.91C143.41 73.19 143.31 73.47 143.22 73.74C143.19 73.82 143.03 73.88 142.92 73.88C142.82 73.88 142.67 73.82 142.63 73.74C142.55 73.59 142.48 73.41 142.48 73.25C142.48 69.84 142.5 66.43 142.51 63.02C142.51 62.97 142.56 62.91 142.64 62.75L142.63 62.77Z" fill="black"/>
<path d="M291.4 62.86C291.873 62.8067 292.21 63.2367 292.41 64.15C292.71 63.95 292.99 63.79 293.23 63.59C294.91 62.22 296.78 62.14 298.71 62.87C300.2 63.43 301.24 64.59 301.34 66.14C301.5 68.65 301.36 71.17 301.34 73.69C301.34 73.73 301.27 73.77 301.23 73.81C300.88 73.92 300.63 73.78 300.57 73.45C300.5 73.05 300.52 72.63 300.52 72.22C300.52 70.69 300.52 69.16 300.52 67.63C300.52 67.16 300.5 66.68 300.41 66.23C300.26 65.46 299.87 64.81 299.27 64.29C297.09 62.44 293.5 63.38 292.57 66.09C292.36 66.69 292.29 67.35 292.27 67.99C292.23 69.52 292.26 71.05 292.25 72.58C292.25 72.93 292.23 73.28 292.15 73.62C292.12 73.73 291.88 73.87 291.76 73.86C291.62 73.85 291.43 73.69 291.38 73.56C291.3 73.35 291.31 73.1 291.31 72.87C291.31 69.75 291.31 66.64 291.31 63.52C291.31 63.29 291.37 63.07 291.41 62.85L291.4 62.86Z" fill="black"/>
<path d="M331.73 74.01C331.42 73.82 331.14 73.75 331.09 73.61C330.98 73.29 330.95 72.93 330.95 72.58C330.95 69.7 330.95 66.82 330.95 63.94C330.95 63.65 330.95 63.34 331.04 63.07C331.1 62.9 331.34 62.79 331.64 62.55C331.81 63.18 331.93 63.65 332.1 64.26C332.45 63.99 332.67 63.82 332.88 63.64C334.54 62.25 336.41 62.15 338.35 62.88C339.84 63.43 340.73 64.57 341.03 66.13C341.13 66.65 341.18 67.18 341.19 67.71C341.21 69.36 341.2 71 341.19 72.65C341.19 72.94 341.16 73.24 341.09 73.52C341.05 73.65 340.88 73.82 340.75 73.83C340.63 73.84 340.39 73.7 340.37 73.59C340.29 73.19 340.25 72.78 340.25 72.37C340.24 71.02 340.25 69.67 340.24 68.31C340.23 67.67 340.2 67.01 340.09 66.38C339.85 64.97 339 64.02 337.65 63.64C334.72 62.83 332.39 64.31 332.01 67.05C331.94 67.57 331.93 68.1 331.92 68.63C331.91 69.98 331.92 71.33 331.91 72.69C331.91 73.08 331.82 73.47 331.74 74.03L331.73 74.01Z" fill="black"/>
<path d="M183.31 63.56C182.43 63.47 181.75 63.41 180.87 63.32C181.1 63.01 181.2 62.74 181.34 62.71C181.91 62.6 182.49 62.56 183.09 62.5C183.68 61.51 183.09 60.36 183.57 59.43C184 59.29 184.17 59.52 184.21 59.83C184.27 60.29 184.26 60.77 184.3 61.24C184.33 61.64 184.4 62.03 184.45 62.36C185.64 62.99 187 62.1 188.04 63C188.06 63.02 188.04 63.11 188.02 63.28C186.9 63.7 185.63 63.19 184.44 63.61C184.4 63.96 184.32 64.31 184.31 64.65C184.31 66.59 184.31 68.53 184.31 70.47C184.31 70.59 184.31 70.71 184.32 70.82C184.45 72.74 185.09 73.28 187.04 73.12C187.44 73.09 187.83 73.06 188.29 73.02C188.26 73.29 188.29 73.55 188.21 73.6C186.07 74.94 183.59 73.76 183.43 71.27C183.31 69.45 183.38 67.62 183.36 65.8C183.36 65.1 183.32 64.4 183.3 63.54L183.31 63.56Z" fill="black"/>
<path d="M377.99 68.26C377.99 69.55 377.99 70.84 377.99 72.13C377.99 72.54 378.01 72.96 377.93 73.36C377.9 73.55 377.71 73.76 377.53 73.87C377.33 74 377.07 73.7 377.05 73.29C377.03 72.82 377.03 72.35 377.03 71.88C377.03 69.48 377.03 67.07 377.03 64.67C377.03 64.2 377.03 63.73 377.05 63.26C377.06 62.96 377.17 62.6 377.52 62.68C377.71 62.72 377.92 63.09 377.96 63.34C378.03 63.8 377.99 64.27 377.99 64.74C377.99 65.91 377.99 67.09 377.99 68.26Z" fill="black"/>
<path d="M134.5 60.97C133.03 61.05 132.53 59.49 131.3 59.16C130.12 59.56 129.62 61.1 128.04 61.13C128.16 60.86 128.2 60.68 128.3 60.58C129.02 59.89 129.73 59.19 130.48 58.54C131.08 58.02 131.61 58.02 132.21 58.54C133.03 59.26 133.86 59.99 134.5 60.96V60.97Z" fill="black"/>
<path d="M195.37 60.79C196.18 60.04 196.98 59.27 197.82 58.54C198.41 58.03 198.94 58.03 199.54 58.55C200.37 59.27 201.17 60.04 201.95 60.76C201.81 61.29 201.48 61.2 201.24 61.07C200.89 60.87 200.58 60.6 200.26 60.34C199.77 59.93 199.29 59.51 198.87 59.16C197.44 59.45 196.94 61.15 195.36 60.79H195.37Z" fill="black"/>
<path d="M385.76 60.84C386.48 59.92 387.39 59.18 388.27 58.42C388.7 58.04 389.32 58.03 389.73 58.42C390.58 59.2 391.53 59.9 392.35 61.07C391.85 61 391.54 61.05 391.34 60.92C390.95 60.67 390.62 60.33 390.25 60.03C389.85 59.7 389.44 59.39 388.97 59.02C388.19 59.67 387.49 60.28 386.76 60.87C386.48 61.1 386.16 61.23 385.76 60.85V60.84Z" fill="black"/>
<path d="M202.46 58.13C201.98 58.07 201.62 58.13 201.49 57.99C200.83 57.28 200.2 56.53 199.77 55.63C200.34 55.36 200.76 55.39 201.06 55.87C201.49 56.55 201.91 57.24 202.46 58.13Z" fill="black"/>
<path d="M377.47 58.04C377.86 58.02 378.26 58.38 378.29 58.78C378.32 59.19 377.99 59.55 377.56 59.57C377.09 59.59 376.78 59.31 376.76 58.86C376.74 58.43 377.07 58.06 377.47 58.04Z" fill="black"/>
<path d="M389.46 75.99C389.49 76.51 389.22 76.83 388.89 76.82C388.55 76.82 388.25 76.5 388.25 76.17C388.25 75.83 388.58 75.51 388.93 75.6C389.15 75.66 389.33 75.89 389.46 75.99Z" fill="black"/>
<defs>
<linearGradient id="paint0_linear_320_668" x1="44.9998" y1="90" x2="44.9998" y2="2.09799e-05" gradientUnits="userSpaceOnUse">
<stop stop-color="#A41C20"/>
<stop offset="1" stop-color="#DA292F"/>
</linearGradient>
</defs>
</svg>
