<svg width="393" height="70" viewBox="0 0 393 70" fill="none" xmlns="http://www.w3.org/2000/svg">
<path d="M128.831 65.32C128.751 56.94 128.791 48.56 128.791 40.18C128.791 28.35 128.791 16.52 128.791 4.69C128.791 3.69 128.971 2.71 127.381 2.74C123.581 2.81 119.771 2.78 115.961 2.75C114.961 2.75 114.571 3.14 114.601 4.12C114.641 5.66 114.611 7.2 114.611 9.32C109.101 3.98 102.791 1.85 95.8407 1.73C75.4107 1.36 59.6007 19.28 62.3307 39.57C64.9407 58.97 83.8507 71.88 102.851 67.27C107.241 66.2 111.071 64.18 114.621 60.59C114.621 62.72 114.691 64.32 114.601 65.91C114.531 67.21 115.031 67.6 116.311 67.57C119.761 67.49 123.221 67.44 126.671 67.59C128.511 67.67 128.851 67.01 128.831 65.32ZM95.3307 55.17C84.1507 55.1 75.1308 46.11 75.1108 35.02C75.0908 23.89 84.1207 14.78 95.1907 14.75C106.481 14.73 115.601 23.7 115.651 34.88C115.701 46.01 106.451 55.24 95.3307 55.17Z" fill="#1469EE"/>
<path d="M236.59 1.69998C214 0.249982 196.531 20.51 201.671 42.52C204.511 54.7 212.221 62.97 224.161 66.69C236.251 70.46 247.23 67.77 256.84 59.52C257.88 58.62 257.98 58.05 256.84 57.12C254.49 55.21 252.21 53.21 250.01 51.14C248.76 49.96 247.94 49.74 246.39 50.94C236.44 58.63 221.87 55.38 216.19 44.31C215.21 42.4 215.27 42.29 217.45 42.29C225.34 42.29 233.23 42.29 241.13 42.29C249.02 42.29 256.921 42.24 264.811 42.32C266.271 42.33 266.911 41.98 267.171 40.47C270.471 21.32 256.01 2.93998 236.61 1.68998L236.59 1.69998ZM252.13 30.79C246.15 30.72 240.171 30.76 234.181 30.76C228.191 30.76 222.22 30.71 216.23 30.79C214.63 30.81 214.331 30.38 214.801 28.89C217.391 20.56 225.381 14.75 234.281 14.78C243.101 14.82 250.96 20.65 253.47 28.94C253.9 30.35 253.67 30.8 252.12 30.78L252.13 30.79Z" fill="#1469EE"/>
<path d="M326.05 67.56C317.8 67.44 309.56 67.51 301.31 67.51C292.92 67.51 284.53 67.48 276.15 67.54C274.73 67.54 274.14 67.21 274.2 65.68C274.38 61.32 273.77 56.91 274.57 52.61C276.02 44.84 281.15 39.92 287.9 36.44C292.83 33.9 298.19 32.69 303.59 31.67C305.24 31.36 306.89 30.95 308.48 30.4C311.47 29.37 313.33 27.35 313.52 24.05C313.7 20.82 312.24 18.44 309.48 16.95C304.21 14.1 298.66 14.17 293.07 15.8C289.91 16.72 287.12 18.37 284.82 20.73C284.02 21.56 283.53 21.43 282.79 20.73C280.37 18.47 277.96 16.2 275.42 14.07C274.21 13.06 274.35 12.44 275.39 11.46C282.29 4.96996 290.52 1.83996 299.94 1.86996C305.84 1.88996 311.59 2.76996 316.82 5.80996C326.58 11.49 330.25 22.5 325.62 32.11C323.51 36.49 320 39.23 315.57 40.94C311.28 42.59 306.78 43.44 302.29 44.34C299.24 44.95 296.28 45.84 293.57 47.42C291.58 48.58 289.96 50.1 289.21 52.38C288.71 53.91 288.89 54.59 290.82 54.57C302.45 54.48 314.08 54.53 325.71 54.53C327.517 54.53 328.42 55.4366 328.42 57.25C328.42 59.86 328.31 62.47 328.45 65.07C328.55 66.94 328.07 67.6 326.05 67.56Z" fill="#1469EE"/>
<path d="M390.82 44.39C388.35 44.45 385.88 44.3 383.42 44.44C381.58 44.55 380.87 44.13 380.94 42.08C381.11 37.01 381 31.94 381 26.87C381 21.94 381 17.01 381 12.08C380.99 6.79 378.15 3.13 373 2.25C368.13 1.42 363.62 2.49 360.3 6.33C350.86 17.26 341.52 28.27 332.22 39.32C329.33 42.75 328.47 46.74 330.4 50.95C332.32 55.14 336.1 56.05 340.26 56.1C340.68 56.1 341.11 56.1 341.53 56.1C349.43 56.1 357.32 56.13 365.22 56.07C366.6 56.06 367.07 56.43 367.02 57.84C366.92 60.58 367.02 63.33 366.97 66.08C366.95 67.14 367.25 67.58 368.4 67.56C372.14 67.5 375.87 67.5 379.61 67.56C380.75 67.58 381.06 67.17 381.03 66.09C380.97 63.27 381.07 60.45 380.99 57.64C380.96 56.45 381.3 56.04 382.52 56.07C385.34 56.15 388.16 56.06 390.98 56.11C392.03 56.13 392.5 55.88 392.48 54.71C392.41 51.75 392.39 48.79 392.48 45.84C392.52 44.52 391.93 44.35 390.84 44.38L390.82 44.39ZM365.67 44.43C358.35 44.38 351.02 44.41 343.14 44.41C351.12 35.05 358.82 26.02 366.53 16.99C366.68 17.05 366.83 17.11 366.99 17.17V23.41C366.99 29.82 366.99 36.23 366.99 42.64C366.99 43.57 367.151 44.45 365.681 44.44L365.67 44.43Z" fill="#1469EE"/>
<path d="M58.5204 61.15C51.7404 66.85 44.0704 70.05 34.9104 69.77C19.8604 70.56 1.94045 58.36 0.310452 37.66C-1.12955 19.33 12.0803 2.89997 30.3303 0.539972C40.8703 -0.820028 50.4603 1.83997 58.5703 9.02997C59.7203 10.05 60.1204 10.68 58.6304 11.84C56.0304 13.88 53.5604 16.11 51.1504 18.37C50.1304 19.32 49.5204 19.33 48.3904 18.45C36.1504 8.96997 18.4304 14.93 14.6104 29.76C12.3104 38.7 16.0903 48.14 23.9403 53.03C31.8003 57.93 41.9704 57.25 48.9304 51.2C50.2704 50.03 50.9204 50.08 52.0404 51.38C54.1104 53.78 56.3204 56.06 58.5904 58.27C59.7404 59.39 59.8304 60.05 58.5204 61.15Z" fill="#1469EE"/>
<path d="M192.81 15.67C183.43 15.57 174.06 15.62 164.68 15.63C163.56 15.63 162.44 15.63 161.32 15.87C158.64 16.44 157.19 18.1 156.72 20.73C156.21 23.6 156.57 26.5 156.44 29.38C156.37 31.02 157.54 30.7 158.47 30.7C167.42 30.71 176.38 30.68 185.33 30.73C187.63 30.75 190.61 29.72 192.03 31.17C193.34 32.51 192.37 35.46 192.39 37.7C192.44 42.33 192.4 42.33 187.84 42.33C178.04 42.33 168.24 42.36 158.44 42.29C156.88 42.28 156.39 42.68 156.41 44.28C156.5 51.25 156.37 58.23 156.5 65.2C156.54 67.2 155.9 67.68 154.02 67.59C150.78 67.44 147.53 67.47 144.29 67.58C142.82 67.63 142.37 67.22 142.38 65.71C142.45 57.96 142.41 50.21 142.41 42.46C142.41 35.34 142.39 28.23 142.41 21.11C142.45 9.91998 148.46 3.23998 159.61 2.85998C170.88 2.47998 182.17 2.74998 193.45 2.68998C194.71 2.68998 194.98 3.21998 194.96 4.33998C194.9 7.36998 194.84 10.4 194.98 13.43C195.06 15.15 194.62 15.69 192.81 15.67Z" fill="#1469EE"/>
</svg>
