<svg width="147" height="90" viewBox="0 0 147 90" fill="none" xmlns="http://www.w3.org/2000/svg">
<path fill-rule="evenodd" clip-rule="evenodd" d="M11.55 27.86C14.01 20.39 21.01 15 29.27 15L29.26 14.98H54.74L44.6599 58.79L43.6799 63.08C41.1599 70.03 34.52 74.99 26.72 74.99H0.620117L10.98 29.97L11.3899 28.36C11.41 28.2955 11.4319 28.2294 11.454 28.1623C11.4867 28.0629 11.5202 27.9615 11.55 27.86ZM15.26 35.42C15.54 34.26 16.4699 32.81 17.8999 31.62L17.8701 31.63C19.3101 30.44 20.8801 29.85 22.5601 29.87H45.6499L45.5801 30.17C45.1901 31.84 44.3001 33.32 42.8701 34.5C41.4201 35.67 39.8499 36.27 38.1699 36.27H21.45L20.3701 41.16H38.02L37.96 41.46C37.6 43.15 36.68 44.61 35.23 45.79C33.79 46.97 32.2 47.57 30.52 47.57H18.95L17.5701 53.77C17.2201 55.44 16.3101 56.89 14.8601 58.07C13.4201 59.25 11.8499 59.85 10.1699 59.85H9.87012L15.26 35.42Z" fill="#08509F"/>
<path fill-rule="evenodd" clip-rule="evenodd" d="M103.42 27.08C106.09 20.02 112.89 15 120.86 15V15.01H146.33L135.8 60.78C133.79 68.94 126.45 75 117.69 75H92.21L102.81 28.93C102.81 28.93 103.29 27.45 103.42 27.08ZM132.12 29.89C133.57 29.89 134.79 30.36 135.71 31.29L135.73 31.28C136.65 32.21 137.13 33.38 137.14 34.77C137.14 35.21 137.1 35.66 137.01 36.09L136.97 36.3H125.24L121.54 53.77C121.19 55.45 120.3 56.9 118.87 58.08C117.43 59.25 115.87 59.85 114.19 59.85H113.87L118.87 36.31H113.89C112.42 36.31 111.22 35.84 110.28 34.91C109.35 33.98 108.88 32.79 108.88 31.38C108.88 30.98 108.92 30.55 109.01 30.1L109.05 29.89H132.12Z" fill="#51B748"/>
<path fill-rule="evenodd" clip-rule="evenodd" d="M60.5505 13.6C62.7805 5.75 69.9705 0 78.4905 0H103.99L86.5605 75.85H86.5505C84.5105 83.98 77.1904 90 68.4604 90H42.9805L60.1404 15.39C60.2504 14.78 60.3805 14.19 60.5505 13.6ZM69.5002 18.11H85.0903H85.1003C86.5603 18.11 87.7902 18.58 88.7102 19.52C89.6602 20.46 90.1301 21.63 90.1301 23.02C90.1301 23.47 90.0802 23.91 90.0002 24.34L88.8203 29.76C88.4403 31.47 87.5303 32.93 86.1104 34.1C84.6703 35.27 83.1102 35.87 81.4302 35.87H65.6902L64.3901 42.04C64.0401 43.71 63.1502 45.16 61.7202 46.34C60.2902 47.52 58.7203 48.12 57.0403 48.12H56.7402L63.1003 18.09H69.5002V18.11ZM83.5603 24.53H68.1104L67.0403 29.44H82.4902L83.5603 24.53Z" fill="#F27123"/>
</svg>
