<svg width="101" height="100" viewBox="0 0 101 100" fill="none" xmlns="http://www.w3.org/2000/svg">
<path d="M100.26 100H0.259766V0C0.689766 0.01 1.11981 0.04 1.55981 0.04C33.9898 0.04 66.4199 0.04 98.8499 0.04C99.2699 0.04 99.6997 0.04 100.22 0.04C100.22 0.57 100.22 0.99 100.22 1.42C100.22 33.82 100.22 66.21 100.22 98.61C100.22 99.08 100.25 99.54 100.26 100.01V100ZM52.4197 60.8C52.4197 66.95 52.4197 72.91 52.4197 78.87C52.4197 79.27 52.3298 79.67 52.2598 80.06C51.6098 83.29 48.7197 85.3 45.1997 84.97C42.3797 84.71 39.9697 82 39.8997 79.01C39.8597 77.45 39.9197 75.88 39.7397 74.33C39.5397 72.58 38.0496 71.46 36.3896 71.58C34.7596 71.71 33.4997 73.07 33.4497 74.8C33.4197 76.1 33.4297 77.4 33.4397 78.7C33.4997 84.48 37.4596 89.4 43.1296 90.74C48.8596 92.09 54.8697 89.32 57.4497 84.17C58.5397 81.99 58.7497 79.68 58.7397 77.28C58.6997 67.88 58.8097 58.48 58.6797 49.09C58.5897 42.57 53.0198 37.2 46.4998 36.98C38.3098 36.71 32.0697 43.82 33.4097 51.91C34.3897 57.8 39.4396 62.22 45.3796 62.46C47.8396 62.56 50.1197 62.01 52.4197 60.78V60.8ZM62.0598 35.7C62.0598 43.5 62.0598 51.3 62.0598 59.09C62.0598 61.05 63.3997 62.48 65.2197 62.48C67.0097 62.48 68.2998 61.09 68.2998 59.14C68.2998 43.54 68.2998 27.95 68.2998 12.35C68.2998 10.3 67.0597 8.93 65.2097 8.92C63.3397 8.92 62.0598 10.34 62.0598 12.41C62.0598 20.17 62.0598 27.94 62.0598 35.7Z" fill="#E21E26"/>
<path d="M45.99 43.19C49.62 43.21 52.5 46.1 52.52 49.74C52.54 53.35 49.5099 56.38 45.9199 56.36C42.3199 56.33 39.3199 53.26 39.3899 49.67C39.4599 46.02 42.37 43.17 45.99 43.2V43.19Z" fill="#E21E26"/>
</svg>
