<svg width="652" height="66" viewBox="0 0 652 66" fill="none" xmlns="http://www.w3.org/2000/svg">
<path d="M240.46 0.570042V64.91H223.13V25.94C222.9 25.87 222.67 25.8 222.45 25.73C220.85 29.27 219.22 32.8 217.66 36.36C213.73 45.29 209.89 54.25 205.84 63.12C205.4 64.08 203.83 65.01 202.73 65.09C199.16 65.34 195.56 65.11 191.97 65.23C190.02 65.3 189.11 64.59 188.31 62.74C183.13 50.72 177.77 38.78 172.46 26.82C172.28 26.42 171.98 26.07 171.28 25V64.96H153.42V0.590042C161.87 0.590042 170.2 0.500041 178.52 0.720041C179.4 0.740041 180.54 2.47004 181.05 3.64004C186.11 15.19 191.06 26.79 196.05 38.38C196.28 38.91 196.57 39.42 197.16 40.61C200.3 33.23 203.21 26.4 206.11 19.57C208.53 13.88 210.88 8.15004 213.42 2.52004C213.8 1.67004 215.04 0.670042 215.9 0.660042C224 0.520042 232.11 0.580042 240.48 0.580042L240.46 0.570042Z" fill="#0076C5"/>
<path d="M572.85 65.15C564.41 65.15 556.17 65.23 547.93 65.05C546.9 65.03 545.56 63.78 544.93 62.75C536.92 49.53 529.02 36.25 520.53 22.05V64.96H502.75V0.590025C506.44 0.590025 510.21 0.590025 513.98 0.590025C518.17 0.590025 522.36 0.410026 526.53 0.680026C527.88 0.770026 529.7 1.71002 530.39 2.82002C538.32 15.68 546.07 28.64 553.87 41.58C554.14 42.03 554.47 42.45 555.25 43.55V0.790026H572.84V65.15H572.85Z" fill="#0076C5"/>
<path d="M0.900391 0.590007C9.28039 0.590007 17.4005 0.470006 25.5105 0.720006C26.7005 0.760006 28.1904 2.36001 28.9504 3.60001C36.9604 16.69 44.8405 29.86 53.2705 43.85V0.800006H70.8406V65.14C65.2806 65.14 59.6504 64.66 54.1504 65.26C46.9504 66.04 42.6504 63.91 39.1404 57.06C33.1004 45.24 25.6906 34.12 18.3606 21.87V64.94H0.900391V0.590007Z" fill="#0076C5"/>
<path d="M360.03 0.600028C374.33 0.600028 388.32 0.500027 402.31 0.680027C405.36 0.720027 408.52 1.42003 411.42 2.41003C416.63 4.20003 419.35 8.16003 420.09 13.62C420.94 19.91 421.04 25.99 416.57 31.18C422.67 37.7 424.2 49.6 419.8 57.38C416.68 62.9 411.05 64.7 405.49 64.87C390.44 65.32 375.37 65.02 360.03 65.02V0.600028ZM378.65 50.22C383.88 50.22 388.63 50.29 393.38 50.19C395.86 50.14 398.36 49.94 400.8 49.53C403.72 49.04 403.51 46.58 403.42 44.47C403.33 42.34 403.24 39.72 400.35 39.65C393.15 39.46 385.95 39.59 378.65 39.59V50.22ZM378.56 24.83C385.49 24.83 392.34 25.03 399.15 24.61C400.14 24.55 401.37 21.64 401.68 19.91C401.87 18.85 400.58 16.48 399.88 16.45C392.83 16.19 385.76 16.29 378.55 16.29V24.83H378.56Z" fill="#0076C5"/>
<path d="M598.56 40.27V65.01H579.75V0.760032H598.45V25.75C600.45 24.47 601.8 23.93 602.73 22.97C609.3 16.25 615.72 9.39003 622.34 2.73003C623.44 1.62003 625.3 0.740032 626.83 0.690032C633.73 0.470032 640.64 0.600032 648.3 0.600032C637.88 11.26 627.9 21.48 617.47 32.15C628.7 43.11 639.79 53.94 651.31 65.19C643.22 65.19 635.63 65.24 628.04 65.13C627.13 65.12 626.07 64.41 625.37 63.73C617.83 56.45 610.37 49.09 602.84 41.8C601.91 40.9 600.7 40.31 599.62 39.57C599.27 39.8 598.92 40.04 598.57 40.27H598.56Z" fill="#0076C5"/>
<path d="M148.86 65.14C142.83 65.14 137.22 65.25 131.61 65.04C130.58 65 129.06 63.89 128.66 62.92C125.05 54.13 125.11 54.1 115.73 54.09C111.07 54.09 106.4 54.2 101.75 54C99.3302 53.89 98.0402 54.78 97.1702 56.96C93.8802 65.13 93.8403 65.12 85.0203 65.14C81.6803 65.14 78.3402 65.14 74.4102 65.14C76.9102 58.65 79.2501 52.51 81.6401 46.4C87.2701 32.01 92.9503 17.63 98.5503 3.23002C99.2703 1.39002 100.08 0.410017 102.37 0.500017C108.46 0.730017 114.56 0.500017 120.65 0.680017C121.74 0.710017 123.4 1.64002 123.78 2.57002C132.06 22.7 140.2 42.89 148.35 63.07C148.57 63.61 148.63 64.21 148.85 65.13L148.86 65.14ZM111.65 19.39C108.82 26.81 106.35 33.26 103.76 40.03H119.67C117.04 33.27 114.54 26.81 111.65 19.39Z" fill="#0076C5"/>
<path d="M337.021 65.15C330.941 65.15 325.331 65.26 319.731 65.05C318.701 65.01 317.201 63.84 316.801 62.84C313.281 54.15 313.341 54.13 304.081 54.11C299.301 54.11 294.511 54.19 289.731 54.03C287.501 53.95 285.871 54.59 285.521 56.81C284.311 64.46 279.581 66.25 272.631 65.22C269.491 64.76 266.231 65.14 262.551 65.14C265.571 57.38 268.441 49.98 271.321 42.59C276.421 29.51 281.531 16.43 286.621 3.35003C287.311 1.56003 288.111 0.43003 290.461 0.51003C296.671 0.74003 302.891 0.51003 309.111 0.68003C310.101 0.71003 311.611 1.61003 311.971 2.49003C320.211 22.64 328.331 42.83 336.451 63.03C336.671 63.57 336.761 64.16 337.031 65.15H337.021ZM307.891 40.1C305.221 33.28 302.651 26.72 299.791 19.43C297.001 26.73 294.491 33.29 291.881 40.1H307.891Z" fill="#0076C5"/>
<path d="M448.811 0.600022C456.081 0.600022 463.131 0.530022 470.181 0.690022C471.131 0.710022 472.541 1.73002 472.911 2.62002C480.941 22.21 488.851 41.85 496.781 61.49C497.221 62.57 497.571 63.69 498.091 65.15C491.961 65.15 486.141 65.25 480.331 65.05C479.411 65.02 478.181 63.79 477.711 62.81C476.371 60.04 475.361 57.11 474.151 54.09C465.951 54.09 457.831 54.02 449.721 54.18C448.741 54.2 447.771 55.37 446.821 56.05C446.651 56.17 446.611 56.47 446.511 56.69C445.251 59.48 444.701 63.3 442.541 64.77C440.491 66.17 436.771 65.14 433.781 65.15C430.561 65.17 427.331 65.15 423.431 65.15C431.971 43.42 440.381 22.03 448.801 0.600022H448.811ZM460.791 19.36C457.921 26.8 455.391 33.37 452.831 40.03H468.851C466.221 33.27 463.691 26.79 460.801 19.36H460.791Z" fill="#0076C5"/>
</svg>
