<svg width="243" height="86" viewBox="0 0 243 86" fill="none" xmlns="http://www.w3.org/2000/svg">
<path d="M0.510024 39.61C1.51002 47.99 5.30003 55.37 10.89 60.76C10.29 58.96 10.09 57.17 10.49 55.57C11.69 50.58 16.68 47.19 23.66 46.19V22.25C5.29999 19.06 -0.679976 30.63 0.510024 39.61Z" fill="#E49F15"/>
<path d="M70.3502 31.83C69.3502 23.45 65.5602 16.07 59.9702 10.68C60.5702 12.28 60.7702 14.07 60.3702 15.87C59.1702 20.86 54.1802 24.25 47.2002 25.25V49.19C65.5602 52.38 71.3402 40.61 70.3502 31.83Z" fill="#E49F15"/>
<path d="M1.10986 27.84C5.89986 21.25 14.4799 17.46 30.2399 22.05C57.9699 29.83 66.9499 11.67 51.1899 4.29C46.3999 1.9 41.0099 0.5 35.4299 0.5C18.6699 0.5 4.69986 12.27 1.10986 27.84Z" fill="#E49F15"/>
<path d="M69.7503 43.4C64.9603 49.99 56.3802 53.78 40.6203 49.19C12.6903 41.41 3.71023 59.57 19.4702 67.15C24.2602 69.55 29.6502 70.94 35.2302 70.94C52.1902 70.74 66.1603 59.17 69.7503 43.4Z" fill="#E49F15"/>
<path d="M109.73 7.96002C92.9697 7.96002 79.4697 20.48 79.4697 35.84C79.4697 51.2 93.0897 63.72 109.73 63.72C126.37 63.72 139.99 51.2 139.99 35.84C139.99 20.48 126.45 7.96002 109.73 7.96002ZM109.73 53.62C105.27 53.36 101.09 51.34 98.1097 48.01C95.1297 44.68 93.5798 40.31 93.8098 35.84C93.5598 31.36 95.0998 26.97 98.0798 23.62C101.07 20.27 105.26 18.25 109.73 17.98C114.19 18.24 118.37 20.26 121.35 23.59C124.33 26.92 125.88 31.29 125.65 35.76C125.88 40.23 124.33 44.6 121.35 47.93C118.37 51.26 114.19 53.28 109.73 53.54" fill="#008C4F"/>
<path d="M242.141 46.96C242.081 44.95 241.57 42.97 240.66 41.17C239.71 39.26 238.29 37.62 236.54 36.4C235.52 35.68 234.42 35.09 233.25 34.66C235.11 33.81 236.74 32.51 237.98 30.88C239.71 28.35 240.531 25.31 240.331 22.25C240.321 20.47 239.931 18.72 239.201 17.09C238.471 15.47 237.411 14.02 236.091 12.83C232.771 10.28 228.65 9.02 224.48 9.27H194.48V62.23H220.73C224.72 62.33 228.7 61.75 232.5 60.53C235.53 59.6 238.18 57.74 240.07 55.2C241.72 52.75 242.5 49.82 242.26 46.88L242.151 46.96H242.141ZM217.25 17.38C223.83 17.38 226.07 18.74 226.07 23.7C226.07 27.9 223.5 29.64 217.48 29.64H213.961L210.18 39.55H217.75C224.33 39.55 227.771 41.74 227.771 46.78C227.771 51.82 223.99 54.01 217.44 54.01H208.781V17.45L217.25 17.37V17.38Z" fill="#008C4F"/>
<path d="M188.91 49.31C185.36 52.12 180.96 53.64 176.43 53.62C171.52 53.78 166.75 52 163.15 48.65C159.56 45.3 157.43 40.67 157.25 35.76C157.43 30.85 159.55 26.21 163.14 22.86C166.74 19.51 171.52 17.73 176.43 17.9C180.96 17.88 185.36 19.4 188.91 22.21V11.39C184.21 9.05999 179.03 7.84999 173.78 7.86999C156.68 7.86999 142.8 20.35 142.8 35.75C142.8 51.15 156.68 63.63 173.78 63.63C179.03 63.66 184.22 62.44 188.91 60.07V49.29V49.31Z" fill="#008C4F"/>
<path d="M88.1299 79V71.28H86.0099V78.47L85.2899 77.15L84.08 74.96L83.02 73.07L82.0699 71.29H79.46V81.88H81.65V74.58L85.77 81.88H88.34V79" fill="#008C4F"/>
<path d="M93.6199 73.56C93.0499 73.56 92.4899 73.67 91.9599 73.86C91.4299 74.02 90.9399 74.32 90.5599 74.73C90.1299 75.15 89.7999 75.67 89.6099 76.24C89.3799 76.92 89.2799 77.64 89.3099 78.36C89.3199 79.07 89.4999 79.77 89.8399 80.4C90.0999 80.89 90.4899 81.3 90.9699 81.57C91.4199 81.82 91.9299 81.95 92.4499 81.95C92.9299 81.95 93.3899 81.84 93.8099 81.61C94.0699 81.45 94.2999 81.24 94.4899 81C94.5599 81.53 94.5599 82.06 94.4899 82.59C94.4199 82.9 94.2499 83.19 93.9999 83.38C93.6999 83.56 93.3599 83.65 93.0199 83.64C92.1599 83.59 91.3099 83.39 90.5199 83.03H90.2599L90.4499 85.15C90.9199 85.28 91.3999 85.39 91.8899 85.45C92.4199 85.49 92.9499 85.49 93.4799 85.45C94.3199 85.5 95.1499 85.24 95.8299 84.73C96.1399 84.39 96.3699 83.99 96.5099 83.55C96.6499 83.11 96.6899 82.65 96.6199 82.19V74.06C95.6799 73.83 94.7099 73.69 93.7399 73.64L93.6299 73.53L93.6199 73.56ZM94.5999 78.21C94.5799 78.72 94.4099 79.2 94.1099 79.61C93.9999 79.76 93.8599 79.88 93.6899 79.96C93.5299 80.04 93.3499 80.09 93.1599 80.1C92.9499 80.16 92.7299 80.17 92.5199 80.12C92.3099 80.07 92.1099 79.97 91.9499 79.83C91.6099 79.43 91.4299 78.92 91.4599 78.39C91.4099 77.83 91.4999 77.28 91.7199 76.76C91.8799 76.4 92.1599 76.1 92.5099 75.93C92.8499 75.75 93.2199 75.65 93.6099 75.67C93.8899 75.62 94.1699 75.62 94.4399 75.67C94.5099 76.55 94.5099 77.44 94.4399 78.32" fill="#008C4F"/>
<path d="M100.8 72.12L101.37 72.8H102.85L101.98 71.1H99.5598L98.7998 72.8H100.31L100.8 72.12Z" fill="#008C4F"/>
<path d="M104.06 79.84V75.79C104.06 74.31 103.04 73.56 101.22 73.56C100.25 73.57 99.3002 73.74 98.3802 74.05V75.94H98.6802C99.0402 75.75 99.4202 75.59 99.8102 75.49C100.23 75.37 100.66 75.31 101.1 75.3C102.01 75.3 102.12 75.68 102.12 75.98C102.12 76.28 102.12 76.47 101.86 76.51C101.34 76.75 100.79 76.94 100.23 77.08C99.5402 77.28 98.9002 77.61 98.3402 78.06C98.1102 78.28 97.9402 78.56 97.8302 78.86C97.7302 79.16 97.6902 79.48 97.7302 79.8C97.7302 80.12 97.7902 80.43 97.9102 80.72C98.0302 81.01 98.2202 81.28 98.4402 81.5C98.6902 81.74 98.9902 81.93 99.3102 82.04C99.6402 82.16 99.9802 82.2 100.33 82.18H101.54L101.88 80.29L101.54 80.48C101.54 80.48 101.16 80.48 100.59 80.71C100.02 80.94 99.6802 80.26 99.6802 79.95C99.6602 79.81 99.6802 79.68 99.7302 79.55C99.7802 79.42 99.8702 79.31 99.9802 79.23C100.38 79 100.79 78.81 101.23 78.66C101.54 78.58 101.83 78.45 102.1 78.28V82.25H104.29V80.21" fill="#008C4F"/>
<path d="M112.49 80.52V76.06C112.46 75.61 112.35 75.16 112.19 74.74C112 74.35 111.69 74.02 111.32 73.79C110.85 73.55 110.33 73.43 109.81 73.45C109.38 73.42 108.94 73.49 108.55 73.67C108.15 73.85 107.81 74.12 107.54 74.47V73.64H105.35V81.58H107.58V78.06C107.56 77.78 107.56 77.5 107.58 77.23C107.58 75.98 108.22 75.41 109.09 75.41C109.96 75.41 110.3 75.86 110.34 76.85C110.38 77.83 110.34 79.69 110.34 81.39V81.58H112.65V80.22" fill="#008C4F"/>
<path d="M126.45 71.29H124.03V75.07H120.25V70.95H117.87V81.54H120.25V81.2C120.27 80.92 120.27 80.64 120.25 80.37V76.89H124.22V81.54H126.64V70.95" fill="#008C4F"/>
<path d="M132.09 72.99L131.26 71.1H128.76L130.35 72.99H132.09Z" fill="#008C4F"/>
<path d="M134.02 79.84V75.79C134.02 74.31 133 73.56 131.22 73.56C130.25 73.57 129.3 73.74 128.38 74.05V75.94H128.68C129.02 75.74 129.39 75.59 129.78 75.49C130.2 75.37 130.63 75.31 131.07 75.3C131.98 75.3 132.13 75.68 132.13 75.98C132.13 76.28 132.13 76.47 131.87 76.51C131.35 76.75 130.8 76.94 130.24 77.08C129.55 77.27 128.9 77.61 128.35 78.06C128.12 78.28 127.95 78.56 127.84 78.86C127.74 79.16 127.7 79.48 127.74 79.8C127.74 80.11 127.79 80.43 127.91 80.72C128.03 81.01 128.2 81.28 128.42 81.5C128.68 81.74 128.98 81.92 129.32 82.04C129.65 82.16 130 82.21 130.35 82.18H131.52L131.9 80.29L131.56 80.48C131.26 80.64 130.92 80.72 130.58 80.71C129.82 80.71 129.71 80.26 129.71 79.99C129.68 79.85 129.69 79.7 129.74 79.56C129.79 79.42 129.89 79.31 130.01 79.23C130.4 78.99 130.82 78.8 131.26 78.66C131.56 78.59 131.84 78.46 132.09 78.28V82.25H134.25V80.21" fill="#008C4F"/>
<path d="M142.42 80.52V77.19C142.44 76.85 142.44 76.51 142.42 76.17C142.42 75.71 142.32 75.26 142.12 74.85C141.95 74.44 141.64 74.11 141.25 73.9C140.78 73.66 140.26 73.54 139.74 73.56C139.31 73.53 138.88 73.61 138.49 73.79C138.1 73.97 137.76 74.24 137.5 74.58V73.75H135.31V81.69H137.58V81.12C137.56 80.87 137.56 80.62 137.58 80.36V77.33C137.58 76.08 138.26 75.51 139.13 75.51C140 75.51 140.34 75.96 140.38 76.95C140.42 77.93 140.38 79.79 140.38 81.49V81.68H142.69V80.32" fill="#008C4F"/>
<path d="M147.56 73.56C146.98 73.56 146.4 73.66 145.86 73.86C145.33 74.03 144.851 74.33 144.461 74.73C144.031 75.15 143.701 75.67 143.511 76.24C143.281 76.92 143.191 77.64 143.251 78.36C143.251 79.07 143.42 79.77 143.74 80.4C144 80.9 144.41 81.32 144.91 81.57C145.36 81.83 145.871 81.96 146.391 81.95C146.851 81.95 147.311 81.84 147.711 81.61C147.971 81.44 148.22 81.24 148.43 81C148.5 81.53 148.5 82.06 148.43 82.59C148.4 82.75 148.351 82.9 148.261 83.04C148.181 83.18 148.06 83.29 147.93 83.39C147.63 83.57 147.291 83.66 146.951 83.65C146.101 83.6 145.27 83.39 144.49 83.04H144.191L144.42 85.16C144.88 85.29 145.351 85.4 145.821 85.46C146.351 85.5 146.88 85.5 147.41 85.46C148.26 85.5 149.1 85.24 149.79 84.74C150.09 84.39 150.311 83.99 150.441 83.55C150.571 83.11 150.61 82.65 150.55 82.2V74.07C149.62 73.84 148.671 73.7 147.711 73.65L147.56 73.54V73.56ZM148.511 78.33C148.481 78.84 148.3 79.33 147.98 79.73C147.87 79.88 147.73 80 147.56 80.08C147.4 80.16 147.221 80.21 147.031 80.22C146.841 80.22 146.65 80.18 146.47 80.1C146.29 80.02 146.141 79.91 146.011 79.77C145.671 79.37 145.491 78.86 145.521 78.33C145.481 77.77 145.591 77.21 145.821 76.7C145.981 76.35 146.241 76.06 146.581 75.87C146.921 75.69 147.29 75.6 147.68 75.61C147.97 75.57 148.26 75.57 148.55 75.61V78.26" fill="#008C4F"/>
<path d="M170.83 80.1V76.05C170.84 75.68 170.78 75.31 170.64 74.97C170.5 74.63 170.3 74.31 170.04 74.05C169.49 73.61 168.81 73.38 168.11 73.41C167.54 73.41 166.99 73.53 166.48 73.79C166.21 73.97 165.98 74.2 165.8 74.47V71.14H163.57V81.73H165.84V81.54C165.76 80.34 165.76 79.14 165.84 77.95C165.84 77.3 165.99 76.67 166.29 76.1C166.4 75.93 166.56 75.78 166.75 75.69C166.94 75.6 167.14 75.56 167.35 75.57C167.51 75.55 167.68 75.57 167.84 75.62C168 75.67 168.14 75.76 168.26 75.88C168.52 76.22 168.65 76.63 168.64 77.05V81.74H170.95V79.96" fill="#008C4F"/>
<path d="M195.38 80.52V77.19C195.4 76.85 195.4 76.51 195.38 76.17C195.38 75.72 195.28 75.27 195.12 74.85C194.92 74.45 194.6 74.12 194.21 73.9C193.75 73.65 193.22 73.53 192.7 73.56C192.27 73.53 191.84 73.61 191.45 73.79C191.06 73.97 190.72 74.24 190.46 74.58V73.75H188.27V81.69H190.539V81.05C190.519 80.82 190.519 80.6 190.539 80.37V78.18C190.519 77.9 190.519 77.62 190.539 77.35C190.539 76.1 191.179 75.53 192.049 75.53C192.919 75.53 193.259 75.98 193.299 76.97C193.339 77.95 193.299 79.81 193.299 81.51V81.7H195.609V80.34" fill="#008C4F"/>
<path d="M200.53 73.56C199.95 73.56 199.37 73.66 198.83 73.86C198.3 74.03 197.82 74.33 197.43 74.73C197 75.16 196.68 75.67 196.48 76.24C196.27 76.93 196.18 77.64 196.22 78.36C196.22 79.07 196.39 79.77 196.71 80.4C196.97 80.9 197.38 81.32 197.88 81.57C198.33 81.83 198.84 81.96 199.36 81.95C199.82 81.95 200.28 81.84 200.68 81.61C200.94 81.44 201.18 81.24 201.4 81C201.47 81.53 201.47 82.06 201.4 82.59C201.34 82.9 201.18 83.18 200.95 83.38C200.65 83.56 200.31 83.65 199.97 83.64C199.11 83.59 198.26 83.39 197.47 83.03H197.17L197.4 85.15C197.86 85.28 198.33 85.39 198.8 85.45C199.33 85.49 199.86 85.49 200.39 85.45C201.24 85.49 202.08 85.23 202.77 84.73C203.08 84.39 203.31 83.99 203.44 83.55C203.57 83.11 203.6 82.65 203.52 82.19V74.06C202.59 73.83 201.64 73.69 200.68 73.64L200.53 73.53V73.56ZM201.48 78.33C201.43 78.84 201.25 79.32 200.95 79.73C200.84 79.87 200.71 79.99 200.55 80.07C200.39 80.15 200.22 80.21 200.04 80.22C199.84 80.22 199.64 80.18 199.46 80.1C199.28 80.02 199.11 79.91 198.98 79.76C198.64 79.36 198.46 78.85 198.49 78.32C198.45 77.76 198.56 77.2 198.79 76.69C198.95 76.34 199.21 76.05 199.55 75.86C199.89 75.68 200.26 75.59 200.65 75.6C200.94 75.55 201.23 75.55 201.52 75.6V78.25" fill="#008C4F"/>
<path d="M216.49 72.27C216.09 71.87 215.61 71.56 215.08 71.35C214.55 71.14 213.99 71.04 213.42 71.06H208.99V75.26H208.08V77.15H209.37V81.65H213.15C214.14 81.68 215.11 81.41 215.95 80.89C216.68 80.36 217.23 79.62 217.54 78.77C217.87 77.81 218.01 76.79 217.96 75.78C218.02 74.4 217.54 73.04 216.64 72L216.49 72.26V72.27ZM215.51 77.64C215.35 78.19 215.02 78.69 214.56 79.04C214.02 79.41 213.37 79.6 212.71 79.57H211.5V77.07H213.66V75.14H211.47V72.79H213.51C213.97 72.76 214.42 72.9 214.8 73.17C215.13 73.46 215.37 73.82 215.52 74.23C215.7 74.82 215.75 75.44 215.67 76.05C215.71 76.7 215.64 77.36 215.44 77.98" fill="#008C4F"/>
<path d="M225.38 75.56C225.1 74.96 224.65 74.44 224.09 74.08C223.48 73.72 222.79 73.54 222.09 73.55C221.38 73.51 220.67 73.7 220.08 74.1C219.49 74.5 219.04 75.07 218.8 75.75C218.5 76.47 218.37 77.24 218.42 78.02C218.44 78.54 218.55 79.05 218.72 79.53C218.87 80 219.12 80.44 219.44 80.82C219.77 81.21 220.18 81.52 220.65 81.73C221.15 81.97 221.69 82.08 222.24 82.07C223.01 82.09 223.77 81.87 224.4 81.43C224.96 81.02 225.38 80.45 225.61 79.8C225.84 79.12 225.95 78.4 225.91 77.68C225.88 76.94 225.7 76.22 225.38 75.56ZM223.38 79.34C223.29 79.57 223.13 79.76 222.93 79.89C222.73 80.02 222.49 80.08 222.24 80.06C222.01 80.06 221.79 80.02 221.58 79.92C221.38 79.82 221.2 79.67 221.06 79.49C220.75 79.03 220.57 78.49 220.57 77.94C220.5 77.26 220.64 76.57 220.99 75.97C221.11 75.76 221.28 75.59 221.48 75.48C221.69 75.37 221.92 75.31 222.16 75.33C222.38 75.35 222.6 75.42 222.79 75.55C222.98 75.68 223.13 75.85 223.22 76.05C223.5 76.54 223.65 77.11 223.64 77.68C223.7 78.31 223.58 78.93 223.3 79.5" fill="#008C4F"/>
<path d="M221.98 72.12L222.51 72.8H223.99L223.16 71.1H220.74L219.98 72.8H221.451L221.98 72.12Z" fill="#008C4F"/>
<path d="M233.93 80.52V77.19C233.95 76.85 233.95 76.51 233.93 76.17C233.93 75.72 233.83 75.27 233.66 74.85C233.45 74.47 233.16 74.14 232.79 73.9C232.31 73.66 231.78 73.54 231.24 73.56C230.81 73.53 230.38 73.61 229.99 73.79C229.6 73.97 229.26 74.24 229 74.58V73.75H226.81V81.69H229.08V77.34C229.08 76.09 229.76 75.52 230.63 75.52C231.5 75.52 231.84 75.97 231.88 76.96C231.92 77.94 231.88 79.76 231.88 81.5V81.69H234.23V81.5C234.25 81.11 234.25 80.72 234.23 80.33" fill="#008C4F"/>
<path d="M242.14 74.01C241.21 73.78 240.26 73.64 239.3 73.59C238.73 73.59 238.17 73.69 237.64 73.89C237.1 74.05 236.6 74.35 236.2 74.76C235.77 75.19 235.45 75.7 235.25 76.27C235.04 76.96 234.95 77.67 234.98 78.39C234.98 79.1 235.15 79.8 235.47 80.43C235.73 80.93 236.14 81.35 236.64 81.6C237.09 81.86 237.6 81.99 238.12 81.98C238.59 81.98 239.06 81.87 239.48 81.64C239.74 81.48 239.97 81.27 240.16 81.03C240.23 81.56 240.23 82.09 240.16 82.62C240.14 82.78 240.09 82.93 240 83.07C239.92 83.21 239.8 83.32 239.67 83.41C239.47 83.53 239.26 83.61 239.03 83.64C238.8 83.67 238.57 83.66 238.35 83.6C237.49 83.55 236.64 83.35 235.85 82.99H235.58L235.77 85.11C236.23 85.24 236.7 85.35 237.17 85.41H238.76C239.61 85.45 240.45 85.19 241.14 84.69C241.45 84.35 241.68 83.95 241.82 83.51C241.96 83.07 242 82.61 241.93 82.15V74.02L242.12 73.98L242.14 74.01ZM239.95 78.21C239.92 78.72 239.74 79.21 239.42 79.61C239.31 79.75 239.18 79.87 239.02 79.95C238.86 80.03 238.69 80.09 238.51 80.1C238.31 80.1 238.12 80.06 237.93 79.98C237.75 79.9 237.58 79.79 237.45 79.64C237.11 79.24 236.93 78.73 236.96 78.2C236.92 77.64 237.03 77.08 237.26 76.57C237.42 76.22 237.68 75.93 238.02 75.74C238.37 75.55 238.76 75.46 239.15 75.48C239.43 75.43 239.71 75.43 239.98 75.48V78.13" fill="#008C4F"/>
<path d="M178.81 75.37C179.44 75.16 179.98 74.73 180.32 74.16C180.42 73.87 180.43 73.55 180.33 73.26C180.23 72.97 180.04 72.71 179.79 72.54C179.54 72.38 179.25 72.29 178.96 72.28C178.58 72.31 178.21 72.44 177.9 72.66L178.2 73.49C178.32 73.46 178.45 73.46 178.58 73.49H178.77C178.84 73.58 178.87 73.68 178.87 73.79C178.87 73.9 178.83 74.01 178.77 74.09V73.98H176.58C176.66 75.42 176.66 76.86 176.58 78.29C176.58 79.05 176.2 79.92 175.18 79.92C174.16 79.92 174.01 79.47 173.97 78.48C173.93 77.5 173.97 74.7 173.97 73.98H171.74V79.58C171.73 79.93 171.79 80.28 171.92 80.6C172.05 80.92 172.25 81.21 172.51 81.45C172.76 81.69 173.07 81.87 173.4 81.99C173.73 82.1 174.08 82.15 174.43 82.11C174.84 82.14 175.26 82.07 175.64 81.91C176.02 81.75 176.36 81.49 176.62 81.17V81.93H178.7V75.42" fill="#008C4F"/>
<path d="M186.42 74.96C186.74 74.73 187 74.44 187.18 74.09C187.28 73.8 187.28 73.49 187.18 73.2C187.08 72.91 186.89 72.66 186.64 72.5C186.41 72.33 186.13 72.24 185.85 72.24C185.46 72.27 185.08 72.4 184.75 72.62L185.05 73.45C185.19 73.41 185.33 73.41 185.47 73.45H185.66C185.72 73.54 185.76 73.64 185.76 73.75C185.76 73.86 185.73 73.96 185.66 74.05C185.56 74.17 185.45 74.27 185.32 74.35C184.72 73.96 184.02 73.77 183.31 73.78C182.83 73.77 182.34 73.85 181.89 74.04C181.44 74.22 181.03 74.5 180.7 74.84C180.3 75.3 180 75.83 179.82 76.41C179.64 76.99 179.58 77.6 179.64 78.2C179.61 78.71 179.69 79.22 179.87 79.71C180.05 80.19 180.32 80.63 180.68 81C181.03 81.37 181.46 81.67 181.93 81.87C182.4 82.07 182.91 82.18 183.42 82.17C183.89 82.19 184.37 82.12 184.81 81.95C185.25 81.78 185.66 81.52 185.99 81.19C186.77 80.26 187.15 79.07 187.05 77.86C187.05 76.85 186.71 75.87 186.1 75.06L186.4 74.95L186.42 74.96ZM184.64 79.84C184.51 79.97 184.36 80.07 184.19 80.14C184.02 80.21 183.84 80.23 183.66 80.22C182.56 80.22 182.11 79.09 182.03 78.14C181.93 77.36 182.13 76.58 182.6 75.95C182.73 75.82 182.88 75.72 183.05 75.66C183.22 75.59 183.4 75.57 183.58 75.57C184.94 75.57 185.17 77.08 185.21 77.73C185.3 78.48 185.1 79.24 184.64 79.85V79.84Z" fill="#008C4F"/>
<path d="M162.7 74.01C162.67 73.5 162.55 73 162.36 72.53C162.18 72.11 161.87 71.76 161.49 71.51C161.12 71.24 160.67 71.09 160.2 71.09H156V81.68H158.23V81.49C158.23 80.73 158.04 74.3 158.04 73.7V72.87H159.25C159.57 72.84 159.89 72.92 160.16 73.1C160.27 73.21 160.35 73.35 160.41 73.5C160.46 73.65 160.48 73.81 160.47 73.97C160.51 74.37 160.41 74.78 160.17 75.1C159.93 75.35 159.62 75.52 159.29 75.6C158.95 75.67 158.6 75.65 158.28 75.52L158.7 77.41C159.61 77.58 160.56 77.41 161.35 76.92C161.84 76.61 162.21 76.14 162.41 75.6C162.61 75.06 162.7 74.48 162.67 73.9" fill="#008C4F"/>
</svg>
